<svg width="44" height="44" viewBox="0 0 44 44" fill="none" xmlns="http://www.w3.org/2000/svg">
<path fill-rule="evenodd" clip-rule="evenodd" d="M33.7678 11.3399C34.0773 11.0334 34.0773 10.5364 33.7678 10.2299C33.4583 9.92337 32.9566 9.92337 32.6471 10.2299L21.884 20.8899L11.3529 10.4597C11.0434 10.1532 10.5417 10.1532 10.2322 10.4597C9.9227 10.7663 9.9227 11.2632 10.2322 11.5698L20.7632 22L10.2321 32.4302C9.92263 32.7368 9.92263 33.2337 10.2321 33.5403C10.5416 33.8468 11.0434 33.8468 11.3529 33.5403L21.884 23.11L32.6471 33.7701C32.9566 34.0766 33.4584 34.0766 33.7679 33.7701C34.0774 33.4636 34.0774 32.9666 33.7679 32.6601L23.0047 22L33.7678 11.3399Z" fill="#FDFDFF"/>
</svg>
