<svg width="24" height="24" viewBox="0 0 24 24" fill="none" xmlns="http://www.w3.org/2000/svg">
<rect x="0.5" y="0.5" width="23" height="23" rx="0.5" fill="white"/>
<path d="M3.64 9.13781H1.92883C1.81172 9.13781 1.71214 9.2229 1.69387 9.33854L1.0018 13.7264C0.988032 13.813 1.0551 13.891 1.14291 13.891H1.95985C2.07694 13.891 2.17652 13.806 2.19479 13.6901L2.38144 12.5067C2.39947 12.3908 2.49929 12.3057 2.61614 12.3057H3.15784C4.28503 12.3057 4.93556 11.7603 5.10547 10.6794C5.18203 10.2065 5.10872 9.83492 4.88728 9.57471C4.64408 9.28894 4.21272 9.13781 3.64 9.13781ZM3.83742 10.7404C3.74384 11.3544 3.27469 11.3544 2.82106 11.3544H2.56285L2.744 10.2077C2.75477 10.1384 2.8148 10.0874 2.88487 10.0874H3.00321C3.31221 10.0874 3.60372 10.0874 3.75433 10.2635C3.84417 10.3686 3.8717 10.5247 3.83742 10.7404Z" fill="#283B82"/>
<path d="M8.75508 10.7207H7.93568C7.86589 10.7207 7.80559 10.7717 7.79478 10.841L7.75855 11.0702L7.70123 10.9871C7.52384 10.7297 7.12824 10.6436 6.73341 10.6436C5.82792 10.6436 5.05452 11.3294 4.9039 12.2915C4.8256 12.7714 4.93694 13.2302 5.20916 13.5502C5.45886 13.8445 5.81616 13.9671 6.24128 13.9671C6.97089 13.9671 7.37548 13.498 7.37548 13.498L7.33893 13.7257C7.32515 13.8127 7.39223 13.8908 7.47957 13.8908H8.21764C8.33499 13.8908 8.43408 13.8057 8.45261 13.6899L8.89546 10.8853C8.9095 10.799 8.84268 10.7207 8.75508 10.7207ZM7.6129 12.3155C7.53386 12.7836 7.16227 13.0979 6.68841 13.0979C6.45047 13.0979 6.26028 13.0216 6.13817 12.8769C6.01708 12.7333 5.97104 12.5289 6.00958 12.3012C6.08338 11.8371 6.46122 11.5126 6.92782 11.5126C7.16055 11.5126 7.34969 11.5899 7.4743 11.7357C7.59917 11.8831 7.64866 12.0888 7.6129 12.3155Z" fill="#283B82"/>
<path d="M13.1191 10.7207H12.2957C12.2171 10.7207 12.1433 10.7597 12.0987 10.825L10.963 12.4979L10.4817 10.8903C10.4514 10.7897 10.3586 10.7207 10.2535 10.7207H9.4443C9.34594 10.7207 9.27766 10.8167 9.30893 10.9093L10.2159 13.571L9.36322 14.7748C9.29614 14.8696 9.36369 15 9.47959 15H10.302C10.3801 15 10.4531 14.9619 10.4974 14.8979L13.2362 10.9446C13.3017 10.85 13.2344 10.7207 13.1191 10.7207Z" fill="#283B82"/>
<path d="M15.8456 9.13781H14.1341C14.0173 9.13781 13.9177 9.2229 13.8994 9.33854L13.2074 13.7264C13.1936 13.813 13.2607 13.891 13.348 13.891H14.2262C14.3078 13.891 14.3776 13.8315 14.3904 13.7504L14.5868 12.5067C14.6048 12.3908 14.7046 12.3057 14.8215 12.3057H15.3629C16.4903 12.3057 17.1406 11.7603 17.3108 10.6794C17.3876 10.2065 17.3138 9.83492 17.0924 9.57471C16.8494 9.28894 16.4183 9.13781 15.8456 9.13781ZM16.043 10.7404C15.9497 11.3544 15.4805 11.3544 15.0266 11.3544H14.7687L14.9501 10.2077C14.9609 10.1384 15.0204 10.0874 15.0907 10.0874H15.209C15.5178 10.0874 15.8095 10.0874 15.9601 10.2635C16.05 10.3686 16.0772 10.5247 16.043 10.7404Z" fill="#469BDB"/>
<path d="M20.9601 10.7207H20.1412C20.0709 10.7207 20.011 10.7717 20.0005 10.841L19.9643 11.0702L19.9067 10.9871C19.7293 10.7297 19.334 10.6436 18.9392 10.6436C18.0336 10.6436 17.2605 11.3294 17.1099 12.2915C17.0318 12.7714 17.1427 13.2302 17.4149 13.5502C17.6651 13.8445 18.0219 13.9671 18.447 13.9671C19.1766 13.9671 19.5812 13.498 19.5812 13.498L19.5446 13.7257C19.5309 13.8127 19.5979 13.8908 19.6858 13.8908H20.4237C20.5405 13.8908 20.6401 13.8057 20.6584 13.6899L21.1015 10.8853C21.115 10.799 21.0479 10.7207 20.9601 10.7207ZM19.8179 12.3155C19.7393 12.7836 19.3673 13.0979 18.8934 13.0979C18.6559 13.0979 18.4653 13.0216 18.3432 12.8769C18.2221 12.7333 18.1765 12.5289 18.2146 12.3012C18.2889 11.8371 18.6662 11.5126 19.1329 11.5126C19.3655 11.5126 19.5547 11.5899 19.6793 11.7357C19.8046 11.8831 19.8542 12.0888 19.8179 12.3155Z" fill="#469BDB"/>
<path d="M21.9263 9.25819L21.224 13.7264C21.2102 13.813 21.2773 13.891 21.3646 13.891H22.0707C22.188 13.891 22.2876 13.806 22.3056 13.6901L22.9982 9.30251C23.012 9.21591 22.9449 9.1376 22.8576 9.1376H22.0669C21.9971 9.13781 21.9371 9.18892 21.9263 9.25819Z" fill="#469BDB"/>
<rect x="0.5" y="0.5" width="23" height="23" rx="0.5" stroke="#F3F3F5"/>
</svg>
