<svg width="24" height="24" viewBox="0 0 24 24" fill="none" xmlns="http://www.w3.org/2000/svg">
<path fill-rule="evenodd" clip-rule="evenodd" d="M23.7678 1.33991C24.0773 1.03339 24.0773 0.536415 23.7678 0.229892C23.4583 -0.0766307 22.9566 -0.0766307 22.6471 0.229892L11.884 10.8899L1.35293 0.459748C1.04345 0.153225 0.541672 0.153225 0.232186 0.459748C-0.0772994 0.76627 -0.0772994 1.26324 0.232186 1.56976L10.7632 12L0.232114 22.4302C-0.0773713 22.7368 -0.0773716 23.2337 0.232114 23.5403C0.5416 23.8468 1.04338 23.8468 1.35286 23.5403L11.884 13.11L22.6471 23.7701C22.9566 24.0766 23.4584 24.0766 23.7679 23.7701C24.0774 23.4636 24.0774 22.9666 23.7679 22.6601L13.0047 12L23.7678 1.33991Z" fill="#FDFDFF"/>
</svg>
