<svg width="18" height="18" viewBox="0 0 18 18" fill="none" xmlns="http://www.w3.org/2000/svg">
<path id="vector" fill-rule="evenodd" clip-rule="evenodd" d="M17.8259 1.00493C18.058 0.77504 18.058 0.402311 17.8259 0.172419C17.5937 -0.057473 17.2174 -0.057473 16.9853 0.172419L8.91297 8.16746L1.0147 0.344811C0.782586 0.114919 0.406254 0.114919 0.17414 0.344811C-0.0579746 0.574703 -0.0579746 0.947432 0.17414 1.17732L8.07241 8.99997L0.174086 16.8227C-0.0580285 17.0526 -0.0580287 17.4253 0.174086 17.6552C0.4062 17.8851 0.782532 17.8851 1.01465 17.6552L8.91297 9.83249L16.9854 17.8276C17.2175 18.0575 17.5938 18.0575 17.8259 17.8276C18.058 17.5977 18.058 17.225 17.8259 16.9951L9.75353 8.99997L17.8259 1.00493Z" fill="#4D4D4D"/>
</svg>
