<svg width="45" height="30" viewBox="0 0 45 30" fill="none" xmlns="http://www.w3.org/2000/svg">
<g clip-path="url(#clip0_2559_380)">
<path fill-rule="evenodd" clip-rule="evenodd" d="M44.0979 10.7848V10.8374C44.0908 11.4846 43.7956 12.0029 43.3479 12.4615C42.8599 12.9607 42.2432 13.233 41.6027 13.4647C41.2218 13.6032 40.8241 13.6868 40.436 13.7895C40.2956 13.8277 40.1908 13.8707 40.2099 14.0475C40.2194 14.1406 40.1908 14.2314 40.0908 14.272C40.0075 14.3054 40.0122 14.3818 40.0003 14.4511C39.8218 15.4399 39.5122 16.3953 39.3337 17.3841C39.1956 18.1437 39.1194 18.9104 39.0622 19.6794C39.0575 19.7415 39.0527 19.806 39.0479 19.8681C39.0122 20.3196 38.9789 20.7734 39.0003 21.2296C39.0146 21.5544 39.0337 21.8768 39.0646 22.1993C39.086 22.419 39.1503 22.462 39.3313 22.3641C39.8765 22.0631 40.4599 22.0942 41.0456 22.1515C41.7503 22.2232 42.3646 22.5074 42.8932 22.9803C43.036 23.1093 43.1979 23.2072 43.3765 23.2884C43.6051 23.3935 43.617 23.5296 43.4241 23.6968C43.0718 24.0002 42.7551 24.3489 42.3432 24.5734C41.467 25.0487 40.5908 25.0965 39.736 24.5232C39.3575 24.2701 39.0884 23.919 38.9313 23.4604C38.6027 23.6228 38.4599 23.5583 38.3718 23.243C38.3384 23.1188 38.3337 23.0018 38.3908 22.8871C38.4503 22.7653 38.4241 22.7128 38.2813 22.6865C37.2646 22.4954 36.536 21.9007 36.0003 21.0337C35.536 20.2789 35.2194 19.4573 34.8979 18.6381C34.8099 18.4136 34.7241 18.1867 34.5789 17.9478C34.5622 18.1914 34.5979 18.3945 34.6337 18.5975C34.7289 19.1158 34.7479 19.6436 34.8003 20.1667C34.8646 20.8116 34.9218 21.4565 34.9765 22.1013C35.067 23.1905 35.1551 24.282 35.1646 25.3759C35.1646 25.3974 35.1646 25.4165 35.1646 25.438C35.2003 26.274 35.2003 27.547 34.9646 28.4857C34.9503 28.5693 34.9384 28.6529 34.9218 28.7365C34.8765 28.9562 34.7956 29.1616 34.6884 29.3599C34.5122 29.6871 34.2503 29.8471 33.8789 29.8423C33.0194 29.8328 32.4194 29.2524 32.3099 28.34C32.2337 27.7142 32.2622 27.0837 32.1932 26.4603C32.1741 26.2788 32.1551 26.0972 32.0765 25.93C32.0408 25.8584 32.0003 25.7796 31.9003 25.7867C31.7979 25.7939 31.7789 25.8775 31.7599 25.9587C31.6979 26.2095 31.6956 26.4627 31.6956 26.7182C31.6956 26.7564 31.6956 26.7947 31.6956 26.8329C31.6956 26.9547 31.6956 27.0765 31.6956 27.1983C31.6956 27.6832 31.6979 28.168 31.5956 28.6481C31.517 29.0088 31.4122 29.3527 31.1432 29.625C30.8527 29.9188 30.5146 30.0119 30.1194 29.8877C30.0313 29.8614 29.9456 29.8328 29.8599 29.7993C29.567 29.6895 29.3837 29.4936 29.3051 29.1736C29.2289 28.8631 29.2241 28.5502 29.217 28.2373C29.217 28.1561 29.2146 28.0773 29.2122 27.9961C29.1932 27.4515 29.2027 26.9045 29.1075 26.3624C29.0313 25.9396 28.8765 25.6864 28.3027 25.6004C27.7051 25.5097 27.1051 25.5168 26.5051 25.5216C26.3694 25.5216 26.2313 25.524 26.0956 25.524C25.4099 25.524 24.7265 25.5097 24.0432 25.4619C23.5194 25.4261 22.9956 25.4165 22.4718 25.395C21.5813 25.3616 20.7051 25.2231 19.8265 25.0941C18.7503 24.9364 17.6789 24.7454 16.6051 24.571C16.4099 24.54 16.4027 24.5519 16.398 24.7454C16.3813 25.4858 16.4884 26.2143 16.5979 26.9427C16.6075 27.0048 16.617 27.0669 16.6265 27.1314C16.7003 27.6378 16.717 28.1441 16.6027 28.6433C16.4956 29.1091 16.267 29.5103 15.7813 29.6513C15.2551 29.8041 14.7408 29.7181 14.2765 29.4148C13.9956 29.2309 13.8789 28.9347 13.8122 28.6218C13.7694 28.414 13.7408 28.2039 13.736 27.9889C13.7265 27.4825 13.7122 26.9762 13.6908 26.4698C13.6789 26.2167 13.6503 25.9635 13.6146 25.7127C13.598 25.5933 13.5456 25.481 13.5051 25.3664C13.4646 25.2493 13.3741 25.2087 13.2646 25.2469C13.0146 25.3329 12.8099 25.4715 12.7694 25.7628V25.7724C12.7479 25.9205 12.7265 26.0662 12.7337 26.2167C12.7575 26.8042 12.7837 27.3894 12.8027 27.977V27.9865C12.8146 28.3878 12.8265 28.7914 12.6551 29.1736C12.498 29.5223 12.186 29.711 11.8051 29.6704C11.1003 29.5939 10.5908 29.1473 10.436 28.4857C10.3146 27.9602 10.2741 27.4252 10.2337 26.8902C10.1694 26.0112 10.1122 25.1347 10.0527 24.2557C9.98604 23.2956 9.96938 22.333 9.8789 21.3729C9.86938 21.2821 9.85985 21.1913 9.84795 21.1006C9.81462 20.8211 9.78129 20.5441 9.80986 20.2694C9.73367 20.2288 9.69081 20.2575 9.64795 20.2837C9.63843 20.2885 9.63128 20.2957 9.62176 20.3004C8.00747 21.2104 6.33604 21.2224 4.62414 20.6253C3.7789 20.3315 3.03843 19.8562 2.41938 19.2209C1.70271 18.4876 1.20985 17.611 0.931283 16.6127C0.600331 15.4304 0.493189 14.229 0.500332 13.0061C0.505093 11.9886 0.569379 10.9807 0.762236 9.9823C1.00033 8.75941 1.43128 7.60817 2.10747 6.55247C2.42176 6.06284 2.767 5.60664 3.22414 5.24121C3.27176 5.20299 3.31938 5.16 3.34795 5.10984C3.39557 5.02625 3.41938 4.93788 3.30509 4.88055C3.18605 4.82084 3.10271 4.71097 2.99557 4.63932C2.28128 4.17118 2.10271 2.6975 2.5789 1.93797C2.89795 1.43162 3.317 1.08768 3.92652 1.00886C4.15509 0.980199 4.37176 1.02558 4.58366 1.08051C4.767 1.13067 4.85271 1.27637 4.84319 1.477C4.83367 1.68241 4.76223 1.87348 4.67652 2.05739C4.47652 2.48493 4.39557 2.92202 4.56938 3.38299C4.73843 3.82963 5.19795 4.21656 5.70747 4.17835C6.38128 4.12819 7.05747 4.08281 7.73128 4.04937C8.20509 4.02548 8.68128 4.03981 9.15509 4.09475C9.71938 4.15924 10.2218 4.38375 10.7051 4.67037C11.1003 4.90444 11.4908 4.8495 11.817 4.52228C12.0575 4.27866 12.2265 3.99921 12.2956 3.66005C12.3503 3.4021 12.4051 3.14414 12.4622 2.88858C12.5337 2.56375 12.6979 2.45149 13.0289 2.49926C13.4146 2.55658 13.6622 2.80498 13.8265 3.1322C14.3456 4.16163 14.2194 5.4705 13.2027 6.36617C13.0599 6.49276 12.9289 6.64085 12.7456 6.71489C12.5979 6.7746 12.5837 6.8582 12.648 6.99673C12.8813 7.50308 13.0527 8.03332 13.1765 8.57789C13.2337 8.8239 13.2908 9.06991 13.3313 9.3207C13.3622 9.51178 13.448 9.6503 13.6075 9.76256C13.9337 9.99185 14.2908 10.1567 14.6575 10.2976C15.2408 10.5221 15.8265 10.7514 16.4527 10.8278C17.0027 10.8971 17.5575 10.9448 18.1099 10.9902C18.1884 10.9974 18.2694 11.0022 18.3479 11.0093C18.7813 11.0452 19.2146 11.081 19.6479 11.081C20.4956 11.0786 21.3432 11.038 22.1908 11.0093C23.2003 10.9759 24.2099 10.9807 25.2194 10.995C25.8551 11.0046 26.4908 11.0093 27.1218 11.0571C27.786 11.1097 28.4408 11.2291 29.0813 11.4249C29.6932 11.6112 30.2741 11.8668 30.8099 12.2131C31.3289 12.5475 31.7956 12.944 32.2099 13.4097C32.9813 14.2768 33.6646 15.1963 34.1218 16.2735C34.4027 16.9351 34.8384 17.5155 35.1075 18.1843C35.3789 18.8602 35.6646 19.529 35.9908 20.181C36.2956 20.7925 36.6599 21.3561 37.2099 21.7837C37.6313 22.1085 38.1099 22.2733 38.6241 22.3665C38.7884 22.3951 38.7884 22.29 38.7718 22.1826C38.7289 21.8816 38.6979 21.5783 38.6694 21.2773C38.5837 20.4079 38.5575 19.5385 38.5837 18.6644C38.6146 17.58 38.6908 16.498 38.7575 15.416V15.3922C38.767 15.2608 38.7765 15.1366 38.6337 15.0411C38.536 14.9766 38.5789 14.8715 38.6194 14.7783L38.6241 14.764C38.7813 14.3771 38.7813 14.3747 38.4218 14.1573C37.4027 13.5435 36.4575 12.8413 35.6599 11.948C35.086 11.3055 34.6265 10.5914 34.3765 9.76495C34.2075 9.20844 34.1408 8.63043 34.317 8.0572C34.4932 7.48875 34.9194 7.28573 35.4789 7.48636C35.9694 7.66311 36.3408 8.00705 36.6694 8.39636C36.9765 8.7618 37.2313 9.16306 37.4718 9.57626C37.5122 9.64553 37.5598 9.70763 37.617 9.79123C37.8027 9.57865 37.8979 9.33264 38.0432 9.12007C38.6146 8.27694 39.4003 7.73237 40.3741 7.48397C41.1408 7.28812 41.8622 7.42665 42.4646 7.97838C42.8337 8.31516 43.0241 8.7403 43.0075 9.24904C43.0075 9.28009 43.0075 9.31114 43.0075 9.33981C43.0075 9.38996 43.0075 9.44251 43.0027 9.49267C42.9932 9.59537 43.036 9.63836 43.1337 9.65269C43.2646 9.67419 43.386 9.71957 43.5051 9.78167C43.8837 9.98469 44.0884 10.2976 44.1051 10.7323C44.1051 10.7514 44.1051 10.7681 44.1051 10.7872L44.0979 10.7848ZM3.95748 1.38624C3.49557 1.44834 3.16224 1.71107 2.92176 2.09561C2.43843 2.86947 2.567 4.14013 3.65033 4.77068C3.73843 4.82084 3.79557 4.7874 3.85509 4.74919C3.867 4.74202 3.88128 4.73247 3.89319 4.7253C3.98843 4.67515 3.96223 4.60827 3.93604 4.53423L3.9289 4.51751C3.84795 4.2906 3.75271 4.0637 3.69081 3.83202C3.50747 3.13459 3.50509 2.45149 3.90271 1.81377C3.98604 1.68002 4.08128 1.55104 4.17652 1.41012C4.12652 1.3934 4.10033 1.37907 4.07414 1.37907C4.03366 1.37907 3.99319 1.38146 3.95509 1.38624H3.95748ZM4.30509 1.88304C4.35747 1.77556 4.40986 1.6633 4.38843 1.50805C4.14557 1.73017 4.00747 1.98335 3.90509 2.25802C3.617 3.0295 3.84557 3.74842 4.1289 4.46257C4.17414 4.57483 4.25747 4.55811 4.31938 4.49362C4.41462 4.39808 4.52652 4.33598 4.66938 4.27627C4.45985 3.98966 4.22414 3.74842 4.13605 3.41165C4.00509 2.91246 4.06462 2.43238 4.267 1.96186C4.2789 1.93558 4.29081 1.9117 4.30271 1.88542L4.30509 1.88304ZM13.4194 3.2564L13.4171 3.25248C13.344 3.12467 13.2675 2.99089 13.0813 2.95307C13.1479 3.35433 13.1956 3.74126 13.1337 4.13774C13.0384 4.75635 12.8241 5.33197 12.5384 5.88609C12.4646 6.07478 12.3551 6.22526 12.2813 6.31363C12.3241 6.37573 12.3694 6.43783 12.4122 6.49993C12.5408 6.402 12.6575 6.32079 12.7646 6.22764C13.2051 5.83832 13.5622 5.39646 13.6503 4.7874C13.7265 4.25239 13.6932 3.73648 13.4194 3.2564ZM12.6622 3.64572C12.4694 4.3336 12.1265 4.89011 11.3884 5.0979C11.3765 5.10268 11.3694 5.12895 11.3479 5.16478C11.6622 5.44423 11.9099 5.78339 12.1527 6.12972C12.2099 6.04851 12.2741 5.93386 12.336 5.81683C12.3789 5.71651 12.4218 5.6162 12.4646 5.51588C12.6051 5.17911 12.7479 4.84473 12.8408 4.49123C12.9432 4.09475 12.9789 3.69349 12.9408 3.28506C12.936 3.23252 12.9218 3.18475 12.8599 3.17758C12.8003 3.17042 12.7646 3.20624 12.7527 3.26118C12.7218 3.38777 12.7003 3.51913 12.6646 3.64572H12.6622ZM1.21938 9.77212C1.13128 10.2283 1.05033 10.6893 1.01462 11.1526C1.00509 11.2601 0.995569 11.3676 0.983665 11.4751C0.952712 11.7713 0.921759 12.0674 0.945568 12.366C1.05033 12.3946 1.10985 12.354 1.167 12.3182C1.1789 12.311 1.18843 12.3039 1.20033 12.2967C1.46224 12.1439 1.70271 11.9599 1.9789 11.8286C3.11462 11.2864 4.33366 11.1264 5.56938 11.0643C6.65509 11.0093 7.72414 11.1503 8.78128 11.4082C9.98128 11.6996 11.0956 12.1821 12.086 12.9344C12.3099 13.104 12.5289 13.276 12.7456 13.4456C12.7979 13.4193 12.8099 13.3787 12.8146 13.3381C12.9456 12.569 13.0622 11.7975 13.0479 11.0189C13.0241 9.64075 12.7741 8.30321 12.2051 7.03733C11.9575 6.48799 11.617 6.00074 11.2075 5.55888C11.1218 5.46811 11.0503 5.44901 10.9503 5.53021C10.7599 5.68546 10.5432 5.79533 10.3051 5.85504C9.55271 6.04134 8.83842 5.91714 8.17414 5.53499C7.85033 5.34869 7.62414 5.06208 7.4789 4.71575V4.70858C7.36938 4.45302 7.367 4.45302 7.09795 4.46496C7.04795 4.46735 6.99795 4.46974 6.94557 4.47451C6.86461 4.48407 6.78128 4.49123 6.70033 4.50079C6.23128 4.55333 5.75985 4.60349 5.28843 4.60349C4.84795 4.60349 4.46462 4.75635 4.10509 4.9952C3.89319 5.13612 3.70033 5.29614 3.50509 5.45856C3.34319 5.59231 3.34319 5.59948 3.48604 5.75712C3.91223 6.22526 4.09319 6.77699 4.02414 7.40515C3.97414 7.84702 3.79795 8.25067 3.54081 8.60655C3.0289 9.31353 2.38605 9.76973 1.45509 9.58343C1.29557 9.55238 1.24795 9.62642 1.21938 9.77212ZM35.5932 11.401C36.1932 12.1773 36.9337 12.8031 37.7218 13.3739C38.1146 13.6581 38.5075 13.94 38.9456 14.1502C39.1265 13.9973 39.2146 13.7776 39.3837 13.6343C39.6718 13.3954 39.6694 13.1518 39.5265 12.8174C39.2265 12.1128 39.0789 11.3652 39.1241 10.5937C39.1432 10.2713 39.1646 9.94647 39.3432 9.65747C39.5598 9.30637 39.9337 9.24666 40.2432 9.51894C40.3979 9.65508 40.4956 9.83422 40.5765 10.0205C40.6622 10.214 40.7384 10.4122 40.8194 10.6081C40.8527 10.5961 40.8765 10.5937 40.8884 10.5794C41.3265 10.0922 41.8432 9.73629 42.5051 9.64075C42.5932 9.62881 42.6194 9.57626 42.6289 9.49744C42.6789 9.08902 42.6218 8.70925 42.3479 8.38203C41.9122 7.85896 41.3408 7.68699 40.6908 7.77059C40.1813 7.83508 39.7194 8.04526 39.2932 8.32471C38.7122 8.70686 38.2979 9.23949 37.9765 9.84616C37.9337 9.92737 37.8932 10.011 37.836 10.0778C37.7146 10.2235 37.548 10.2307 37.4146 10.0922C37.3384 10.0134 37.2813 9.91542 37.2194 9.82227C36.9479 9.40668 36.7051 8.97437 36.3813 8.59699C36.1027 8.26978 35.7908 7.98316 35.3979 7.80403C35.0218 7.63206 34.7146 7.77775 34.5956 8.17185C34.5813 8.21962 34.5694 8.26978 34.5622 8.31993C34.4908 8.72597 34.5289 9.12723 34.6241 9.52372C34.7908 10.2283 35.1575 10.8326 35.5932 11.3963V11.401ZM5.09319 8.77135C4.94557 8.77852 4.75271 9.00542 4.74795 9.17978C4.74319 9.36847 4.92652 9.50461 5.20271 9.51416C5.35271 9.51894 5.5289 9.33503 5.5289 9.17261C5.5289 9.00064 5.26938 8.7618 5.09557 8.76896L5.09319 8.77135ZM9.35747 9.26815C9.18604 9.33981 9.12414 9.47356 9.10747 9.62403C9.08366 9.85332 9.23366 9.95842 9.40985 9.97275C9.73604 9.99902 10.1551 9.72196 9.76938 9.35175C9.65271 9.23949 9.51938 9.19889 9.35747 9.26815ZM43.4765 10.1208C43.3265 10.0086 43.1527 9.9608 42.9694 9.93931C42.4741 9.88437 42.0289 10.0253 41.6241 10.3024C41.4241 10.4385 41.2408 10.5937 41.0789 10.7824C40.8503 11.0499 40.7194 11.0261 40.5718 10.7156C40.4718 10.5054 40.3741 10.2928 40.2765 10.0826C40.217 9.95125 40.1384 9.83422 40.0313 9.73868C39.8956 9.61687 39.7575 9.62403 39.6289 9.75062C39.5456 9.83183 39.5122 9.93453 39.4765 10.0444C39.3932 10.3119 39.4027 10.5842 39.3908 10.9162C39.3979 11.0308 39.3956 11.2028 39.417 11.3748C39.5146 12.1247 39.7646 12.8293 40.0527 13.522C40.0884 13.6104 40.1432 13.6175 40.2218 13.5937C40.7194 13.4312 41.2384 13.3381 41.7265 13.1375C42.2932 12.9034 42.8218 12.6144 43.2337 12.1462C43.5932 11.7378 43.8218 11.2768 43.8003 10.7156C43.7908 10.4624 43.6741 10.2713 43.4789 10.1232L43.4765 10.1208ZM34.6408 26.5702C34.6265 26.2573 34.6218 25.9396 34.6599 25.6315C34.6646 25.6004 34.667 25.5718 34.6718 25.5455L34.6719 25.5444C34.7003 25.34 34.7023 25.3256 34.4956 25.2159C34.0884 24.9985 33.7456 24.7095 33.436 24.368C32.5384 23.3696 32.4099 21.7646 33.1432 20.6372C33.3789 20.2742 33.6956 20.0425 34.1289 20.0114C34.3099 19.9995 34.3146 19.9231 34.3003 19.7798C34.2479 19.3068 34.2027 18.8315 34.1194 18.3634C34.0241 17.826 33.9527 17.2814 33.7694 16.7631C33.7218 16.6318 33.6599 16.5816 33.5265 16.6127C33.4479 16.6318 33.3694 16.6461 33.2884 16.658C32.1503 16.8348 31.2575 16.4096 30.6122 15.4901C30.0622 14.7043 30.0908 13.8349 30.4051 12.9607C30.4194 12.9225 30.4432 12.8843 30.4646 12.8485L30.4672 12.8443C30.5115 12.7717 30.5545 12.7014 30.5241 12.6311C30.4741 12.5188 30.3241 12.4711 30.2099 12.4066C29.217 11.862 28.1408 11.6256 27.0265 11.5276C26.9003 11.5157 26.8218 11.5682 26.736 11.6494C26.5337 11.8477 26.3265 12.0435 26.1146 12.2275C25.3718 12.8723 24.536 13.2378 23.5265 13.0634C22.6646 12.9129 22.0099 12.4687 21.6289 11.6662C21.5551 11.5133 21.4646 11.4918 21.3218 11.499C21.2408 11.5037 21.1599 11.5061 21.0789 11.5109C20.6956 11.5276 20.3146 11.5467 19.9313 11.5467C18.9194 11.5467 17.9194 11.4154 16.917 11.3127C15.698 11.1885 14.5813 10.78 13.5622 10.0993C13.5289 10.0778 13.4932 10.0563 13.4551 10.0946C13.4337 10.1734 13.448 10.2498 13.4622 10.3262C13.4627 10.3293 13.4633 10.3324 13.4638 10.3354C13.4704 10.375 13.4767 10.4129 13.4789 10.4528C13.536 11.6136 13.4122 12.7577 13.1503 13.8874C13.1194 14.0212 13.1265 14.1215 13.2265 14.217C13.3956 14.3795 13.5337 14.5681 13.6575 14.764C13.9956 15.3014 14.2051 15.8722 14.0765 16.5219C13.8456 17.6827 12.7694 18.5402 11.586 18.4852C11.3956 18.4757 11.2908 18.5354 11.1908 18.6811C10.9194 19.0847 10.6146 19.4669 10.2456 19.7845C10.2051 19.8204 10.1694 19.8562 10.1384 19.8896L10.2051 21.2272C10.2059 21.2334 10.2067 21.2396 10.2075 21.2458C10.2329 21.4449 10.258 21.6418 10.2741 21.841C10.417 23.5273 10.5575 25.2135 10.6527 26.9021C10.667 27.1434 10.6956 27.3846 10.717 27.6258C10.7265 27.7286 10.7622 27.8026 10.886 27.7835C11.1956 27.7309 11.5122 27.7548 11.8218 27.7118C11.8741 27.7047 11.9313 27.7071 11.9908 27.7118C11.9937 27.7119 11.9966 27.7121 11.9995 27.7122C12.1229 27.7169 12.2468 27.7216 12.3003 27.6306C12.3551 27.5399 12.3408 27.4061 12.3265 27.2724C12.3218 27.2222 12.3146 27.1744 12.3146 27.1267C12.3099 27.0335 12.3075 26.9404 12.3027 26.8448C12.2884 26.5439 12.2741 26.2429 12.2884 25.942C12.3051 25.5813 12.4051 25.2637 12.7122 25.0391C13.3075 24.6021 13.8408 24.7621 13.9956 25.4141C14.0099 25.4738 14.0265 25.5312 14.036 25.5909C14.1099 26.0519 14.1313 26.5152 14.1456 26.981C14.1479 27.0693 14.1479 27.1577 14.1456 27.2461C14.1456 27.4443 14.1456 27.645 14.1765 27.8647C14.736 27.7309 15.2765 27.6688 15.8241 27.6641C16.2837 27.6593 16.286 27.6593 16.2051 27.2079C16.2027 27.1888 16.1908 27.1697 16.1884 27.1482C16.1646 26.9499 16.1384 26.7541 16.1099 26.5558C16.0289 25.9802 15.9503 25.4046 15.9765 24.8194C15.9765 24.7788 15.9765 24.7382 15.9765 24.6976C15.9741 24.6283 15.9718 24.5591 15.9837 24.4922C15.998 23.63 16.236 23.1332 16.3908 22.9039C16.5551 22.5504 16.8194 22.259 17.1622 22.0249C17.7765 21.6045 18.4146 21.5568 19.0694 21.9509C19.598 22.2685 19.986 22.7032 20.2313 23.2741C20.417 23.704 20.5479 24.1506 20.6741 24.5973C20.7075 24.7143 20.7456 24.7955 20.8884 24.8075C21.2503 24.8385 21.6099 24.8982 21.9741 24.9221C22.5884 24.9603 23.2051 24.9579 23.8194 25.0057C24.5503 25.063 25.2813 25.0654 26.0146 25.0702C26.3527 25.0702 26.6884 25.0726 27.0265 25.0798C27.5599 25.0893 28.0979 25.0845 28.6194 25.2278C29.086 25.3568 29.398 25.6458 29.4932 26.1355C29.5289 26.3146 29.5599 26.4937 29.5741 26.6752C29.6003 27.0192 29.6146 27.3631 29.6265 27.7071C29.6313 27.8456 29.6813 27.9053 29.8241 27.9101C30.198 27.9244 30.5718 27.9292 30.9432 27.965C31.2718 27.9961 31.2741 27.9817 31.2741 27.645C31.2741 27.5088 31.2741 27.3727 31.2741 27.2389C31.2741 26.9499 31.2741 26.6585 31.2789 26.3695C31.2837 26.1259 31.3241 25.8847 31.4265 25.6601C31.5265 25.4404 31.7003 25.3449 31.936 25.3544C32.1884 25.3664 32.3408 25.5216 32.4432 25.7318C32.5503 25.9515 32.5979 26.1904 32.6265 26.434C32.6718 26.8377 32.6813 27.2437 32.686 27.6473C32.6884 27.8814 32.717 27.9053 32.9503 27.9077C33.0099 27.9077 33.0718 27.9077 33.1313 27.9077C33.5765 27.9077 34.0218 27.9125 34.4646 27.8719C34.5718 27.8623 34.6241 27.8456 34.6313 27.719C34.6527 27.3345 34.6599 26.9523 34.6432 26.5678L34.6408 26.5702ZM6.04557 20.5417C6.82176 20.6515 7.59795 20.6062 8.35509 20.396C9.23129 20.1524 9.917 19.6197 10.486 18.9247C10.8908 18.4279 11.2122 17.8833 11.4837 17.3029C11.9741 16.2568 12.3599 15.1724 12.648 14.0522C12.686 13.9065 12.667 13.8014 12.5646 13.7035C12.5146 13.6558 12.4694 13.5984 12.4146 13.553C11.6075 12.8819 10.7265 12.3349 9.73128 11.9886C7.75509 11.3007 5.73843 11.1455 3.6789 11.5372C2.85509 11.6924 2.0789 11.9504 1.37414 12.4138C1.28128 12.4759 1.18366 12.538 1.07414 12.5547C0.940807 12.5762 0.92176 12.655 0.924141 12.7672C0.924141 12.9106 0.924141 13.0515 0.924141 13.1948C0.924141 13.2545 0.924141 13.3142 0.924141 13.3739C0.919379 13.7179 0.945569 14.0618 0.974141 14.4057C1.04795 15.3086 1.21938 16.1899 1.53366 17.0402C1.8789 17.9717 2.45271 18.7408 3.23128 19.3594C4.05986 20.0186 5.00509 20.396 6.04081 20.5417H6.04557ZM38.9908 15.4758C38.9837 15.748 38.9813 16.0227 38.9718 16.295C38.967 16.4765 38.9599 16.6557 38.9527 16.8372C38.9313 17.3817 38.9122 17.9263 38.9456 18.4685C39.1027 17.3913 39.3218 16.3332 39.6027 15.2871C39.6813 14.9957 39.7408 14.6971 39.7884 14.3986C39.7956 14.3556 39.7956 14.3102 39.7956 14.2648C39.7956 14.1955 39.7003 14.2266 39.6979 14.1382C39.6979 14.0785 39.7337 14.0212 39.7718 13.9615C39.8122 13.897 39.8551 13.8301 39.8527 13.7537C39.8503 13.6677 39.8122 13.6319 39.7456 13.7035C39.586 13.8731 39.4194 14.0355 39.267 14.2123C39.2599 14.2218 39.2503 14.229 39.2408 14.2361L38.9765 14.5538C38.9979 14.6589 39.086 14.7473 39.1241 14.85L39.1313 14.8715C39.1646 14.9551 39.1979 15.0458 39.117 15.0984C38.9884 15.182 38.9884 15.2966 38.9884 15.4137C38.9884 15.4328 38.9884 15.4543 38.9884 15.4758H38.9908ZM3.42652 14.8118C3.59795 14.7497 3.79557 14.6876 3.82176 14.4798C3.85033 14.2744 3.69081 14.1526 3.5289 14.0594C3.30986 13.9352 3.06462 13.9304 2.82652 13.928C2.67414 13.928 2.60033 14.0403 2.60509 14.1955C2.617 14.475 2.96938 14.8213 3.25747 14.8261C3.27176 14.8261 3.28843 14.8261 3.30509 14.8261C3.34557 14.8261 3.38842 14.8261 3.42652 14.8094V14.8118ZM10.0979 14.8977C10.2384 14.8571 10.3313 14.7449 10.3408 14.5825C10.3503 14.4201 10.2694 14.3126 10.1337 14.2409C9.85747 14.0952 8.86938 14.0475 8.89557 14.5514C8.90747 14.7998 9.167 15.0339 9.40271 15.0196C9.63843 15.0076 9.87176 14.9646 10.0979 14.8977ZM39.5694 23.919C40.1932 24.6116 41.1313 24.7191 41.9527 24.3513C42.3622 24.1674 42.6908 23.864 43.067 23.5583C42.8194 23.4174 42.6241 23.2597 42.4289 23.1045C42.3122 23.0113 42.1956 22.9134 42.0551 22.8513C41.1622 22.4572 40.2575 22.3665 39.3241 22.7152C39.2075 22.7582 39.1789 22.8107 39.1789 22.9301C39.1765 23.3171 39.317 23.6395 39.5694 23.919ZM38.6884 22.8155C38.6027 22.9588 38.5646 23.1069 38.6694 23.2717C38.8527 23.1905 38.8813 23.04 38.886 22.8752C38.886 22.8203 38.8813 22.7725 38.817 22.7629C38.7646 22.7534 38.717 22.7677 38.6884 22.8179V22.8155Z" fill="#0A0A0A"/>
<path d="M34.6408 26.5702C34.6265 26.2573 34.6218 25.9396 34.6599 25.6315C34.6646 25.6004 34.667 25.5718 34.6718 25.5455L34.6719 25.5444C34.7003 25.34 34.7023 25.3256 34.4956 25.2159C34.0884 24.9985 33.7456 24.7095 33.436 24.368C32.5384 23.3696 32.4099 21.7646 33.1432 20.6372C33.3789 20.2742 33.6956 20.0425 34.1289 20.0114C34.3099 19.9995 34.3146 19.9231 34.3003 19.7798C34.2479 19.3068 34.2027 18.8315 34.1194 18.3634C34.0241 17.826 33.9527 17.2814 33.7694 16.7631C33.7218 16.6318 33.6599 16.5816 33.5265 16.6127C33.4479 16.6318 33.3694 16.6461 33.2884 16.658C32.1503 16.8348 31.2575 16.4096 30.6122 15.4901C30.0622 14.7043 30.0908 13.8349 30.4051 12.9607C30.4194 12.9225 30.4432 12.8843 30.4646 12.8485L30.4672 12.8443C30.5115 12.7717 30.5545 12.7014 30.5241 12.6311C30.4741 12.5188 30.3241 12.4711 30.2099 12.4066C29.217 11.862 28.1408 11.6256 27.0265 11.5276C26.9003 11.5157 26.8218 11.5682 26.736 11.6494C26.5337 11.8477 26.3265 12.0435 26.1146 12.2275C25.3718 12.8723 24.536 13.2378 23.5265 13.0634C22.6646 12.9129 22.0099 12.4687 21.6289 11.6662C21.5551 11.5133 21.4646 11.4918 21.3218 11.499C21.2408 11.5037 21.1599 11.5061 21.0789 11.5109C20.6956 11.5276 20.3146 11.5467 19.9313 11.5467C18.9194 11.5467 17.9194 11.4154 16.917 11.3127C15.698 11.1885 14.5813 10.78 13.5622 10.0993C13.5289 10.0778 13.4932 10.0563 13.4551 10.0946C13.4337 10.1734 13.448 10.2498 13.4622 10.3262L13.4638 10.3354C13.4704 10.375 13.4767 10.4129 13.4789 10.4528C13.536 11.6136 13.4122 12.7577 13.1503 13.8874C13.1194 14.0212 13.1265 14.1215 13.2265 14.217C13.3956 14.3795 13.5337 14.5681 13.6575 14.764C13.9956 15.3014 14.2051 15.8722 14.0765 16.5219C13.8456 17.6827 12.7694 18.5402 11.586 18.4852C11.3956 18.4757 11.2908 18.5354 11.1908 18.6811C10.9194 19.0847 10.6146 19.4669 10.2456 19.7845C10.2051 19.8204 10.1694 19.8562 10.1384 19.8896L10.2051 21.2272L10.2075 21.2458C10.2329 21.4449 10.258 21.6418 10.2741 21.841C10.417 23.5273 10.5575 25.2135 10.6527 26.9021C10.667 27.1434 10.6956 27.3846 10.717 27.6258C10.7265 27.7286 10.7622 27.8026 10.886 27.7835C11.1956 27.7309 11.5122 27.7548 11.8218 27.7118C11.8741 27.7047 11.9313 27.7071 11.9908 27.7118L11.9995 27.7122C12.1229 27.7169 12.2468 27.7216 12.3003 27.6306C12.3551 27.5399 12.3408 27.4061 12.3265 27.2724C12.3218 27.2222 12.3146 27.1744 12.3146 27.1267C12.3099 27.0335 12.3075 26.9404 12.3027 26.8448C12.2884 26.5439 12.2741 26.2429 12.2884 25.942C12.3051 25.5813 12.4051 25.2637 12.7122 25.0391C13.3075 24.6021 13.8408 24.7621 13.9956 25.4141C14.0099 25.4738 14.0265 25.5312 14.036 25.5909C14.1099 26.0519 14.1313 26.5152 14.1456 26.981C14.1479 27.0693 14.1479 27.1577 14.1456 27.2461C14.1456 27.4443 14.1456 27.645 14.1765 27.8647C14.736 27.7309 15.2765 27.6688 15.8241 27.6641C16.2837 27.6593 16.286 27.6593 16.2051 27.2079C16.2027 27.1888 16.1908 27.1697 16.1884 27.1482C16.1646 26.9499 16.1384 26.7541 16.1099 26.5558C16.0289 25.9802 15.9503 25.4046 15.9765 24.8194V24.6976C15.9741 24.6283 15.9718 24.5591 15.9837 24.4922C15.998 23.63 16.236 23.1332 16.3908 22.9039C16.5551 22.5504 16.8194 22.259 17.1622 22.0249C17.7765 21.6045 18.4146 21.5568 19.0694 21.9509C19.598 22.2685 19.986 22.7032 20.2313 23.2741C20.417 23.704 20.5479 24.1506 20.6741 24.5973C20.7075 24.7143 20.7456 24.7955 20.8884 24.8075C21.2503 24.8385 21.6099 24.8982 21.9741 24.9221C22.5884 24.9603 23.2051 24.9579 23.8194 25.0057C24.5503 25.063 25.2813 25.0654 26.0146 25.0702C26.3527 25.0702 26.6884 25.0726 27.0265 25.0798C27.5599 25.0893 28.0979 25.0845 28.6194 25.2278C29.086 25.3568 29.398 25.6458 29.4932 26.1355C29.5289 26.3146 29.5599 26.4937 29.5741 26.6752C29.6003 27.0192 29.6146 27.3631 29.6265 27.7071C29.6313 27.8456 29.6813 27.9053 29.8241 27.9101C30.198 27.9244 30.5718 27.9292 30.9432 27.965C31.2718 27.9961 31.2741 27.9817 31.2741 27.645V27.2389C31.2741 26.9499 31.2741 26.6585 31.2789 26.3695C31.2837 26.1259 31.3241 25.8847 31.4265 25.6601C31.5265 25.4404 31.7003 25.3449 31.936 25.3544C32.1884 25.3664 32.3408 25.5216 32.4432 25.7318C32.5503 25.9515 32.5979 26.1904 32.6265 26.434C32.6718 26.8377 32.6813 27.2437 32.686 27.6473C32.6884 27.8814 32.717 27.9053 32.9503 27.9077H33.1313C33.5765 27.9077 34.0218 27.9125 34.4646 27.8719C34.5718 27.8623 34.6241 27.8456 34.6313 27.719C34.6527 27.3345 34.6599 26.9523 34.6432 26.5678L34.6408 26.5702Z" fill="#FDFDFF"/>
<path fill-rule="evenodd" clip-rule="evenodd" d="M6.04557 20.5417C6.82176 20.6515 7.59795 20.6062 8.35509 20.396C9.23129 20.1524 9.917 19.6197 10.486 18.9247C10.8908 18.4279 11.2122 17.8833 11.4837 17.3029C11.9741 16.2568 12.3599 15.1724 12.648 14.0522C12.686 13.9065 12.667 13.8014 12.5646 13.7035C12.5146 13.6558 12.4694 13.5984 12.4146 13.553C11.6075 12.8819 10.7265 12.3349 9.73128 11.9886C7.75509 11.3007 5.73843 11.1455 3.6789 11.5372C2.85509 11.6924 2.0789 11.9504 1.37414 12.4138C1.28128 12.4759 1.18366 12.538 1.07414 12.5547C0.940807 12.5762 0.92176 12.655 0.924141 12.7672V13.1948V13.3739C0.919379 13.7179 0.945569 14.0618 0.974141 14.4057C1.04795 15.3086 1.21938 16.1899 1.53366 17.0402C1.8789 17.9717 2.45271 18.7408 3.23128 19.3594C4.05986 20.0186 5.00509 20.396 6.04081 20.5417H6.04557ZM3.82176 14.4798C3.79557 14.6876 3.59795 14.7497 3.42652 14.8118V14.8094C3.38842 14.8261 3.34557 14.8261 3.30509 14.8261H3.25747C2.96938 14.8213 2.617 14.475 2.60509 14.1955C2.60033 14.0403 2.67414 13.928 2.82652 13.928C3.06462 13.9304 3.30986 13.9352 3.5289 14.0594C3.69081 14.1526 3.85033 14.2744 3.82176 14.4798ZM10.3408 14.5825C10.3313 14.7449 10.2384 14.8571 10.0979 14.8977C9.87176 14.9646 9.63843 15.0076 9.40271 15.0196C9.167 15.0339 8.90747 14.7998 8.89557 14.5514C8.86938 14.0475 9.85747 14.0952 10.1337 14.2409C10.2694 14.3126 10.3503 14.4201 10.3408 14.5825Z" fill="#FDFDFF"/>
<path fill-rule="evenodd" clip-rule="evenodd" d="M1.21938 9.77212C1.13128 10.2283 1.05033 10.6893 1.01462 11.1526C1.00509 11.2601 0.995569 11.3676 0.983665 11.4751C0.952712 11.7713 0.921759 12.0674 0.945568 12.366C1.05033 12.3946 1.10985 12.354 1.167 12.3182C1.1789 12.311 1.18843 12.3039 1.20033 12.2967C1.46224 12.1439 1.70271 11.9599 1.9789 11.8286C3.11462 11.2864 4.33366 11.1264 5.56938 11.0643C6.65509 11.0093 7.72414 11.1503 8.78128 11.4082C9.98128 11.6996 11.0956 12.1821 12.086 12.9344C12.3099 13.104 12.5289 13.276 12.7456 13.4456C12.7979 13.4193 12.8099 13.3787 12.8146 13.3381C12.9456 12.569 13.0622 11.7975 13.0479 11.0189C13.0241 9.64075 12.7741 8.30321 12.2051 7.03733C11.9575 6.48799 11.617 6.00074 11.2075 5.55888C11.1218 5.46811 11.0503 5.44901 10.9503 5.53021C10.7599 5.68546 10.5432 5.79533 10.3051 5.85504C9.55271 6.04134 8.83842 5.91714 8.17414 5.53499C7.85033 5.34869 7.62414 5.06208 7.4789 4.71575V4.70858C7.36938 4.45302 7.367 4.45302 7.09795 4.46496C7.04795 4.46735 6.99795 4.46974 6.94557 4.47451C6.86461 4.48407 6.78128 4.49123 6.70033 4.50079C6.23128 4.55333 5.75985 4.60349 5.28843 4.60349C4.84795 4.60349 4.46462 4.75635 4.10509 4.9952C3.89319 5.13612 3.70033 5.29614 3.50509 5.45856C3.34319 5.59231 3.34319 5.59948 3.48604 5.75712C3.91223 6.22526 4.09319 6.77699 4.02414 7.40515C3.97414 7.84702 3.79795 8.25067 3.54081 8.60655C3.0289 9.31353 2.38605 9.76973 1.45509 9.58343C1.29557 9.55238 1.24795 9.62642 1.21938 9.77212ZM4.74795 9.17978C4.75271 9.00542 4.94557 8.77852 5.09319 8.77135L5.09557 8.76896C5.26938 8.7618 5.5289 9.00064 5.5289 9.17261C5.5289 9.33503 5.35271 9.51894 5.20271 9.51416C4.92652 9.50461 4.74319 9.36847 4.74795 9.17978ZM9.10747 9.62403C9.12414 9.47356 9.18604 9.33981 9.35747 9.26815C9.51938 9.19889 9.65271 9.23949 9.76938 9.35175C10.1551 9.72196 9.73604 9.99902 9.40985 9.97275C9.23366 9.95842 9.08366 9.85332 9.10747 9.62403Z" fill="#FDFDFF"/>
<path d="M3.95748 1.38624C3.49557 1.44834 3.16224 1.71107 2.92176 2.09561C2.43843 2.86947 2.567 4.14013 3.65033 4.77068C3.73843 4.82084 3.79557 4.7874 3.85509 4.74919C3.867 4.74202 3.88128 4.73247 3.89319 4.7253C3.98843 4.67515 3.96223 4.60827 3.93604 4.53423L3.9289 4.51751C3.84795 4.2906 3.75271 4.0637 3.69081 3.83202C3.50747 3.13459 3.50509 2.45149 3.90271 1.81377C3.98604 1.68002 4.08128 1.55104 4.17652 1.41012C4.12652 1.3934 4.10033 1.37907 4.07414 1.37907C4.03366 1.37907 3.99319 1.38146 3.95509 1.38624H3.95748Z" fill="#0A0A0A"/>
<path d="M4.30509 1.88304C4.35747 1.77556 4.40986 1.6633 4.38843 1.50805C4.14557 1.73017 4.00747 1.98335 3.90509 2.25802C3.617 3.0295 3.84557 3.74842 4.1289 4.46257C4.17414 4.57483 4.25747 4.55811 4.31938 4.49362C4.41462 4.39808 4.52652 4.33598 4.66938 4.27627C4.45985 3.98966 4.22414 3.74842 4.13605 3.41165C4.00509 2.91246 4.06462 2.43238 4.267 1.96186C4.2789 1.93558 4.29081 1.9117 4.30271 1.88542L4.30509 1.88304Z" fill="#0A0A0A"/>
<path d="M12.6622 3.64572C12.4694 4.3336 12.1265 4.89011 11.3884 5.0979C11.3765 5.10268 11.3694 5.12895 11.3479 5.16478C11.6622 5.44423 11.9099 5.78339 12.1527 6.12972C12.2099 6.04851 12.2741 5.93386 12.336 5.81683L12.4646 5.51588C12.6051 5.17911 12.7479 4.84473 12.8408 4.49123C12.9432 4.09475 12.9789 3.69349 12.9408 3.28506C12.936 3.23252 12.9218 3.18475 12.8599 3.17758C12.8003 3.17042 12.7646 3.20624 12.7527 3.26118C12.7218 3.38777 12.7003 3.51913 12.6646 3.64572H12.6622Z" fill="#0A0A0A"/>
<path d="M13.4194 3.2564L13.4171 3.25248C13.344 3.12467 13.2675 2.99089 13.0813 2.95307C13.1479 3.35433 13.1956 3.74126 13.1337 4.13774C13.0384 4.75635 12.8241 5.33197 12.5384 5.88609C12.4646 6.07478 12.3551 6.22526 12.2813 6.31363C12.3241 6.37573 12.3694 6.43783 12.4122 6.49993C12.5408 6.402 12.6575 6.32079 12.7646 6.22764C13.2051 5.83832 13.5622 5.39646 13.6503 4.7874C13.7265 4.25239 13.6932 3.73648 13.4194 3.2564Z" fill="#0A0A0A"/>
</g>
<defs>
<clipPath id="clip0_2559_380">
<rect width="44" height="30" fill="white" transform="translate(0.5)"/>
</clipPath>
</defs>
</svg>
