<svg width="24" height="24" viewBox="0 0 24 24" fill="none" xmlns="http://www.w3.org/2000/svg">
<g id="phone">
<path id="Vector" d="M20.7741 15.0284L16.3453 13.0437C16.1447 12.9578 15.9257 12.9232 15.7083 12.9432C15.4909 12.9631 15.282 13.037 15.1003 13.1581C15.0819 13.1699 15.0643 13.1831 15.0478 13.1975L12.7331 15.1662C12.7091 15.1793 12.6824 15.1867 12.655 15.1876C12.6277 15.1886 12.6005 15.1832 12.5756 15.1719C11.0878 14.4537 9.54657 12.9219 8.82564 11.4547C8.81363 11.4302 8.80739 11.4032 8.80739 11.3759C8.80739 11.3486 8.81363 11.3217 8.82564 11.2972L10.8009 8.95342C10.8151 8.93608 10.8283 8.91792 10.8403 8.89905C10.9598 8.71671 11.0319 8.5075 11.0502 8.2903C11.0685 8.0731 11.0325 7.85476 10.9453 7.65499L8.9747 3.23374C8.86279 2.97274 8.66925 2.75509 8.42313 2.61343C8.17701 2.47178 7.89159 2.41377 7.6097 2.44811C6.3846 2.60917 5.26006 3.2108 4.44622 4.14058C3.63238 5.07036 3.18494 6.26466 3.18751 7.5003C3.18751 14.8409 9.15939 20.8128 16.5 20.8128C17.7356 20.8152 18.9298 20.3677 19.8595 19.5539C20.7893 18.7401 21.3909 17.6156 21.5522 16.3906C21.5865 16.11 21.5292 15.8259 21.389 15.5805C21.2488 15.335 21.0332 15.1414 20.7741 15.0284ZM16.5 19.6878C9.78001 19.6878 4.31251 14.2203 4.31251 7.5003C4.30938 6.53836 4.65658 5.60818 5.28924 4.88356C5.9219 4.15894 6.79675 3.68944 7.75032 3.5628H7.77189C7.80967 3.5635 7.84635 3.57561 7.87713 3.59752C7.90791 3.61944 7.93136 3.65014 7.94439 3.68561L9.92251 8.10217C9.93379 8.12673 9.93963 8.15343 9.93963 8.18045C9.93963 8.20748 9.93379 8.23418 9.92251 8.25873L7.94345 10.6081C7.92868 10.6249 7.91521 10.6427 7.90314 10.6615C7.7793 10.8506 7.70637 11.0684 7.69143 11.2939C7.67648 11.5194 7.72002 11.745 7.81782 11.9487C8.64939 13.6512 10.365 15.3537 12.0863 16.1853C12.2912 16.2826 12.5178 16.3251 12.7441 16.3086C12.9703 16.2922 13.1885 16.2174 13.3772 16.0915C13.395 16.0794 13.4128 16.0662 13.4297 16.0522L15.7434 14.0834C15.7663 14.0711 15.7915 14.0639 15.8174 14.0623C15.8433 14.0607 15.8692 14.0647 15.8934 14.074L20.3231 16.0587C20.3593 16.0741 20.3897 16.1005 20.4101 16.1342C20.4305 16.1678 20.4397 16.207 20.4366 16.2462C20.3106 17.2002 19.8415 18.0757 19.1171 18.7091C18.3926 19.3425 17.4623 19.6904 16.5 19.6878Z" fill="#0A0A0A"/>
</g>
</svg>
