<svg width="20" height="16" viewBox="0 0 20 16" fill="none" xmlns="http://www.w3.org/2000/svg">
<path d="M1 1V0.5C0.867392 0.5 0.740215 0.552679 0.646447 0.646447C0.552679 0.740215 0.5 0.867392 0.5 1H1ZM19 1H19.5C19.5 0.867392 19.4473 0.740215 19.3536 0.646447C19.2598 0.552679 19.1326 0.5 19 0.5V1ZM1 1.5H19V0.5H1V1.5ZM18.5 1V13H19.5V1H18.5ZM17 14.5H3V15.5H17V14.5ZM1.5 13V1H0.5V13H1.5ZM3 14.5C2.60218 14.5 2.22064 14.342 1.93934 14.0607C1.65804 13.7794 1.5 13.3978 1.5 13H0.5C0.5 13.663 0.763392 14.2989 1.23223 14.7678C1.70107 15.2366 2.33696 15.5 3 15.5V14.5ZM18.5 13C18.5 13.3978 18.342 13.7794 18.0607 14.0607C17.7794 14.342 17.3978 14.5 17 14.5V15.5C17.663 15.5 18.2989 15.2366 18.7678 14.7678C19.2366 14.2989 19.5 13.663 19.5 13H18.5Z" fill="#0A0A0A"/>
<path d="M1 1L10 10L19 1" stroke="#0A0A0A" stroke-linecap="round" stroke-linejoin="round"/>
</svg>
