<svg width="24" height="24" viewBox="0 0 24 24" fill="none" xmlns="http://www.w3.org/2000/svg">
<path d="M22.125 4.5H18V1.875H16.5V4.5H7.5V1.875H6V4.5H1.875C1.57674 4.50035 1.29079 4.61899 1.07989 4.82989C0.868985 5.04079 0.750347 5.32674 0.75 5.625V21.375C0.750347 21.6733 0.868985 21.9592 1.07989 22.1701C1.29079 22.381 1.57674 22.4997 1.875 22.5H22.125C22.4233 22.4997 22.7092 22.381 22.9201 22.1701C23.131 21.9592 23.2497 21.6733 23.25 21.375V5.625C23.2497 5.32674 23.131 5.04079 22.9201 4.82989C22.7092 4.61899 22.4233 4.50035 22.125 4.5ZM21.75 21H2.25V6H6V7.875H7.5V6H16.5V7.875H18V6H21.75V21Z" fill="#B1A016"/>
<path d="M5.25 10.5H6.75V12H5.25V10.5ZM9.375 10.5H10.875V12H9.375V10.5ZM13.125 10.5H14.625V12H13.125V10.5ZM17.25 10.5H18.75V12H17.25V10.5ZM5.25 13.875H6.75V15.375H5.25V13.875ZM9.375 13.875H10.875V15.375H9.375V13.875ZM13.125 13.875H14.625V15.375H13.125V13.875ZM17.25 13.875H18.75V15.375H17.25V13.875ZM5.25 17.25H6.75V18.75H5.25V17.25ZM9.375 17.25H10.875V18.75H9.375V17.25ZM13.125 17.25H14.625V18.75H13.125V17.25ZM17.25 17.25H18.75V18.75H17.25V17.25Z" fill="#B1A016"/>
</svg>
