<svg width="44" height="30" viewBox="0 0 44 30" fill="none" xmlns="http://www.w3.org/2000/svg">
<path fill-rule="evenodd" clip-rule="evenodd" d="M43.5979 10.7848V10.8374C43.5908 11.4846 43.2956 12.0029 42.8479 12.4615C42.3599 12.9607 41.7432 13.233 41.1027 13.4647C40.7218 13.6032 40.3241 13.6868 39.936 13.7895C39.7956 13.8277 39.6908 13.8707 39.7099 14.0475C39.7194 14.1406 39.6908 14.2314 39.5908 14.272C39.5075 14.3054 39.5122 14.3818 39.5003 14.4511C39.3218 15.4399 39.0122 16.3953 38.8337 17.3841C38.6956 18.1437 38.6194 18.9104 38.5622 19.6794C38.5575 19.7415 38.5527 19.806 38.5479 19.8681C38.5122 20.3196 38.4789 20.7734 38.5003 21.2296C38.5146 21.5544 38.5337 21.8768 38.5646 22.1993C38.586 22.419 38.6503 22.462 38.8313 22.3641C39.3765 22.0631 39.9599 22.0942 40.5456 22.1515C41.2503 22.2232 41.8646 22.5074 42.3932 22.9803C42.536 23.1093 42.6979 23.2072 42.8765 23.2884C43.1051 23.3935 43.117 23.5296 42.9241 23.6968C42.5718 24.0002 42.2551 24.3489 41.8432 24.5734C40.967 25.0487 40.0908 25.0965 39.236 24.5232C38.8575 24.2701 38.5884 23.919 38.4313 23.4604C38.1027 23.6228 37.9599 23.5583 37.8718 23.243C37.8384 23.1188 37.8337 23.0018 37.8908 22.8871C37.9503 22.7653 37.9241 22.7128 37.7813 22.6865C36.7646 22.4954 36.036 21.9007 35.5003 21.0337C35.036 20.2789 34.7194 19.4573 34.3979 18.6381C34.3099 18.4136 34.2241 18.1867 34.0789 17.9478C34.0622 18.1914 34.0979 18.3945 34.1337 18.5975C34.2289 19.1158 34.2479 19.6436 34.3003 20.1667C34.3646 20.8116 34.4218 21.4565 34.4765 22.1013C34.567 23.1905 34.6551 24.282 34.6646 25.3759C34.6646 25.3974 34.6646 25.4165 34.6646 25.438C34.7003 26.274 34.7003 27.547 34.4646 28.4857C34.4503 28.5693 34.4384 28.6529 34.4218 28.7365C34.3765 28.9562 34.2956 29.1616 34.1884 29.3599C34.0122 29.6871 33.7503 29.8471 33.3789 29.8423C32.5194 29.8328 31.9194 29.2524 31.8099 28.34C31.7337 27.7142 31.7622 27.0837 31.6932 26.4603C31.6741 26.2788 31.6551 26.0972 31.5765 25.93C31.5408 25.8584 31.5003 25.7796 31.4003 25.7867C31.2979 25.7939 31.2789 25.8775 31.2599 25.9587C31.1979 26.2095 31.1956 26.4627 31.1956 26.7182C31.1956 26.7564 31.1956 26.7947 31.1956 26.8329C31.1956 26.9547 31.1956 27.0765 31.1956 27.1983C31.1956 27.6832 31.1979 28.168 31.0956 28.6481C31.017 29.0088 30.9122 29.3527 30.6432 29.625C30.3527 29.9188 30.0146 30.0119 29.6194 29.8877C29.5313 29.8614 29.4456 29.8328 29.3599 29.7993C29.067 29.6895 28.8837 29.4936 28.8051 29.1736C28.7289 28.8631 28.7241 28.5502 28.717 28.2373C28.717 28.1561 28.7146 28.0773 28.7122 27.9961C28.6932 27.4515 28.7027 26.9045 28.6075 26.3624C28.5313 25.9396 28.3765 25.6864 27.8027 25.6004C27.2051 25.5097 26.6051 25.5168 26.0051 25.5216C25.8694 25.5216 25.7313 25.524 25.5956 25.524C24.9099 25.524 24.2265 25.5097 23.5432 25.4619C23.0194 25.4261 22.4956 25.4165 21.9718 25.395C21.0813 25.3616 20.2051 25.2231 19.3265 25.0941C18.2503 24.9364 17.1789 24.7454 16.1051 24.571C15.9099 24.54 15.9027 24.5519 15.898 24.7454C15.8813 25.4858 15.9884 26.2143 16.0979 26.9427C16.1075 27.0048 16.117 27.0669 16.1265 27.1314C16.2003 27.6378 16.217 28.1441 16.1027 28.6433C15.9956 29.1091 15.767 29.5103 15.2813 29.6513C14.7551 29.8041 14.2408 29.7181 13.7765 29.4148C13.4956 29.2309 13.3789 28.9347 13.3122 28.6218C13.2694 28.414 13.2408 28.2039 13.236 27.9889C13.2265 27.4825 13.2122 26.9762 13.1908 26.4698C13.1789 26.2167 13.1503 25.9635 13.1146 25.7127C13.098 25.5933 13.0456 25.481 13.0051 25.3664C12.9646 25.2493 12.8741 25.2087 12.7646 25.2469C12.5146 25.3329 12.3099 25.4715 12.2694 25.7628V25.7724C12.2479 25.9205 12.2265 26.0662 12.2337 26.2167C12.2575 26.8042 12.2837 27.3894 12.3027 27.977V27.9865C12.3146 28.3878 12.3265 28.7914 12.1551 29.1736C11.998 29.5223 11.686 29.711 11.3051 29.6704C10.6003 29.5939 10.0908 29.1473 9.93604 28.4857C9.81462 27.9602 9.77414 27.4252 9.73367 26.8902C9.66938 26.0112 9.61223 25.1347 9.55271 24.2557C9.48604 23.2956 9.46938 22.333 9.3789 21.3729C9.36938 21.2821 9.35985 21.1913 9.34795 21.1006C9.31462 20.8211 9.28129 20.5441 9.30986 20.2694C9.23367 20.2288 9.19081 20.2575 9.14795 20.2837C9.13843 20.2885 9.13128 20.2957 9.12176 20.3004C7.50747 21.2104 5.83604 21.2224 4.12414 20.6253C3.2789 20.3315 2.53843 19.8562 1.91938 19.2209C1.20271 18.4876 0.709855 17.611 0.431283 16.6127C0.100331 15.4304 -0.0068113 14.229 0.000331554 13.0061C0.00509346 11.9886 0.0693788 10.9807 0.262236 9.9823C0.500331 8.75941 0.931284 7.60817 1.60747 6.55247C1.92176 6.06284 2.267 5.60664 2.72414 5.24121C2.77176 5.20299 2.81938 5.16 2.84795 5.10984C2.89557 5.02625 2.91938 4.93788 2.80509 4.88055C2.68605 4.82084 2.60271 4.71097 2.49557 4.63932C1.78128 4.17118 1.60271 2.6975 2.0789 1.93797C2.39795 1.43162 2.817 1.08768 3.42652 1.00886C3.65509 0.980199 3.87176 1.02558 4.08366 1.08051C4.267 1.13067 4.35271 1.27637 4.34319 1.477C4.33367 1.68241 4.26223 1.87348 4.17652 2.05739C3.97652 2.48493 3.89557 2.92202 4.06938 3.38299C4.23843 3.82963 4.69795 4.21656 5.20747 4.17835C5.88128 4.12819 6.55747 4.08281 7.23128 4.04937C7.70509 4.02548 8.18128 4.03981 8.65509 4.09475C9.21938 4.15924 9.72176 4.38375 10.2051 4.67037C10.6003 4.90444 10.9908 4.8495 11.317 4.52228C11.5575 4.27866 11.7265 3.99921 11.7956 3.66005C11.8503 3.4021 11.9051 3.14414 11.9622 2.88858C12.0337 2.56375 12.1979 2.45149 12.5289 2.49926C12.9146 2.55658 13.1622 2.80498 13.3265 3.1322C13.8456 4.16163 13.7194 5.4705 12.7027 6.36617C12.5599 6.49276 12.4289 6.64085 12.2456 6.71489C12.0979 6.7746 12.0837 6.8582 12.148 6.99673C12.3813 7.50308 12.5527 8.03332 12.6765 8.57789C12.7337 8.8239 12.7908 9.06991 12.8313 9.3207C12.8622 9.51178 12.948 9.6503 13.1075 9.76256C13.4337 9.99185 13.7908 10.1567 14.1575 10.2976C14.7408 10.5221 15.3265 10.7514 15.9527 10.8278C16.5027 10.8971 17.0575 10.9448 17.6099 10.9902C17.6884 10.9974 17.7694 11.0022 17.8479 11.0093C18.2813 11.0452 18.7146 11.081 19.1479 11.081C19.9956 11.0786 20.8432 11.038 21.6908 11.0093C22.7003 10.9759 23.7099 10.9807 24.7194 10.995C25.3551 11.0046 25.9908 11.0093 26.6218 11.0571C27.286 11.1097 27.9408 11.2291 28.5813 11.4249C29.1932 11.6112 29.7741 11.8668 30.3099 12.2131C30.8289 12.5475 31.2956 12.944 31.7099 13.4097C32.4813 14.2768 33.1646 15.1963 33.6218 16.2735C33.9027 16.9351 34.3384 17.5155 34.6075 18.1843C34.8789 18.8602 35.1646 19.529 35.4908 20.181C35.7956 20.7925 36.1599 21.3561 36.7099 21.7837C37.1313 22.1085 37.6099 22.2733 38.1241 22.3665C38.2884 22.3951 38.2884 22.29 38.2718 22.1826C38.2289 21.8816 38.1979 21.5783 38.1694 21.2773C38.0837 20.4079 38.0575 19.5385 38.0837 18.6644C38.1146 17.58 38.1908 16.498 38.2575 15.416V15.3922C38.267 15.2608 38.2765 15.1366 38.1337 15.0411C38.036 14.9766 38.0789 14.8715 38.1194 14.7783L38.1241 14.764C38.2813 14.3771 38.2813 14.3747 37.9218 14.1573C36.9027 13.5435 35.9575 12.8413 35.1599 11.948C34.586 11.3055 34.1265 10.5914 33.8765 9.76495C33.7075 9.20844 33.6408 8.63043 33.817 8.0572C33.9932 7.48875 34.4194 7.28573 34.9789 7.48636C35.4694 7.66311 35.8408 8.00705 36.1694 8.39636C36.4765 8.7618 36.7313 9.16306 36.9718 9.57626C37.0122 9.64553 37.0598 9.70763 37.117 9.79123C37.3027 9.57865 37.3979 9.33264 37.5432 9.12007C38.1146 8.27694 38.9003 7.73237 39.8741 7.48397C40.6408 7.28812 41.3622 7.42665 41.9646 7.97838C42.3337 8.31516 42.5241 8.7403 42.5075 9.24904C42.5075 9.28009 42.5075 9.31114 42.5075 9.33981C42.5075 9.38996 42.5075 9.44251 42.5027 9.49267C42.4932 9.59537 42.536 9.63836 42.6337 9.65269C42.7646 9.67419 42.886 9.71957 43.0051 9.78167C43.3837 9.98469 43.5884 10.2976 43.6051 10.7323C43.6051 10.7514 43.6051 10.7681 43.6051 10.7872L43.5979 10.7848ZM3.45748 1.38624C2.99557 1.44834 2.66224 1.71107 2.42176 2.09561C1.93843 2.86947 2.067 4.14013 3.15033 4.77068C3.23843 4.82084 3.29557 4.7874 3.35509 4.74919C3.367 4.74202 3.38128 4.73247 3.39319 4.7253C3.48843 4.67515 3.46223 4.60827 3.43604 4.53423L3.4289 4.51751C3.34795 4.2906 3.25271 4.0637 3.19081 3.83202C3.00747 3.13459 3.00509 2.45149 3.40271 1.81377C3.48604 1.68002 3.58128 1.55104 3.67652 1.41012C3.62652 1.3934 3.60033 1.37907 3.57414 1.37907C3.53366 1.37907 3.49319 1.38146 3.45509 1.38624H3.45748ZM3.80509 1.88304C3.85747 1.77556 3.90986 1.6633 3.88843 1.50805C3.64557 1.73017 3.50747 1.98335 3.40509 2.25802C3.117 3.0295 3.34557 3.74842 3.6289 4.46257C3.67414 4.57483 3.75747 4.55811 3.81938 4.49362C3.91462 4.39808 4.02652 4.33598 4.16938 4.27627C3.95985 3.98966 3.72414 3.74842 3.63605 3.41165C3.50509 2.91246 3.56462 2.43238 3.767 1.96186C3.7789 1.93558 3.79081 1.9117 3.80271 1.88542L3.80509 1.88304ZM12.9194 3.2564L12.9171 3.25248C12.844 3.12467 12.7675 2.99089 12.5813 2.95307C12.6479 3.35433 12.6956 3.74126 12.6337 4.13774C12.5384 4.75635 12.3241 5.33197 12.0384 5.88609C11.9646 6.07478 11.8551 6.22526 11.7813 6.31363C11.8241 6.37573 11.8694 6.43783 11.9122 6.49993C12.0408 6.402 12.1575 6.32079 12.2646 6.22764C12.7051 5.83832 13.0622 5.39646 13.1503 4.7874C13.2265 4.25239 13.1932 3.73648 12.9194 3.2564ZM12.1622 3.64572C11.9694 4.3336 11.6265 4.89011 10.8884 5.0979C10.8765 5.10268 10.8694 5.12895 10.8479 5.16478C11.1622 5.44423 11.4099 5.78339 11.6527 6.12972C11.7099 6.04851 11.7741 5.93386 11.836 5.81683C11.8789 5.71651 11.9218 5.6162 11.9646 5.51588C12.1051 5.17911 12.2479 4.84473 12.3408 4.49123C12.4432 4.09475 12.4789 3.69349 12.4408 3.28506C12.436 3.23252 12.4218 3.18475 12.3599 3.17758C12.3003 3.17042 12.2646 3.20624 12.2527 3.26118C12.2218 3.38777 12.2003 3.51913 12.1646 3.64572H12.1622ZM0.719378 9.77212C0.631283 10.2283 0.550331 10.6893 0.514616 11.1526C0.505093 11.2601 0.495569 11.3676 0.483665 11.4751C0.452712 11.7713 0.421759 12.0674 0.445568 12.366C0.55033 12.3946 0.609854 12.354 0.666997 12.3182C0.678902 12.311 0.688427 12.3039 0.700332 12.2967C0.962237 12.1439 1.20271 11.9599 1.4789 11.8286C2.61462 11.2864 3.83366 11.1264 5.06938 11.0643C6.15509 11.0093 7.22414 11.1503 8.28128 11.4082C9.48128 11.6996 10.5956 12.1821 11.586 12.9344C11.8099 13.104 12.0289 13.276 12.2456 13.4456C12.2979 13.4193 12.3099 13.3787 12.3146 13.3381C12.4456 12.569 12.5622 11.7975 12.5479 11.0189C12.5241 9.64075 12.2741 8.30321 11.7051 7.03733C11.4575 6.48799 11.117 6.00074 10.7075 5.55888C10.6218 5.46811 10.5503 5.44901 10.4503 5.53021C10.2599 5.68546 10.0432 5.79533 9.80509 5.85504C9.05271 6.04134 8.33842 5.91714 7.67414 5.53499C7.35033 5.34869 7.12414 5.06208 6.9789 4.71575V4.70858C6.86938 4.45302 6.867 4.45302 6.59795 4.46496C6.54795 4.46735 6.49795 4.46974 6.44557 4.47451C6.36461 4.48407 6.28128 4.49123 6.20033 4.50079C5.73128 4.55333 5.25985 4.60349 4.78843 4.60349C4.34795 4.60349 3.96462 4.75635 3.60509 4.9952C3.39319 5.13612 3.20033 5.29614 3.00509 5.45856C2.84319 5.59231 2.84319 5.59948 2.98604 5.75712C3.41223 6.22526 3.59319 6.77699 3.52414 7.40515C3.47414 7.84702 3.29795 8.25067 3.04081 8.60655C2.5289 9.31353 1.88605 9.76973 0.955094 9.58343C0.79557 9.55238 0.74795 9.62642 0.719378 9.77212ZM35.0932 11.401C35.6932 12.1773 36.4337 12.8031 37.2218 13.3739C37.6146 13.6581 38.0075 13.94 38.4456 14.1502C38.6265 13.9973 38.7146 13.7776 38.8837 13.6343C39.1718 13.3954 39.1694 13.1518 39.0265 12.8174C38.7265 12.1128 38.5789 11.3652 38.6241 10.5937C38.6432 10.2713 38.6646 9.94647 38.8432 9.65747C39.0598 9.30637 39.4337 9.24666 39.7432 9.51894C39.8979 9.65508 39.9956 9.83422 40.0765 10.0205C40.1622 10.214 40.2384 10.4122 40.3194 10.6081C40.3527 10.5961 40.3765 10.5937 40.3884 10.5794C40.8265 10.0922 41.3432 9.73629 42.0051 9.64075C42.0932 9.62881 42.1194 9.57626 42.1289 9.49744C42.1789 9.08902 42.1218 8.70925 41.8479 8.38203C41.4122 7.85896 40.8408 7.68699 40.1908 7.77059C39.6813 7.83508 39.2194 8.04526 38.7932 8.32471C38.2122 8.70686 37.7979 9.23949 37.4765 9.84616C37.4337 9.92737 37.3932 10.011 37.336 10.0778C37.2146 10.2235 37.048 10.2307 36.9146 10.0922C36.8384 10.0134 36.7813 9.91542 36.7194 9.82227C36.4479 9.40668 36.2051 8.97437 35.8813 8.59699C35.6027 8.26978 35.2908 7.98316 34.8979 7.80403C34.5218 7.63206 34.2146 7.77775 34.0956 8.17185C34.0813 8.21962 34.0694 8.26978 34.0622 8.31993C33.9908 8.72597 34.0289 9.12723 34.1241 9.52372C34.2908 10.2283 34.6575 10.8326 35.0932 11.3963V11.401ZM4.59319 8.77135C4.44557 8.77852 4.25271 9.00542 4.24795 9.17978C4.24319 9.36847 4.42652 9.50461 4.70271 9.51416C4.85271 9.51894 5.0289 9.33503 5.0289 9.17261C5.0289 9.00064 4.76938 8.7618 4.59557 8.76896L4.59319 8.77135ZM8.85747 9.26815C8.68604 9.33981 8.62414 9.47356 8.60747 9.62403C8.58366 9.85332 8.73366 9.95842 8.90985 9.97275C9.23604 9.99902 9.65509 9.72196 9.26938 9.35175C9.15271 9.23949 9.01938 9.19889 8.85747 9.26815ZM42.9765 10.1208C42.8265 10.0086 42.6527 9.9608 42.4694 9.93931C41.9741 9.88437 41.5289 10.0253 41.1241 10.3024C40.9241 10.4385 40.7408 10.5937 40.5789 10.7824C40.3503 11.0499 40.2194 11.0261 40.0718 10.7156C39.9718 10.5054 39.8741 10.2928 39.7765 10.0826C39.717 9.95125 39.6384 9.83422 39.5313 9.73868C39.3956 9.61687 39.2575 9.62403 39.1289 9.75062C39.0456 9.83183 39.0122 9.93453 38.9765 10.0444C38.8932 10.3119 38.9027 10.5842 38.8908 10.9162C38.8979 11.0308 38.8956 11.2028 38.917 11.3748C39.0146 12.1247 39.2646 12.8293 39.5527 13.522C39.5884 13.6104 39.6432 13.6175 39.7218 13.5937C40.2194 13.4312 40.7384 13.3381 41.2265 13.1375C41.7932 12.9034 42.3218 12.6144 42.7337 12.1462C43.0932 11.7378 43.3218 11.2768 43.3003 10.7156C43.2908 10.4624 43.1741 10.2713 42.9789 10.1232L42.9765 10.1208ZM34.1408 26.5702C34.1265 26.2573 34.1218 25.9396 34.1599 25.6315C34.1646 25.6004 34.167 25.5718 34.1718 25.5455L34.1719 25.5444C34.2003 25.34 34.2023 25.3256 33.9956 25.2159C33.5884 24.9985 33.2456 24.7095 32.936 24.368C32.0384 23.3696 31.9099 21.7646 32.6432 20.6372C32.8789 20.2742 33.1956 20.0425 33.6289 20.0114C33.8099 19.9995 33.8146 19.9231 33.8003 19.7798C33.7479 19.3068 33.7027 18.8315 33.6194 18.3634C33.5241 17.826 33.4527 17.2814 33.2694 16.7631C33.2218 16.6318 33.1599 16.5816 33.0265 16.6127C32.9479 16.6318 32.8694 16.6461 32.7884 16.658C31.6503 16.8348 30.7575 16.4096 30.1122 15.4901C29.5622 14.7043 29.5908 13.8349 29.9051 12.9607C29.9194 12.9225 29.9432 12.8843 29.9646 12.8485L29.9672 12.8443C30.0115 12.7717 30.0545 12.7014 30.0241 12.6311C29.9741 12.5188 29.8241 12.4711 29.7099 12.4066C28.717 11.862 27.6408 11.6256 26.5265 11.5276C26.4003 11.5157 26.3218 11.5682 26.236 11.6494C26.0337 11.8477 25.8265 12.0435 25.6146 12.2275C24.8718 12.8723 24.036 13.2378 23.0265 13.0634C22.1646 12.9129 21.5099 12.4687 21.1289 11.6662C21.0551 11.5133 20.9646 11.4918 20.8218 11.499C20.7408 11.5037 20.6599 11.5061 20.5789 11.5109C20.1956 11.5276 19.8146 11.5467 19.4313 11.5467C18.4194 11.5467 17.4194 11.4154 16.417 11.3127C15.198 11.1885 14.0813 10.78 13.0622 10.0993C13.0289 10.0778 12.9932 10.0563 12.9551 10.0946C12.9337 10.1734 12.948 10.2498 12.9622 10.3262C12.9627 10.3293 12.9633 10.3324 12.9638 10.3354C12.9704 10.375 12.9767 10.4129 12.9789 10.4528C13.036 11.6136 12.9122 12.7577 12.6503 13.8874C12.6194 14.0212 12.6265 14.1215 12.7265 14.217C12.8956 14.3795 13.0337 14.5681 13.1575 14.764C13.4956 15.3014 13.7051 15.8722 13.5765 16.5219C13.3456 17.6827 12.2694 18.5402 11.086 18.4852C10.8956 18.4757 10.7908 18.5354 10.6908 18.6811C10.4194 19.0847 10.1146 19.4669 9.74557 19.7845C9.70509 19.8204 9.66938 19.8562 9.63842 19.8896L9.70509 21.2272C9.70588 21.2334 9.70668 21.2396 9.70747 21.2458C9.73286 21.4449 9.75798 21.6418 9.77414 21.841C9.917 23.5273 10.0575 25.2135 10.1527 26.9021C10.167 27.1434 10.1956 27.3846 10.217 27.6258C10.2265 27.7286 10.2622 27.8026 10.386 27.7835C10.6956 27.7309 11.0122 27.7548 11.3218 27.7118C11.3741 27.7047 11.4313 27.7071 11.4908 27.7118C11.4937 27.7119 11.4966 27.7121 11.4995 27.7122C11.6229 27.7169 11.7468 27.7216 11.8003 27.6306C11.8551 27.5399 11.8408 27.4061 11.8265 27.2724C11.8218 27.2222 11.8146 27.1744 11.8146 27.1267C11.8099 27.0335 11.8075 26.9404 11.8027 26.8448C11.7884 26.5439 11.7741 26.2429 11.7884 25.942C11.8051 25.5813 11.9051 25.2637 12.2122 25.0391C12.8075 24.6021 13.3408 24.7621 13.4956 25.4141C13.5099 25.4738 13.5265 25.5312 13.536 25.5909C13.6099 26.0519 13.6313 26.5152 13.6456 26.981C13.6479 27.0693 13.6479 27.1577 13.6456 27.2461C13.6456 27.4443 13.6456 27.645 13.6765 27.8647C14.236 27.7309 14.7765 27.6688 15.3241 27.6641C15.7837 27.6593 15.786 27.6593 15.7051 27.2079C15.7027 27.1888 15.6908 27.1697 15.6884 27.1482C15.6646 26.9499 15.6384 26.7541 15.6099 26.5558C15.5289 25.9802 15.4503 25.4046 15.4765 24.8194C15.4765 24.7788 15.4765 24.7382 15.4765 24.6976C15.4741 24.6283 15.4718 24.5591 15.4837 24.4922C15.498 23.63 15.736 23.1332 15.8908 22.9039C16.0551 22.5504 16.3194 22.259 16.6622 22.0249C17.2765 21.6045 17.9146 21.5568 18.5694 21.9509C19.098 22.2685 19.486 22.7032 19.7313 23.2741C19.917 23.704 20.0479 24.1506 20.1741 24.5973C20.2075 24.7143 20.2456 24.7955 20.3884 24.8075C20.7503 24.8385 21.1099 24.8982 21.4741 24.9221C22.0884 24.9603 22.7051 24.9579 23.3194 25.0057C24.0503 25.063 24.7813 25.0654 25.5146 25.0702C25.8527 25.0702 26.1884 25.0726 26.5265 25.0798C27.0599 25.0893 27.5979 25.0845 28.1194 25.2278C28.586 25.3568 28.898 25.6458 28.9932 26.1355C29.0289 26.3146 29.0599 26.4937 29.0741 26.6752C29.1003 27.0192 29.1146 27.3631 29.1265 27.7071C29.1313 27.8456 29.1813 27.9053 29.3241 27.9101C29.698 27.9244 30.0718 27.9292 30.4432 27.965C30.7718 27.9961 30.7741 27.9817 30.7741 27.645C30.7741 27.5088 30.7741 27.3727 30.7741 27.2389C30.7741 26.9499 30.7741 26.6585 30.7789 26.3695C30.7837 26.1259 30.8241 25.8847 30.9265 25.6601C31.0265 25.4404 31.2003 25.3449 31.436 25.3544C31.6884 25.3664 31.8408 25.5216 31.9432 25.7318C32.0503 25.9515 32.0979 26.1904 32.1265 26.434C32.1718 26.8377 32.1813 27.2437 32.186 27.6473C32.1884 27.8814 32.217 27.9053 32.4503 27.9077C32.5099 27.9077 32.5718 27.9077 32.6313 27.9077C33.0765 27.9077 33.5218 27.9125 33.9646 27.8719C34.0718 27.8623 34.1241 27.8456 34.1313 27.719C34.1527 27.3345 34.1599 26.9523 34.1432 26.5678L34.1408 26.5702ZM5.54557 20.5417C6.32176 20.6515 7.09795 20.6062 7.85509 20.396C8.73129 20.1524 9.417 19.6197 9.98605 18.9247C10.3908 18.4279 10.7122 17.8833 10.9837 17.3029C11.4741 16.2568 11.8599 15.1724 12.148 14.0522C12.186 13.9065 12.167 13.8014 12.0646 13.7035C12.0146 13.6558 11.9694 13.5984 11.9146 13.553C11.1075 12.8819 10.2265 12.3349 9.23128 11.9886C7.25509 11.3007 5.23843 11.1455 3.1789 11.5372C2.35509 11.6924 1.5789 11.9504 0.874141 12.4138C0.781283 12.4759 0.683664 12.538 0.57414 12.5547C0.440807 12.5762 0.42176 12.655 0.424141 12.7672C0.424141 12.9106 0.424141 13.0515 0.424141 13.1948C0.424141 13.2545 0.424141 13.3142 0.424141 13.3739C0.419379 13.7179 0.445569 14.0618 0.474141 14.4057C0.54795 15.3086 0.719378 16.1899 1.03366 17.0402C1.3789 17.9717 1.95271 18.7408 2.73128 19.3594C3.55986 20.0186 4.50509 20.396 5.54081 20.5417H5.54557ZM38.4908 15.4758C38.4837 15.748 38.4813 16.0227 38.4718 16.295C38.467 16.4765 38.4599 16.6557 38.4527 16.8372C38.4313 17.3817 38.4122 17.9263 38.4456 18.4685C38.6027 17.3913 38.8218 16.3332 39.1027 15.2871C39.1813 14.9957 39.2408 14.6971 39.2884 14.3986C39.2956 14.3556 39.2956 14.3102 39.2956 14.2648C39.2956 14.1955 39.2003 14.2266 39.1979 14.1382C39.1979 14.0785 39.2337 14.0212 39.2718 13.9615C39.3122 13.897 39.3551 13.8301 39.3527 13.7537C39.3503 13.6677 39.3122 13.6319 39.2456 13.7035C39.086 13.8731 38.9194 14.0355 38.767 14.2123C38.7599 14.2218 38.7503 14.229 38.7408 14.2361L38.4765 14.5538C38.4979 14.6589 38.586 14.7473 38.6241 14.85L38.6313 14.8715C38.6646 14.9551 38.6979 15.0458 38.617 15.0984C38.4884 15.182 38.4884 15.2966 38.4884 15.4137C38.4884 15.4328 38.4884 15.4543 38.4884 15.4758H38.4908ZM2.92652 14.8118C3.09795 14.7497 3.29557 14.6876 3.32176 14.4798C3.35033 14.2744 3.19081 14.1526 3.0289 14.0594C2.80986 13.9352 2.56462 13.9304 2.32652 13.928C2.17414 13.928 2.10033 14.0403 2.10509 14.1955C2.117 14.475 2.46938 14.8213 2.75747 14.8261C2.77176 14.8261 2.78843 14.8261 2.80509 14.8261C2.84557 14.8261 2.88842 14.8261 2.92652 14.8094V14.8118ZM9.59795 14.8977C9.73843 14.8571 9.83128 14.7449 9.84081 14.5825C9.85033 14.4201 9.76938 14.3126 9.63366 14.2409C9.35747 14.0952 8.36938 14.0475 8.39557 14.5514C8.40747 14.7998 8.667 15.0339 8.90271 15.0196C9.13843 15.0076 9.37176 14.9646 9.59795 14.8977ZM39.0694 23.919C39.6932 24.6116 40.6313 24.7191 41.4527 24.3513C41.8622 24.1674 42.1908 23.864 42.567 23.5583C42.3194 23.4174 42.1241 23.2597 41.9289 23.1045C41.8122 23.0113 41.6956 22.9134 41.5551 22.8513C40.6622 22.4572 39.7575 22.3665 38.8241 22.7152C38.7075 22.7582 38.6789 22.8107 38.6789 22.9301C38.6765 23.3171 38.817 23.6395 39.0694 23.919ZM38.1884 22.8155C38.1027 22.9588 38.0646 23.1069 38.1694 23.2717C38.3527 23.1905 38.3813 23.04 38.386 22.8752C38.386 22.8203 38.3813 22.7725 38.317 22.7629C38.2646 22.7534 38.217 22.7677 38.1884 22.8179V22.8155Z" fill="#0A0A0A"/>
<path d="M34.1408 26.5702C34.1265 26.2573 34.1218 25.9396 34.1599 25.6315C34.1646 25.6004 34.167 25.5718 34.1718 25.5455L34.1719 25.5444C34.2003 25.34 34.2023 25.3256 33.9956 25.2159C33.5884 24.9985 33.2456 24.7095 32.936 24.368C32.0384 23.3696 31.9099 21.7646 32.6432 20.6372C32.8789 20.2742 33.1956 20.0425 33.6289 20.0114C33.8099 19.9995 33.8146 19.9231 33.8003 19.7798C33.7479 19.3068 33.7027 18.8315 33.6194 18.3634C33.5241 17.826 33.4527 17.2814 33.2694 16.7631C33.2218 16.6318 33.1599 16.5816 33.0265 16.6127C32.9479 16.6318 32.8694 16.6461 32.7884 16.658C31.6503 16.8348 30.7575 16.4096 30.1122 15.4901C29.5622 14.7043 29.5908 13.8349 29.9051 12.9607C29.9194 12.9225 29.9432 12.8843 29.9646 12.8485L29.9672 12.8443C30.0115 12.7717 30.0545 12.7014 30.0241 12.6311C29.9741 12.5188 29.8241 12.4711 29.7099 12.4066C28.717 11.862 27.6408 11.6256 26.5265 11.5276C26.4003 11.5157 26.3218 11.5682 26.236 11.6494C26.0337 11.8477 25.8265 12.0435 25.6146 12.2275C24.8718 12.8723 24.036 13.2378 23.0265 13.0634C22.1646 12.9129 21.5099 12.4687 21.1289 11.6662C21.0551 11.5133 20.9646 11.4918 20.8218 11.499C20.7408 11.5037 20.6599 11.5061 20.5789 11.5109C20.1956 11.5276 19.8146 11.5467 19.4313 11.5467C18.4194 11.5467 17.4194 11.4154 16.417 11.3127C15.198 11.1885 14.0813 10.78 13.0622 10.0993C13.0289 10.0778 12.9932 10.0563 12.9551 10.0946C12.9337 10.1734 12.948 10.2498 12.9622 10.3262L12.9638 10.3354C12.9704 10.375 12.9767 10.4129 12.9789 10.4528C13.036 11.6136 12.9122 12.7577 12.6503 13.8874C12.6194 14.0212 12.6265 14.1215 12.7265 14.217C12.8956 14.3795 13.0337 14.5681 13.1575 14.764C13.4956 15.3014 13.7051 15.8722 13.5765 16.5219C13.3456 17.6827 12.2694 18.5402 11.086 18.4852C10.8956 18.4757 10.7908 18.5354 10.6908 18.6811C10.4194 19.0847 10.1146 19.4669 9.74557 19.7845C9.70509 19.8204 9.66938 19.8562 9.63842 19.8896L9.70509 21.2272L9.70747 21.2458C9.73286 21.4449 9.75798 21.6418 9.77414 21.841C9.917 23.5273 10.0575 25.2135 10.1527 26.9021C10.167 27.1434 10.1956 27.3846 10.217 27.6258C10.2265 27.7286 10.2622 27.8026 10.386 27.7835C10.6956 27.7309 11.0122 27.7548 11.3218 27.7118C11.3741 27.7047 11.4313 27.7071 11.4908 27.7118L11.4995 27.7122C11.6229 27.7169 11.7468 27.7216 11.8003 27.6306C11.8551 27.5399 11.8408 27.4061 11.8265 27.2724C11.8218 27.2222 11.8146 27.1744 11.8146 27.1267C11.8099 27.0335 11.8075 26.9404 11.8027 26.8448C11.7884 26.5439 11.7741 26.2429 11.7884 25.942C11.8051 25.5813 11.9051 25.2637 12.2122 25.0391C12.8075 24.6021 13.3408 24.7621 13.4956 25.4141C13.5099 25.4738 13.5265 25.5312 13.536 25.5909C13.6099 26.0519 13.6313 26.5152 13.6456 26.981C13.6479 27.0693 13.6479 27.1577 13.6456 27.2461C13.6456 27.4443 13.6456 27.645 13.6765 27.8647C14.236 27.7309 14.7765 27.6688 15.3241 27.6641C15.7837 27.6593 15.786 27.6593 15.7051 27.2079C15.7027 27.1888 15.6908 27.1697 15.6884 27.1482C15.6646 26.9499 15.6384 26.7541 15.6099 26.5558C15.5289 25.9802 15.4503 25.4046 15.4765 24.8194V24.6976C15.4741 24.6283 15.4718 24.5591 15.4837 24.4922C15.498 23.63 15.736 23.1332 15.8908 22.9039C16.0551 22.5504 16.3194 22.259 16.6622 22.0249C17.2765 21.6045 17.9146 21.5568 18.5694 21.9509C19.098 22.2685 19.486 22.7032 19.7313 23.2741C19.917 23.704 20.0479 24.1506 20.1741 24.5973C20.2075 24.7143 20.2456 24.7955 20.3884 24.8075C20.7503 24.8385 21.1099 24.8982 21.4741 24.9221C22.0884 24.9603 22.7051 24.9579 23.3194 25.0057C24.0503 25.063 24.7813 25.0654 25.5146 25.0702C25.8527 25.0702 26.1884 25.0726 26.5265 25.0798C27.0599 25.0893 27.5979 25.0845 28.1194 25.2278C28.586 25.3568 28.898 25.6458 28.9932 26.1355C29.0289 26.3146 29.0599 26.4937 29.0741 26.6752C29.1003 27.0192 29.1146 27.3631 29.1265 27.7071C29.1313 27.8456 29.1813 27.9053 29.3241 27.9101C29.698 27.9244 30.0718 27.9292 30.4432 27.965C30.7718 27.9961 30.7741 27.9817 30.7741 27.645V27.2389C30.7741 26.9499 30.7741 26.6585 30.7789 26.3695C30.7837 26.1259 30.8241 25.8847 30.9265 25.6601C31.0265 25.4404 31.2003 25.3449 31.436 25.3544C31.6884 25.3664 31.8408 25.5216 31.9432 25.7318C32.0503 25.9515 32.0979 26.1904 32.1265 26.434C32.1718 26.8377 32.1813 27.2437 32.186 27.6473C32.1884 27.8814 32.217 27.9053 32.4503 27.9077H32.6313C33.0765 27.9077 33.5218 27.9125 33.9646 27.8719C34.0718 27.8623 34.1241 27.8456 34.1313 27.719C34.1527 27.3345 34.1599 26.9523 34.1432 26.5678L34.1408 26.5702Z" fill="#FDFDFF"/>
<path fill-rule="evenodd" clip-rule="evenodd" d="M5.54557 20.5417C6.32176 20.6515 7.09795 20.6062 7.85509 20.396C8.73129 20.1524 9.417 19.6197 9.98605 18.9247C10.3908 18.4279 10.7122 17.8833 10.9837 17.3029C11.4741 16.2568 11.8599 15.1724 12.148 14.0522C12.186 13.9065 12.167 13.8014 12.0646 13.7035C12.0146 13.6558 11.9694 13.5984 11.9146 13.553C11.1075 12.8819 10.2265 12.3349 9.23128 11.9886C7.25509 11.3007 5.23843 11.1455 3.1789 11.5372C2.35509 11.6924 1.5789 11.9504 0.874141 12.4138C0.781283 12.4759 0.683664 12.538 0.57414 12.5547C0.440807 12.5762 0.42176 12.655 0.424141 12.7672V13.1948V13.3739C0.419379 13.7179 0.445569 14.0618 0.474141 14.4057C0.54795 15.3086 0.719378 16.1899 1.03366 17.0402C1.3789 17.9717 1.95271 18.7408 2.73128 19.3594C3.55986 20.0186 4.50509 20.396 5.54081 20.5417H5.54557ZM3.32176 14.4798C3.29557 14.6876 3.09795 14.7497 2.92652 14.8118V14.8094C2.88842 14.8261 2.84557 14.8261 2.80509 14.8261H2.75747C2.46938 14.8213 2.117 14.475 2.10509 14.1955C2.10033 14.0403 2.17414 13.928 2.32652 13.928C2.56462 13.9304 2.80986 13.9352 3.0289 14.0594C3.19081 14.1526 3.35033 14.2744 3.32176 14.4798ZM9.84081 14.5825C9.83128 14.7449 9.73843 14.8571 9.59795 14.8977C9.37176 14.9646 9.13843 15.0076 8.90271 15.0196C8.667 15.0339 8.40747 14.7998 8.39557 14.5514C8.36938 14.0475 9.35747 14.0952 9.63366 14.2409C9.76938 14.3126 9.85033 14.4201 9.84081 14.5825Z" fill="#FDFDFF"/>
<path fill-rule="evenodd" clip-rule="evenodd" d="M0.719378 9.77212C0.631283 10.2283 0.550331 10.6893 0.514616 11.1526C0.505093 11.2601 0.495569 11.3676 0.483665 11.4751C0.452712 11.7713 0.421759 12.0674 0.445568 12.366C0.55033 12.3946 0.609854 12.354 0.666997 12.3182C0.678902 12.311 0.688427 12.3039 0.700332 12.2967C0.962237 12.1439 1.20271 11.9599 1.4789 11.8286C2.61462 11.2864 3.83366 11.1264 5.06938 11.0643C6.15509 11.0093 7.22414 11.1503 8.28128 11.4082C9.48128 11.6996 10.5956 12.1821 11.586 12.9344C11.8099 13.104 12.0289 13.276 12.2456 13.4456C12.2979 13.4193 12.3099 13.3787 12.3146 13.3381C12.4456 12.569 12.5622 11.7975 12.5479 11.0189C12.5241 9.64075 12.2741 8.30321 11.7051 7.03733C11.4575 6.48799 11.117 6.00074 10.7075 5.55888C10.6218 5.46811 10.5503 5.44901 10.4503 5.53021C10.2599 5.68546 10.0432 5.79533 9.80509 5.85504C9.05271 6.04134 8.33842 5.91714 7.67414 5.53499C7.35033 5.34869 7.12414 5.06208 6.9789 4.71575V4.70858C6.86938 4.45302 6.867 4.45302 6.59795 4.46496C6.54795 4.46735 6.49795 4.46974 6.44557 4.47451C6.36461 4.48407 6.28128 4.49123 6.20033 4.50079C5.73128 4.55333 5.25985 4.60349 4.78843 4.60349C4.34795 4.60349 3.96462 4.75635 3.60509 4.9952C3.39319 5.13612 3.20033 5.29614 3.00509 5.45856C2.84319 5.59231 2.84319 5.59948 2.98604 5.75712C3.41223 6.22526 3.59319 6.77699 3.52414 7.40515C3.47414 7.84702 3.29795 8.25067 3.04081 8.60655C2.5289 9.31353 1.88605 9.76973 0.955094 9.58343C0.79557 9.55238 0.74795 9.62642 0.719378 9.77212ZM4.24795 9.17978C4.25271 9.00542 4.44557 8.77852 4.59319 8.77135L4.59557 8.76896C4.76938 8.7618 5.0289 9.00064 5.0289 9.17261C5.0289 9.33503 4.85271 9.51894 4.70271 9.51416C4.42652 9.50461 4.24319 9.36847 4.24795 9.17978ZM8.60747 9.62403C8.62414 9.47356 8.68604 9.33981 8.85747 9.26815C9.01938 9.19889 9.15271 9.23949 9.26938 9.35175C9.65509 9.72196 9.23604 9.99902 8.90985 9.97275C8.73366 9.95842 8.58366 9.85332 8.60747 9.62403Z" fill="#FDFDFF"/>
<path d="M3.45748 1.38624C2.99557 1.44834 2.66224 1.71107 2.42176 2.09561C1.93843 2.86947 2.067 4.14013 3.15033 4.77068C3.23843 4.82084 3.29557 4.7874 3.35509 4.74919C3.367 4.74202 3.38128 4.73247 3.39319 4.7253C3.48843 4.67515 3.46223 4.60827 3.43604 4.53423L3.4289 4.51751C3.34795 4.2906 3.25271 4.0637 3.19081 3.83202C3.00747 3.13459 3.00509 2.45149 3.40271 1.81377C3.48604 1.68002 3.58128 1.55104 3.67652 1.41012C3.62652 1.3934 3.60033 1.37907 3.57414 1.37907C3.53366 1.37907 3.49319 1.38146 3.45509 1.38624H3.45748Z" fill="#0A0A0A"/>
<path d="M3.80509 1.88304C3.85747 1.77556 3.90986 1.6633 3.88843 1.50805C3.64557 1.73017 3.50747 1.98335 3.40509 2.25802C3.117 3.0295 3.34557 3.74842 3.6289 4.46257C3.67414 4.57483 3.75747 4.55811 3.81938 4.49362C3.91462 4.39808 4.02652 4.33598 4.16938 4.27627C3.95985 3.98966 3.72414 3.74842 3.63605 3.41165C3.50509 2.91246 3.56462 2.43238 3.767 1.96186C3.7789 1.93558 3.79081 1.9117 3.80271 1.88542L3.80509 1.88304Z" fill="#0A0A0A"/>
<path d="M12.1622 3.64572C11.9694 4.3336 11.6265 4.89011 10.8884 5.0979C10.8765 5.10268 10.8694 5.12895 10.8479 5.16478C11.1622 5.44423 11.4099 5.78339 11.6527 6.12972C11.7099 6.04851 11.7741 5.93386 11.836 5.81683L11.9646 5.51588C12.1051 5.17911 12.2479 4.84473 12.3408 4.49123C12.4432 4.09475 12.4789 3.69349 12.4408 3.28506C12.436 3.23252 12.4218 3.18475 12.3599 3.17758C12.3003 3.17042 12.2646 3.20624 12.2527 3.26118C12.2218 3.38777 12.2003 3.51913 12.1646 3.64572H12.1622Z" fill="#0A0A0A"/>
<path d="M12.9194 3.2564L12.9171 3.25248C12.844 3.12467 12.7675 2.99089 12.5813 2.95307C12.6479 3.35433 12.6956 3.74126 12.6337 4.13774C12.5384 4.75635 12.3241 5.33197 12.0384 5.88609C11.9646 6.07478 11.8551 6.22526 11.7813 6.31363C11.8241 6.37573 11.8694 6.43783 11.9122 6.49993C12.0408 6.402 12.1575 6.32079 12.2646 6.22764C12.7051 5.83832 13.0622 5.39646 13.1503 4.7874C13.2265 4.25239 13.1932 3.73648 12.9194 3.2564Z" fill="#0A0A0A"/>
</svg>
