<svg width="100" height="50" viewBox="0 0 100 50" fill="none" xmlns="http://www.w3.org/2000/svg">
<g clip-path="url(#clip0_451_687)">
<path d="M21.3785 47.7883C21.5214 47.7883 21.6262 47.7548 21.6928 47.6903C21.7619 47.6235 21.7952 47.5327 21.7952 47.4157C21.7952 47.313 21.7547 47.227 21.6762 47.1601C21.5952 47.0932 21.4761 47.0598 21.3142 47.0598C21.2095 47.0598 21.119 47.0765 21.0381 47.1076C20.9571 47.1386 20.8952 47.1792 20.8476 47.2318L20.7928 47.5614H20.3976V47.0598C20.5 46.938 20.6357 46.8401 20.8 46.7636C20.9642 46.6872 21.1476 46.6514 21.35 46.6514C21.65 46.6514 21.8881 46.7182 22.0642 46.8496C22.2404 46.981 22.3261 47.1697 22.3261 47.4133C22.3261 47.5351 22.2904 47.6474 22.2166 47.7477C22.1428 47.848 22.0428 47.9268 21.9166 47.9841C22.0619 48.0367 22.1738 48.1155 22.2523 48.2206C22.3309 48.3257 22.369 48.4547 22.369 48.6051C22.369 48.8487 22.2738 49.0422 22.0857 49.1807C21.8976 49.3193 21.6523 49.3885 21.35 49.3885C21.0833 49.3885 20.8547 49.3241 20.6595 49.1927C20.4642 49.0613 20.3714 48.8726 20.3762 48.6218L20.3809 48.6099H20.8976C20.8976 48.7126 20.9404 48.801 21.0238 48.8702C21.1071 48.9419 21.2166 48.9753 21.35 48.9753C21.5 48.9753 21.6166 48.9395 21.7047 48.8679C21.7928 48.7962 21.8357 48.7054 21.8357 48.5956C21.8357 48.4547 21.7976 48.3519 21.7214 48.2875C21.6452 48.223 21.5309 48.1895 21.3785 48.1895H21.0571V47.7907H21.3785V47.7883Z" fill="#FDFDFF"/>
<path d="M27.9143 50H27.4309V49.3456H25.8048V50H25.3143L25.2738 48.9371H25.4786C25.5738 48.8559 25.6548 48.7269 25.7262 48.5502C25.7976 48.3735 25.8381 48.1155 25.85 47.774L25.9 47.0574L25.6405 47.0073V46.6848H27.9309V47.0073L27.6476 47.0622V48.9371H27.9619L27.9119 50H27.9143ZM26.3857 47.7763C26.3738 48.0462 26.3429 48.2731 26.2905 48.4618C26.2381 48.6505 26.169 48.8082 26.0833 48.9371H27.119V47.098H26.4286L26.3857 47.7763Z" fill="#FDFDFF"/>
<path d="M32.2119 46.6848C32.5142 46.6848 32.7547 46.7636 32.9309 46.9188C33.1071 47.0741 33.1952 47.2795 33.1952 47.5327C33.1952 47.7858 33.1071 47.9912 32.9309 48.1465C32.7547 48.3017 32.5166 48.3782 32.2119 48.3782H31.7642V48.9681L32.0476 49.0231V49.3431H30.95V49.0231L31.2333 48.9681V47.0598L30.95 47.0048V46.6824H32.2119V46.6848ZM31.7642 47.9698H32.2119C32.3595 47.9698 32.4714 47.9291 32.5476 47.8479C32.6238 47.7667 32.6619 47.664 32.6619 47.5374C32.6619 47.4109 32.6238 47.3034 32.5476 47.2198C32.4714 47.1362 32.3595 47.0956 32.2119 47.0956H31.7642V47.9698Z" fill="#FDFDFF"/>
<path d="M35.3547 49.0254L35.5452 48.9992L36.3524 46.6871H36.8976L37.6976 48.9992L37.8881 49.0254V49.3455H36.9857V49.0254L37.169 48.992L37.0524 48.6266H36.1928L36.0762 48.992L36.2595 49.0254V49.3455H35.3571V49.0254H35.3547ZM36.3166 48.2349H36.9238L36.6262 47.2986H36.6143L36.3166 48.2349Z" fill="#FDFDFF"/>
<path d="M41.9618 46.6848C42.2737 46.6848 42.5166 46.7445 42.6928 46.8663C42.869 46.9881 42.9547 47.1696 42.9547 47.4132C42.9547 47.5351 42.9214 47.6473 42.8571 47.7428C42.7928 47.8384 42.6976 47.9124 42.5737 47.9602C42.7333 47.9936 42.8523 48.0677 42.9309 48.1799C43.0095 48.2922 43.0499 48.4212 43.0499 48.5693C43.0499 48.8248 42.9666 49.0159 42.7976 49.1473C42.6285 49.2786 42.3928 49.3431 42.0856 49.3431H40.7809V49.0231L41.0642 48.9681V47.0598L40.7809 47.0048V46.6824H41.9595L41.9618 46.6848ZM41.5976 48.168V48.9347H42.088C42.2285 48.9347 42.3356 48.9036 42.4095 48.8415C42.4833 48.7794 42.5214 48.6887 42.5214 48.5693C42.5214 48.4379 42.4904 48.34 42.4261 48.2707C42.3618 48.2014 42.2642 48.168 42.1285 48.168H41.5976ZM41.5976 47.8002H41.9809C42.1237 47.8002 42.2333 47.7715 42.3095 47.7118C42.3856 47.6521 42.4237 47.5685 42.4237 47.4562C42.4237 47.3344 42.3856 47.2437 42.3071 47.184C42.2309 47.1266 42.1142 47.0956 41.9618 47.0956H41.5976V47.7978V47.8002Z" fill="#FDFDFF"/>
<path d="M47.5714 48.1752H46.6738V48.9347H47.5285L47.5524 48.617H47.9571V49.3431H45.8595V49.0231L46.1428 48.9681V47.0598L45.8595 47.0048V46.6824H47.9524V47.4109H47.5452L47.5214 47.0932H46.6738V47.762H47.5714V48.1728V48.1752Z" fill="#FDFDFF"/>
<path d="M55.2667 48.2564L54.8667 49.0064L54.9691 49.0255V49.3456H53.9667V49.0255L54.231 48.9873L54.8619 47.9006L54.5262 47.356C54.4667 47.27 54.4167 47.2103 54.3738 47.1792C54.331 47.1482 54.2857 47.1315 54.2333 47.1315C54.2071 47.1315 54.1833 47.1315 54.1643 47.1386C54.1452 47.1434 54.1214 47.1482 54.0976 47.1554L54.0191 46.7565C54.0619 46.7278 54.1095 46.7063 54.1667 46.6896C54.2238 46.6729 54.281 46.6633 54.3452 46.6633C54.4762 46.6633 54.581 46.692 54.6619 46.7493C54.7429 46.8066 54.8262 46.9093 54.9143 47.0574L55.3262 47.7764H55.6V47.067L55.3167 47.012V46.6896H56.4143V47.012L56.131 47.067V47.7764H56.4048L56.8095 47.0574C56.8929 46.9093 56.9762 46.8066 57.0548 46.7493C57.1357 46.692 57.2405 46.6633 57.3738 46.6633C57.4381 46.6633 57.4952 46.6729 57.55 46.6896C57.6048 46.7063 57.6548 46.7302 57.7 46.7565L57.6262 47.1554C57.6 47.1482 57.5786 47.1434 57.5572 47.1386C57.5357 47.1339 57.5143 47.1315 57.4905 47.1315C57.4381 47.1315 57.3905 47.1482 57.3476 47.1792C57.3048 47.2103 57.2548 47.27 57.1976 47.356L56.8595 47.9077L57.4738 48.9873L57.7476 49.0255V49.3456H56.7333V49.0255L56.8381 49.0064L56.4452 48.2564H56.1262V48.9706L56.4095 49.0255V49.3456H55.3119V49.0255L55.5952 48.9706V48.2564H55.2667Z" fill="#FDFDFF"/>
<path d="M62.257 46.6848V47.0073L61.9737 47.0622V48.2922L61.9856 48.297L63.0547 47.2103V47.0622L62.7713 47.0073V46.6848H63.8689V47.0073L63.5856 47.0622V48.9706L63.8689 49.0255V49.3456H62.7713V49.0255L63.0547 48.9706V47.7692L63.0428 47.7644L61.9737 48.8535V48.9706L62.257 49.0255V49.3456H61.1594V49.0255L61.4428 48.9706V47.0622L61.1594 47.0073V46.6848H62.257Z" fill="#FDFDFF"/>
<path d="M69.188 46.6848V47.3942H68.7809L68.7594 47.0956H68.2713V48.9706L68.5547 49.0255V49.3456H67.4547V49.0255L67.738 48.9706V47.0956H67.2523L67.2309 47.3942H66.8237V46.6848H69.188Z" fill="#FDFDFF"/>
<path d="M74.4262 46.6848V47.3942H74.019L73.9976 47.0956H73.5095V48.9706L73.7928 49.0255V49.3456H72.6928V49.0255L72.9762 48.9706V47.0956H72.4905L72.469 47.3942H72.0619V46.6848H74.4262Z" fill="#FDFDFF"/>
<path d="M79.6237 46.6848V47.0073L79.3404 47.0622V48.9706L79.6237 49.0255V49.3456H78.8094V48.3472H78.4594L78.2118 48.9252C78.1452 49.0661 78.0642 49.1736 77.969 49.25C77.8714 49.3264 77.7594 49.3647 77.6285 49.3647C77.5666 49.3647 77.5094 49.3575 77.4571 49.3408C77.4047 49.3241 77.3571 49.3026 77.3142 49.2739L77.3833 48.8726C77.4071 48.8822 77.4285 48.887 77.4452 48.8894C77.4618 48.8917 77.4833 48.8941 77.5071 48.8941C77.5594 48.8941 77.6071 48.8798 77.6499 48.8488C77.6928 48.8201 77.738 48.7628 77.7856 48.6816L77.9928 48.2421C77.8094 48.1728 77.6714 48.0773 77.5809 47.9579C77.4904 47.8384 77.4452 47.688 77.4452 47.5041C77.4452 47.2413 77.5309 47.0407 77.7047 46.8998C77.8761 46.7589 78.1166 46.6872 78.4214 46.6872H79.6237V46.6848ZM77.9785 47.5232C77.9785 47.6593 78.0166 47.7668 78.0904 47.8408C78.1666 47.9173 78.2761 47.9555 78.4214 47.9555H78.8094V47.0956H78.4214C78.2737 47.0956 78.1642 47.1315 78.088 47.2055C78.0118 47.2795 77.9761 47.3846 77.9761 47.5232H77.9785ZM78.5261 49.3432V49.0231L78.8094 48.9682V49.3432H78.5261Z" fill="#FDFDFF"/>
<path d="M5.72613 39.0202C5.72613 39.0202 7.36184 38.705 7.36184 37.1883C7.36184 35.9248 6.10232 34.6637 3.77375 34.6637C1.44518 34.6637 0.37613 36.0514 0.37613 36.0514L1.57137 37.9454C1.57137 37.9454 2.45232 37.2504 3.52137 37.2504C3.89994 37.2504 4.08803 37.4391 4.08803 37.6923C4.08803 37.9454 3.89994 38.1341 3.52137 38.1341H2.19994V40.2813H3.34518C3.70946 40.2813 3.96184 40.5345 3.96184 40.7853C3.96184 41.0361 3.70946 41.2893 3.33327 41.2893C2.07375 41.2893 1.1928 40.4676 1.1928 40.4676L-0.00244141 42.3617C-0.00244141 42.3617 1.13089 43.876 3.89994 43.876C6.22851 43.876 7.48803 42.6125 7.48803 41.2869C7.48803 39.3928 5.72613 39.0776 5.72613 39.0776V39.0155V39.0202Z" fill="#FDFDFF"/>
<path d="M14.8523 34.8547H10.5738L7.9928 43.692H11.6428L11.8952 42.4285H13.5309L13.7833 43.692H17.4333C17.4333 43.692 14.8666 34.9049 14.8523 34.8547ZM12.2714 40.4103L12.7118 38.1365L13.1523 40.4103H12.2714Z" fill="#FDFDFF"/>
<path d="M19.9499 39.2734L17.4332 43.692H21.2094L22.2166 41.0408L23.2237 43.692H26.9999L24.4832 39.2734L26.8737 34.8547H23.0975L22.2166 37.2528L21.3356 34.8547H17.5594L19.9499 39.2734Z" fill="#FDFDFF"/>
<path d="M30.9 39.1468V34.8547H27.6285V43.692H31.1523L33.1666 39.4V43.692H36.4381V34.8547H32.9143L30.9 39.1468Z" fill="#FDFDFF"/>
<path d="M37.6975 39.2734C37.6975 41.8625 39.7118 43.8831 42.3547 43.8831C44.7451 43.8831 45.8785 42.4954 45.8785 42.4954L44.3689 40.0974C44.3689 40.0974 43.6142 40.7924 42.7332 40.7924C41.8523 40.7924 41.2237 40.1619 41.2237 39.2782C41.2237 38.3944 41.8523 37.7639 42.7332 37.7639C43.6142 37.7639 44.3689 38.4589 44.3689 38.4589L45.8785 36.0609C45.8785 36.0609 44.7451 34.6732 42.3547 34.6732C39.7118 34.6732 37.6975 36.6939 37.6975 39.2829V39.2734Z" fill="#FDFDFF"/>
<path d="M46.3809 34.8547V37.7591H48.7714V43.6944H52.0428V37.7591H54.4333V34.8547H46.3785H46.3809Z" fill="#FDFDFF"/>
<path d="M66.5189 34.8547H62.7427L61.2332 38.3897V34.8547H57.9618V43.692H61.2332V40.1571L62.9951 43.692H66.7713L64.1285 39.2734L66.5189 34.8547Z" fill="#FDFDFF"/>
<path d="M73.4428 39.2734C73.4428 40.1571 72.8143 40.7877 72.0595 40.7877C71.3047 40.7877 70.6762 40.1571 70.6762 39.2734C70.6762 38.3897 71.3047 37.7591 72.0595 37.7591C72.8143 37.7591 73.4428 38.3897 73.4428 39.2734ZM76.9666 39.2734C76.9666 36.6843 74.9524 34.6637 72.0571 34.6637C69.1619 34.6637 67.1476 36.6843 67.1476 39.2734C67.1476 41.8625 69.1619 43.8831 72.0571 43.8831C74.9524 43.8831 76.9666 41.8625 76.9666 39.2734Z" fill="#FDFDFF"/>
<path d="M82.0023 34.7281C79.988 34.7281 78.2261 34.8547 78.2261 34.8547V43.692H81.4975V40.8522C81.4975 40.8522 82.1261 40.9143 82.6308 40.9143C84.7713 40.9143 86.0285 39.6508 86.0285 37.8212C86.0285 35.9916 84.7689 34.7281 81.9999 34.7281H82.0023ZM81.4999 38.5162V37.1286H82.0023C82.4427 37.1286 82.757 37.4438 82.757 37.8236C82.757 38.2034 82.4427 38.5186 82.0023 38.5186H81.4999V38.5162Z" fill="#FDFDFF"/>
<path d="M90.4333 34.8547H87.1619V43.692H90.4333V34.8547Z" fill="#FDFDFF"/>
<path d="M97.9857 39.0203C97.9857 39.0203 99.6214 38.705 99.6214 37.1883C99.6214 35.8627 98.488 34.7258 95.6571 34.7258C93.7071 34.7258 91.9452 34.8524 91.9452 34.8524V43.6897C91.9452 43.6897 93.7071 43.8163 95.7214 43.8163C98.869 43.8163 99.9999 42.6794 99.9999 41.2917C99.9999 39.3977 97.9857 39.0824 97.9857 39.0824V39.0203ZM95.2166 36.9996H95.6571C96.0976 36.9996 96.35 37.2528 96.35 37.5681C96.35 37.8834 96.0976 38.1365 95.6571 38.1365H95.2166V36.9996ZM95.719 41.5449H95.2166V40.2814H95.719C96.2214 40.2814 96.4738 40.5346 96.4738 40.9119C96.4738 41.2893 96.2214 41.5425 95.719 41.5425V41.5449Z" fill="#FDFDFF"/>
<path fill-rule="evenodd" clip-rule="evenodd" d="M71.8047 9.79032V9.84286C71.7976 10.4901 71.5024 11.0084 71.0547 11.467C70.5666 11.9662 69.95 12.2385 69.3095 12.4702C68.9285 12.6087 68.5309 12.6923 68.1428 12.795C68.0024 12.8332 67.8976 12.8762 67.9166 13.053C67.9262 13.1461 67.8976 13.2369 67.7976 13.2775C67.7143 13.3109 67.719 13.3873 67.7071 13.4566C67.5285 14.4454 67.219 15.4008 67.0405 16.3896C66.9024 17.1492 66.8262 17.9159 66.769 18.6849C66.7643 18.747 66.7595 18.8115 66.7547 18.8736C66.719 19.325 66.6857 19.7789 66.7071 20.235C66.7214 20.5599 66.7404 20.8823 66.7714 21.2048C66.7928 21.4245 66.8571 21.4675 67.0381 21.3696C67.5833 21.0686 68.1666 21.0997 68.7524 21.157C69.4571 21.2286 70.0714 21.5129 70.6 21.9858C70.7428 22.1148 70.9047 22.2127 71.0833 22.2939C71.3119 22.399 71.3238 22.5351 71.1309 22.7023C70.7785 23.0057 70.4619 23.3544 70.05 23.5789C69.1738 24.0542 68.2976 24.102 67.4428 23.5287C67.0643 23.2756 66.7952 22.9245 66.6381 22.4659C66.3095 22.6283 66.1666 22.5638 66.0785 22.2485C66.0452 22.1243 66.0404 22.0073 66.0976 21.8926C66.1571 21.7708 66.1309 21.7183 65.9881 21.692C64.9714 21.5009 64.2428 20.9062 63.7071 20.0392C63.2428 19.2844 62.9262 18.4628 62.6047 17.6436C62.5166 17.4191 62.4309 17.1922 62.2857 16.9533C62.269 17.1969 62.3047 17.3999 62.3404 17.603C62.4357 18.1213 62.4547 18.6491 62.5071 19.1722C62.5714 19.8171 62.6285 20.462 62.6833 21.1068C62.7738 22.196 62.8619 23.2875 62.8714 24.3814C62.8714 24.4029 62.8714 24.422 62.8714 24.4435C62.9071 25.2795 62.9071 26.5525 62.6714 27.4912C62.6571 27.5748 62.6452 27.6584 62.6285 27.742C62.5833 27.9617 62.5024 28.1671 62.3952 28.3654C62.219 28.6926 61.9571 28.8526 61.5857 28.8478C60.7262 28.8383 60.1262 28.2579 60.0166 27.3455C59.9405 26.7197 59.969 26.0892 59.9 25.4658C59.8809 25.2843 59.8619 25.1027 59.7833 24.9355C59.7476 24.8639 59.7071 24.7851 59.6071 24.7922C59.5047 24.7994 59.4857 24.883 59.4666 24.9642C59.4047 25.215 59.4024 25.4682 59.4024 25.7237C59.4024 25.7619 59.4024 25.8002 59.4024 25.8384C59.4024 25.9602 59.4024 26.082 59.4024 26.2038C59.4024 26.6887 59.4047 27.1735 59.3024 27.6536C59.2238 28.0143 59.119 28.3582 58.85 28.6305C58.5595 28.9243 58.2214 29.0174 57.8262 28.8932C57.7381 28.8669 57.6524 28.8383 57.5666 28.8048C57.2738 28.695 57.0905 28.4991 57.0119 28.1791C56.9357 27.8686 56.9309 27.5557 56.9238 27.2428C56.9238 27.1616 56.9214 27.0828 56.919 27.0016C56.9 26.457 56.9095 25.91 56.8143 25.3678C56.7381 24.9451 56.5833 24.6919 56.0095 24.6059C55.4119 24.5152 54.8119 24.5223 54.2119 24.5271C54.0762 24.5271 53.9381 24.5295 53.8024 24.5295C53.1166 24.5295 52.4333 24.5152 51.75 24.4674C51.2262 24.4316 50.7024 24.422 50.1785 24.4005C49.2881 24.3671 48.4119 24.2286 47.5333 24.0996C46.4571 23.9419 45.3857 23.7509 44.3119 23.5765C44.1166 23.5455 44.1095 23.5574 44.1047 23.7509C44.0881 24.4913 44.1952 25.2198 44.3047 25.9482C44.3143 26.0103 44.3238 26.0724 44.3333 26.1369C44.4071 26.6433 44.4238 27.1496 44.3095 27.6488C44.2024 28.1146 43.9738 28.5158 43.4881 28.6568C42.9619 28.8096 42.4476 28.7236 41.9833 28.4203C41.7024 28.2364 41.5857 27.9402 41.519 27.6273C41.4762 27.4195 41.4476 27.2093 41.4428 26.9944C41.4333 26.488 41.419 25.9817 41.3976 25.4753C41.3857 25.2222 41.3571 24.969 41.3214 24.7182C41.3047 24.5988 41.2524 24.4865 41.2119 24.3719C41.1714 24.2548 41.0809 24.2142 40.9714 24.2524C40.7214 24.3384 40.5166 24.477 40.4762 24.7683V24.7779C40.4547 24.926 40.4333 25.0717 40.4405 25.2222C40.4643 25.8097 40.4905 26.3949 40.5095 26.9824V26.992C40.5214 27.3933 40.5333 27.7969 40.3619 28.1791C40.2047 28.5278 39.8928 28.7165 39.5119 28.6759C38.8071 28.5994 38.2976 28.1528 38.1428 27.4912C38.0214 26.9657 37.9809 26.4307 37.9405 25.8957C37.8762 25.0167 37.819 24.1402 37.7595 23.2612C37.6928 22.3011 37.6762 21.3385 37.5857 20.3784C37.5762 20.2876 37.5666 20.1968 37.5547 20.1061C37.5214 19.8266 37.4881 19.5496 37.5166 19.2749C37.4405 19.2343 37.3976 19.2629 37.3547 19.2892C37.3452 19.294 37.3381 19.3012 37.3285 19.3059C35.7143 20.2159 34.0428 20.2279 32.3309 19.6308C31.4857 19.337 30.7452 18.8617 30.1262 18.2264C29.4095 17.4931 28.9166 16.6165 28.6381 15.6182C28.3071 14.4359 28.2 13.2345 28.2071 12.0116C28.2119 10.9941 28.2762 9.98617 28.469 8.98779C28.7071 7.7649 29.1381 6.61367 29.8143 5.55797C30.1285 5.06833 30.4738 4.61214 30.9309 4.2467C30.9785 4.20849 31.0262 4.1655 31.0547 4.11534C31.1024 4.03174 31.1262 3.94337 31.0119 3.88605C30.8928 3.82633 30.8095 3.71647 30.7024 3.64481C29.9881 3.17667 29.8095 1.70299 30.2857 0.943464C30.6047 0.437111 31.0238 0.0931726 31.6333 0.0143534C31.8619 -0.0143081 32.0785 0.0310726 32.2905 0.0860072C32.4738 0.136165 32.5595 0.281861 32.55 0.482491C32.5405 0.687899 32.469 0.878976 32.3833 1.06289C32.1833 1.49042 32.1024 1.92751 32.2762 2.38848C32.4452 2.83512 32.9047 3.22205 33.4143 3.18384C34.0881 3.13368 34.7643 3.0883 35.4381 3.05486C35.9119 3.03098 36.3881 3.04531 36.8619 3.10024C37.4262 3.16473 37.9285 3.38925 38.4119 3.67586C38.8071 3.90993 39.1976 3.855 39.5238 3.52778C39.7643 3.28415 39.9333 3.0047 40.0024 2.66554C40.0571 2.40759 40.1119 2.14964 40.169 1.89407C40.2405 1.56924 40.4047 1.45698 40.7357 1.50475C41.1214 1.56207 41.369 1.81047 41.5333 2.13769C42.0524 3.16712 41.9262 4.476 40.9095 5.37167C40.7666 5.49826 40.6357 5.64634 40.4524 5.72038C40.3047 5.78009 40.2905 5.86369 40.3547 6.00222C40.5881 6.50857 40.7595 7.03881 40.8833 7.58338C40.9405 7.82939 40.9976 8.0754 41.0381 8.32619C41.069 8.51727 41.1547 8.6558 41.3143 8.76806C41.6405 8.99735 41.9976 9.16215 42.3643 9.30307C42.9476 9.52759 43.5333 9.75688 44.1595 9.83331C44.7095 9.90257 45.2643 9.95034 45.8166 9.99572C45.8952 10.0029 45.9762 10.0077 46.0547 10.0148C46.4881 10.0507 46.9214 10.0865 47.3547 10.0865C48.2024 10.0841 49.05 10.0435 49.8976 10.0148C50.9071 9.98139 51.9166 9.98617 52.9262 10.0005C53.5619 10.0101 54.1976 10.0148 54.8285 10.0626C55.4928 10.1151 56.1476 10.2346 56.7881 10.4304C57.4 10.6167 57.9809 10.8723 58.5166 11.2186C59.0357 11.553 59.5024 11.9495 59.9166 12.4152C60.6881 13.2822 61.3714 14.2018 61.8285 15.279C62.1095 15.9406 62.5452 16.521 62.8143 17.1898C63.0857 17.8657 63.3714 18.5345 63.6976 19.1865C64.0023 19.798 64.3666 20.3616 64.9166 20.7892C65.3381 21.114 65.8166 21.2788 66.3309 21.372C66.4952 21.4006 66.4952 21.2955 66.4785 21.188C66.4357 20.8871 66.4047 20.5838 66.3762 20.2828C66.2905 19.4134 66.2643 18.544 66.2905 17.6698C66.3214 16.5855 66.3976 15.5035 66.4643 14.4215V14.3977C66.4738 14.2663 66.4833 14.1421 66.3405 14.0466C66.2428 13.9821 66.2857 13.877 66.3262 13.7838L66.3309 13.7695C66.4881 13.3826 66.4881 13.3802 66.1285 13.1628C65.1095 12.549 64.1643 11.8468 63.3666 10.9535C62.7928 10.311 62.3333 9.59685 62.0833 8.77044C61.9143 8.21393 61.8476 7.63593 62.0238 7.0627C62.2 6.49424 62.6262 6.29122 63.1857 6.49185C63.6762 6.6686 64.0476 7.01254 64.3762 7.40186C64.6833 7.76729 64.9381 8.16855 65.1785 8.58176C65.219 8.65102 65.2666 8.71312 65.3238 8.79672C65.5095 8.58415 65.6047 8.33813 65.75 8.12556C66.3214 7.28243 67.1071 6.73787 68.0809 6.48947C68.8476 6.29361 69.569 6.43214 70.1714 6.98388C70.5405 7.32065 70.7309 7.7458 70.7143 8.25454C70.7143 8.28559 70.7143 8.31664 70.7143 8.3453C70.7143 8.39546 70.7143 8.448 70.7095 8.49816C70.7 8.60087 70.7428 8.64386 70.8404 8.65819C70.9714 8.67968 71.0928 8.72506 71.2119 8.78716C71.5904 8.99018 71.7952 9.30307 71.8119 9.73777C71.8119 9.75688 71.8119 9.7736 71.8119 9.79271L71.8047 9.79032ZM31.6643 0.39173C31.2024 0.45383 30.869 0.71656 30.6285 1.1011C30.1452 1.87496 30.2738 3.14562 31.3571 3.77618C31.4452 3.82633 31.5024 3.7929 31.5619 3.75468C31.5738 3.74752 31.5881 3.73796 31.6 3.7308C31.6952 3.68064 31.669 3.61376 31.6428 3.53972L31.6357 3.523C31.5547 3.2961 31.4595 3.06919 31.3976 2.83751C31.2143 2.14008 31.2119 1.45698 31.6095 0.819264C31.6928 0.68551 31.7881 0.556534 31.8833 0.415615C31.8333 0.398895 31.8071 0.384565 31.7809 0.384565C31.7405 0.384565 31.7 0.386953 31.6619 0.39173H31.6643ZM32.0119 0.888529C32.0643 0.781049 32.1166 0.668791 32.0952 0.513541C31.8524 0.735668 31.7143 0.988845 31.6119 1.26352C31.3238 2.03499 31.5524 2.75392 31.8357 3.46807C31.8809 3.58032 31.9643 3.5636 32.0262 3.49912C32.1214 3.40358 32.2333 3.34148 32.3762 3.28177C32.1666 2.99515 31.9309 2.75392 31.8428 2.41714C31.7119 1.91796 31.7714 1.43788 31.9738 0.967349C31.9857 0.941076 31.9976 0.917191 32.0095 0.890918L32.0119 0.888529ZM41.1262 2.26189L41.1239 2.25797C41.0508 2.13017 40.9743 1.99639 40.7881 1.95856C40.8547 2.35982 40.9024 2.74675 40.8405 3.14323C40.7452 3.76185 40.5309 4.33746 40.2452 4.89159C40.1714 5.08028 40.0619 5.23075 39.9881 5.31912C40.0309 5.38122 40.0762 5.44332 40.119 5.50542C40.2476 5.40749 40.3643 5.32629 40.4714 5.23314C40.9119 4.84382 41.269 4.40195 41.3571 3.7929C41.4333 3.25788 41.4 2.74197 41.1262 2.26189ZM40.369 2.65121C40.1762 3.33909 39.8333 3.8956 39.0952 4.1034C39.0833 4.10817 39.0762 4.13445 39.0547 4.17027C39.369 4.44972 39.6166 4.78888 39.8595 5.13521C39.9166 5.054 39.9809 4.93936 40.0428 4.82232C40.0857 4.72201 40.1285 4.62169 40.1714 4.52138C40.3119 4.1846 40.4547 3.85022 40.5476 3.49673C40.65 3.10024 40.6857 2.69898 40.6476 2.29056C40.6428 2.23801 40.6285 2.19024 40.5666 2.18307C40.5071 2.17591 40.4714 2.21174 40.4595 2.26667C40.4285 2.39326 40.4071 2.52462 40.3714 2.65121H40.369ZM28.9262 8.77761C28.8381 9.23381 28.7571 9.69478 28.7214 10.1581C28.7119 10.2656 28.7024 10.3731 28.6905 10.4806C28.6595 10.7768 28.6285 11.0729 28.6524 11.3715C28.7571 11.4001 28.8166 11.3595 28.8738 11.3237C28.8857 11.3165 28.8952 11.3094 28.9071 11.3022C29.169 11.1494 29.4095 10.9654 29.6857 10.8341C30.8214 10.2919 32.0405 10.1319 33.2762 10.0698C34.3619 10.0148 35.4309 10.1558 36.4881 10.4137C37.6881 10.7051 38.8024 11.1876 39.7928 11.9399C40.0166 12.1095 40.2357 12.2815 40.4524 12.4511C40.5047 12.4248 40.5166 12.3842 40.5214 12.3436C40.6524 11.5745 40.769 10.803 40.7547 10.0244C40.7309 8.64625 40.4809 7.30871 39.9119 6.04282C39.6643 5.49348 39.3238 5.00623 38.9143 4.56437C38.8285 4.47361 38.7571 4.4545 38.6571 4.53571C38.4666 4.69096 38.25 4.80083 38.0119 4.86054C37.2595 5.04684 36.5452 4.92264 35.8809 4.54048C35.5571 4.35418 35.3309 4.06757 35.1857 3.72124V3.71408C35.0762 3.45851 35.0738 3.45851 34.8047 3.47045C34.7547 3.47284 34.7047 3.47523 34.6524 3.48001C34.5714 3.48956 34.4881 3.49673 34.4071 3.50628C33.9381 3.55883 33.4666 3.60898 32.9952 3.60898C32.5547 3.60898 32.1714 3.76185 31.8119 4.00069C31.6 4.14161 31.4071 4.30164 31.2119 4.46405C31.05 4.59781 31.05 4.60497 31.1928 4.76261C31.619 5.23075 31.8 5.78248 31.7309 6.41065C31.6809 6.85251 31.5047 7.25616 31.2476 7.61204C30.7357 8.31903 30.0928 8.77522 29.1619 8.58892C29.0024 8.55787 28.9547 8.63191 28.9262 8.77761ZM63.3 10.4065C63.9 11.1828 64.6404 11.8086 65.4285 12.3794C65.8214 12.6636 66.2143 12.9455 66.6524 13.1557C66.8333 13.0028 66.9214 12.7831 67.0904 12.6397C67.3785 12.4009 67.3762 12.1573 67.2333 11.8229C66.9333 11.1183 66.7857 10.3707 66.8309 9.59924C66.85 9.2768 66.8714 8.95197 67.05 8.66296C67.2666 8.31186 67.6404 8.25215 67.95 8.52443C68.1047 8.66057 68.2024 8.83971 68.2833 9.02601C68.369 9.21948 68.4452 9.41772 68.5262 9.61357C68.5595 9.60163 68.5833 9.59924 68.5952 9.58491C69.0333 9.09766 69.55 8.74178 70.2119 8.64625C70.3 8.6343 70.3262 8.58176 70.3357 8.50294C70.3857 8.09451 70.3285 7.71475 70.0547 7.38753C69.619 6.86445 69.0476 6.69249 68.3976 6.77608C67.8881 6.84057 67.4262 7.05075 67 7.3302C66.419 7.71236 66.0047 8.24498 65.6833 8.85165C65.6404 8.93286 65.6 9.01646 65.5428 9.08333C65.4214 9.22903 65.2547 9.23619 65.1214 9.09766C65.0452 9.01884 64.9881 8.92092 64.9262 8.82777C64.6547 8.41218 64.4119 7.97986 64.0881 7.60249C63.8095 7.27527 63.4976 6.98865 63.1047 6.80952C62.7285 6.63755 62.4214 6.78325 62.3024 7.17734C62.2881 7.22511 62.2762 7.27527 62.269 7.32543C62.1976 7.73147 62.2357 8.13273 62.3309 8.52921C62.4976 9.23381 62.8643 9.83809 63.3 10.4018V10.4065ZM32.8 7.77685C32.6524 7.78401 32.4595 8.01091 32.4547 8.18527C32.45 8.37396 32.6333 8.5101 32.9095 8.51966C33.0595 8.52443 33.2357 8.34052 33.2357 8.17811C33.2357 8.00614 32.9762 7.76729 32.8024 7.77446L32.8 7.77685ZM37.0643 8.27365C36.8928 8.3453 36.8309 8.47905 36.8143 8.62953C36.7905 8.85882 36.9405 8.96391 37.1166 8.97824C37.4428 9.00451 37.8619 8.72745 37.4762 8.35724C37.3595 8.24498 37.2262 8.20438 37.0643 8.27365ZM71.1833 9.12632C71.0333 9.01407 70.8595 8.9663 70.6762 8.9448C70.1809 8.88987 69.7357 9.03079 69.3309 9.30785C69.1309 9.44399 68.9476 9.59924 68.7857 9.78793C68.5571 10.0554 68.4262 10.0316 68.2785 9.72105C68.1785 9.51087 68.0809 9.29829 67.9833 9.08811C67.9238 8.95675 67.8452 8.83971 67.7381 8.74417C67.6024 8.62236 67.4643 8.62953 67.3357 8.75611C67.2524 8.83732 67.219 8.94003 67.1833 9.04989C67.1 9.3174 67.1095 9.58969 67.0976 9.92168C67.1047 10.0363 67.1024 10.2083 67.1238 10.3803C67.2214 11.1302 67.4714 11.8348 67.7595 12.5275C67.7952 12.6159 67.85 12.623 67.9285 12.5991C68.4262 12.4367 68.9452 12.3436 69.4333 12.1429C70 11.9089 70.5285 11.6199 70.9405 11.1517C71.3 10.7433 71.5285 10.2823 71.5071 9.72105C71.4976 9.46787 71.3809 9.2768 71.1857 9.12871L71.1833 9.12632ZM62.3476 25.5756C62.3333 25.2628 62.3285 24.9451 62.3666 24.637C62.3714 24.6059 62.3738 24.5773 62.3785 24.551L62.3787 24.5499C62.4071 24.3455 62.4091 24.3311 62.2024 24.2214C61.7952 24.004 61.4524 23.715 61.1428 23.3735C60.2452 22.3751 60.1166 20.7701 60.85 19.6427C61.0857 19.2797 61.4024 19.048 61.8357 19.0169C62.0166 19.005 62.0214 18.9286 62.0071 18.7853C61.9547 18.3123 61.9095 17.837 61.8262 17.3689C61.7309 16.8315 61.6595 16.2869 61.4762 15.7686C61.4285 15.6373 61.3666 15.5871 61.2333 15.6182C61.1547 15.6373 61.0762 15.6516 60.9952 15.6635C59.8571 15.8403 58.9643 15.4151 58.319 14.4956C57.769 13.7098 57.7976 12.8404 58.1119 11.9662C58.1262 11.928 58.15 11.8898 58.1714 11.8539L58.174 11.8498C58.2183 11.7772 58.2613 11.7069 58.2309 11.6366C58.1809 11.5243 58.0309 11.4766 57.9166 11.4121C56.9238 10.8675 55.8476 10.6311 54.7333 10.5331C54.6071 10.5212 54.5285 10.5737 54.4428 10.6549C54.2405 10.8532 54.0333 11.049 53.8214 11.2329C53.0785 11.8778 52.2428 12.2433 51.2333 12.0689C50.3714 11.9184 49.7166 11.4742 49.3357 10.6717C49.2619 10.5188 49.1714 10.4973 49.0285 10.5045C48.9476 10.5092 48.8666 10.5116 48.7857 10.5164C48.4024 10.5331 48.0214 10.5522 47.6381 10.5522C46.6262 10.5522 45.6262 10.4209 44.6238 10.3182C43.4047 10.194 42.2881 9.78554 41.269 9.10483C41.2357 9.08333 41.2 9.06184 41.1619 9.10005C41.1405 9.17887 41.1547 9.2553 41.169 9.33173C41.1695 9.3348 41.17 9.33785 41.1705 9.34089C41.1772 9.38052 41.1835 9.41839 41.1857 9.45832C41.2428 10.6191 41.119 11.7632 40.8571 12.8929C40.8262 13.0267 40.8333 13.127 40.9333 13.2225C41.1024 13.3849 41.2404 13.5736 41.3643 13.7695C41.7024 14.3069 41.9119 14.8777 41.7833 15.5274C41.5524 16.6882 40.4762 17.5456 39.2928 17.4907C39.1024 17.4812 38.9976 17.5409 38.8976 17.6866C38.6262 18.0902 38.3214 18.4724 37.9524 18.79C37.9119 18.8259 37.8762 18.8617 37.8452 18.8951L37.9119 20.2327C37.9127 20.2389 37.9135 20.2451 37.9143 20.2513C37.9396 20.4504 37.9648 20.6473 37.9809 20.8465C38.1238 22.5327 38.2643 24.219 38.3595 25.9076C38.3738 26.1489 38.4024 26.3901 38.4238 26.6313C38.4333 26.734 38.469 26.8081 38.5928 26.789C38.9024 26.7364 39.219 26.7603 39.5285 26.7173C39.5809 26.7102 39.6381 26.7126 39.6976 26.7173C39.7005 26.7174 39.7034 26.7175 39.7063 26.7177C39.8297 26.7224 39.9536 26.7271 40.0071 26.6361C40.0619 26.5454 40.0476 26.4116 40.0333 26.2778C40.0285 26.2277 40.0214 26.1799 40.0214 26.1322C40.0166 26.039 40.0143 25.9459 40.0095 25.8503C39.9952 25.5494 39.9809 25.2484 39.9952 24.9475C40.0119 24.5868 40.1119 24.2692 40.419 24.0446C41.0143 23.6076 41.5476 23.7676 41.7024 24.4196C41.7166 24.4793 41.7333 24.5367 41.7428 24.5964C41.8166 25.0573 41.8381 25.5207 41.8524 25.9865C41.8547 26.0748 41.8547 26.1632 41.8524 26.2516C41.8524 26.4498 41.8524 26.6504 41.8833 26.8702C42.4428 26.7364 42.9833 26.6743 43.5309 26.6696C43.9905 26.6648 43.9928 26.6648 43.9119 26.2134C43.9095 26.1943 43.8976 26.1751 43.8952 26.1537C43.8714 25.9554 43.8452 25.7596 43.8166 25.5613C43.7357 24.9857 43.6571 24.4101 43.6833 23.8249C43.6833 23.7843 43.6833 23.7437 43.6833 23.7031C43.6809 23.6338 43.6785 23.5646 43.6905 23.4977C43.7047 22.6354 43.9428 22.1387 44.0976 21.9094C44.2619 21.5559 44.5262 21.2645 44.869 21.0304C45.4833 20.61 46.1214 20.5623 46.7762 20.9564C47.3047 21.274 47.6928 21.7087 47.9381 22.2796C48.1238 22.7095 48.2547 23.1561 48.3809 23.6028C48.4143 23.7198 48.4524 23.801 48.5952 23.813C48.9571 23.844 49.3166 23.9037 49.6809 23.9276C50.2952 23.9658 50.9119 23.9634 51.5262 24.0112C52.2571 24.0685 52.9881 24.0709 53.7214 24.0757C54.0595 24.0757 54.3952 24.0781 54.7333 24.0852C55.2666 24.0948 55.8047 24.09 56.3262 24.2333C56.7928 24.3623 57.1047 24.6513 57.2 25.1409C57.2357 25.3201 57.2666 25.4992 57.2809 25.6807C57.3071 26.0247 57.3214 26.3686 57.3333 26.7125C57.3381 26.8511 57.3881 26.9108 57.5309 26.9156C57.9047 26.9299 58.2785 26.9347 58.65 26.9705C58.9785 27.0016 58.9809 26.9872 58.9809 26.6504C58.9809 26.5143 58.9809 26.3782 58.9809 26.2444C58.9809 25.9554 58.9809 25.664 58.9857 25.375C58.9905 25.1314 59.0309 24.8902 59.1333 24.6656C59.2333 24.4459 59.4071 24.3504 59.6428 24.3599C59.8952 24.3719 60.0476 24.5271 60.15 24.7373C60.2571 24.957 60.3047 25.1959 60.3333 25.4395C60.3785 25.8432 60.3881 26.2492 60.3928 26.6528C60.3952 26.8869 60.4238 26.9108 60.6571 26.9132C60.7166 26.9132 60.7785 26.9132 60.8381 26.9132C61.2833 26.9132 61.7285 26.918 62.1714 26.8774C62.2785 26.8678 62.3309 26.8511 62.3381 26.7245C62.3595 26.3399 62.3666 25.9578 62.35 25.5733L62.3476 25.5756ZM33.7524 19.5472C34.5285 19.657 35.3047 19.6117 36.0619 19.4015C36.9381 19.1579 37.6238 18.6252 38.1928 17.9302C38.5976 17.4334 38.919 16.8888 39.1905 16.3084C39.6809 15.2623 40.0666 14.1779 40.3547 13.0577C40.3928 12.912 40.3738 12.8069 40.2714 12.709C40.2214 12.6612 40.1762 12.6039 40.1214 12.5585C39.3143 11.8874 38.4333 11.3404 37.4381 10.9941C35.4619 10.3062 33.4452 10.151 31.3857 10.5427C30.5619 10.6979 29.7857 10.9559 29.0809 11.4192C28.9881 11.4813 28.8905 11.5434 28.7809 11.5602C28.6476 11.5817 28.6285 11.6605 28.6309 11.7727C28.6309 11.916 28.6309 12.057 28.6309 12.2003C28.6309 12.26 28.6309 12.3197 28.6309 12.3794C28.6262 12.7233 28.6524 13.0673 28.6809 13.4112C28.7547 14.3141 28.9262 15.1954 29.2405 16.0457C29.5857 16.9772 30.1595 17.7463 30.9381 18.3649C31.7666 19.0241 32.7119 19.4015 33.7476 19.5472H33.7524ZM66.6976 14.4813C66.6905 14.7535 66.6881 15.0282 66.6785 15.3005C66.6738 15.482 66.6666 15.6611 66.6595 15.8427C66.6381 16.3872 66.619 16.9318 66.6524 17.474C66.8095 16.3968 67.0285 15.3387 67.3095 14.2926C67.3881 14.0012 67.4476 13.7026 67.4952 13.4041C67.5024 13.3611 67.5024 13.3157 67.5024 13.2703C67.5024 13.201 67.4071 13.2321 67.4047 13.1437C67.4047 13.084 67.4405 13.0267 67.4785 12.967C67.519 12.9025 67.5619 12.8356 67.5595 12.7592C67.5571 12.6732 67.519 12.6374 67.4524 12.709C67.2928 12.8786 67.1262 13.041 66.9738 13.2178C66.9666 13.2273 66.9571 13.2345 66.9476 13.2416L66.6833 13.5593C66.7047 13.6644 66.7928 13.7528 66.8309 13.8555L66.8381 13.877C66.8714 13.9606 66.9047 14.0513 66.8238 14.1039C66.6952 14.1875 66.6952 14.3021 66.6952 14.4192C66.6952 14.4383 66.6952 14.4598 66.6952 14.4813H66.6976ZM31.1333 13.8173C31.3047 13.7552 31.5024 13.6931 31.5285 13.4853C31.5571 13.2799 31.3976 13.158 31.2357 13.0649C31.0166 12.9407 30.7714 12.9359 30.5333 12.9335C30.3809 12.9335 30.3071 13.0458 30.3119 13.201C30.3238 13.4805 30.6762 13.8268 30.9643 13.8316C30.9785 13.8316 30.9952 13.8316 31.0119 13.8316C31.0524 13.8316 31.0952 13.8316 31.1333 13.8149V13.8173ZM37.8047 13.9032C37.9452 13.8626 38.0381 13.7504 38.0476 13.588C38.0571 13.4256 37.9762 13.3181 37.8404 13.2464C37.5643 13.1007 36.5762 13.053 36.6024 13.5569C36.6143 13.8053 36.8738 14.0394 37.1095 14.0251C37.3452 14.0131 37.5785 13.9701 37.8047 13.9032ZM67.2762 22.9245C67.9 23.6171 68.8381 23.7246 69.6595 23.3568C70.069 23.1729 70.3976 22.8695 70.7738 22.5638C70.5262 22.4229 70.3309 22.2652 70.1357 22.11C70.019 22.0168 69.9024 21.9189 69.7619 21.8568C68.869 21.4627 67.9643 21.372 67.0309 21.7207C66.9143 21.7637 66.8857 21.8162 66.8857 21.9356C66.8833 22.3226 67.0238 22.645 67.2762 22.9245ZM66.3952 21.821C66.3095 21.9643 66.2714 22.1124 66.3762 22.2772C66.5595 22.196 66.5881 22.0455 66.5928 21.8807C66.5928 21.8258 66.5881 21.778 66.5238 21.7684C66.4714 21.7589 66.4238 21.7732 66.3952 21.8234V21.821Z" fill="#0A0A0A"/>
<path d="M62.3476 25.5756C62.3333 25.2628 62.3285 24.9451 62.3666 24.637C62.3714 24.6059 62.3738 24.5773 62.3785 24.551L62.3787 24.5499C62.4071 24.3455 62.4091 24.3311 62.2024 24.2214C61.7952 24.004 61.4524 23.715 61.1428 23.3735C60.2452 22.3751 60.1166 20.7701 60.85 19.6427C61.0857 19.2797 61.4024 19.048 61.8357 19.0169C62.0166 19.005 62.0214 18.9286 62.0071 18.7853C61.9547 18.3123 61.9095 17.837 61.8262 17.3689C61.7309 16.8315 61.6595 16.2869 61.4762 15.7686C61.4285 15.6373 61.3666 15.5871 61.2333 15.6182C61.1547 15.6373 61.0762 15.6516 60.9952 15.6635C59.8571 15.8403 58.9643 15.4151 58.319 14.4956C57.769 13.7098 57.7976 12.8404 58.1119 11.9662C58.1262 11.928 58.15 11.8898 58.1714 11.8539L58.174 11.8498C58.2183 11.7772 58.2613 11.7069 58.2309 11.6366C58.1809 11.5243 58.0309 11.4766 57.9166 11.4121C56.9238 10.8675 55.8476 10.6311 54.7333 10.5331C54.6071 10.5212 54.5285 10.5737 54.4428 10.6549C54.2405 10.8532 54.0333 11.049 53.8214 11.2329C53.0785 11.8778 52.2428 12.2433 51.2333 12.0689C50.3714 11.9184 49.7166 11.4742 49.3357 10.6717C49.2619 10.5188 49.1714 10.4973 49.0285 10.5045C48.9476 10.5092 48.8666 10.5116 48.7857 10.5164C48.4024 10.5331 48.0214 10.5522 47.6381 10.5522C46.6262 10.5522 45.6262 10.4209 44.6238 10.3182C43.4047 10.194 42.2881 9.78554 41.269 9.10483C41.2357 9.08333 41.2 9.06184 41.1619 9.10005C41.1405 9.17887 41.1547 9.2553 41.169 9.33173L41.1705 9.34089C41.1772 9.38052 41.1835 9.41839 41.1857 9.45832C41.2428 10.6191 41.119 11.7632 40.8571 12.8929C40.8262 13.0267 40.8333 13.127 40.9333 13.2225C41.1024 13.3849 41.2404 13.5736 41.3643 13.7695C41.7024 14.3069 41.9119 14.8777 41.7833 15.5274C41.5524 16.6882 40.4762 17.5456 39.2928 17.4907C39.1024 17.4812 38.9976 17.5409 38.8976 17.6866C38.6262 18.0902 38.3214 18.4724 37.9524 18.79C37.9119 18.8259 37.8762 18.8617 37.8452 18.8951L37.9119 20.2327L37.9143 20.2513C37.9396 20.4504 37.9648 20.6473 37.9809 20.8465C38.1238 22.5327 38.2643 24.219 38.3595 25.9076C38.3738 26.1489 38.4024 26.3901 38.4238 26.6313C38.4333 26.734 38.469 26.8081 38.5928 26.789C38.9024 26.7364 39.219 26.7603 39.5285 26.7173C39.5809 26.7102 39.6381 26.7126 39.6976 26.7173L39.7063 26.7177C39.8297 26.7224 39.9536 26.7271 40.0071 26.6361C40.0619 26.5454 40.0476 26.4116 40.0333 26.2778C40.0285 26.2277 40.0214 26.1799 40.0214 26.1322C40.0166 26.039 40.0143 25.9459 40.0095 25.8503C39.9952 25.5494 39.9809 25.2484 39.9952 24.9475C40.0119 24.5868 40.1119 24.2692 40.419 24.0446C41.0143 23.6076 41.5476 23.7676 41.7024 24.4196C41.7166 24.4793 41.7333 24.5367 41.7428 24.5964C41.8166 25.0573 41.8381 25.5207 41.8524 25.9865C41.8547 26.0748 41.8547 26.1632 41.8524 26.2516C41.8524 26.4498 41.8524 26.6504 41.8833 26.8702C42.4428 26.7364 42.9833 26.6743 43.5309 26.6696C43.9905 26.6648 43.9928 26.6648 43.9119 26.2134C43.9095 26.1943 43.8976 26.1751 43.8952 26.1537C43.8714 25.9554 43.8452 25.7596 43.8166 25.5613C43.7357 24.9857 43.6571 24.4101 43.6833 23.8249V23.7031C43.6809 23.6338 43.6785 23.5646 43.6905 23.4977C43.7047 22.6354 43.9428 22.1387 44.0976 21.9094C44.2619 21.5559 44.5262 21.2645 44.869 21.0304C45.4833 20.61 46.1214 20.5623 46.7762 20.9564C47.3047 21.274 47.6928 21.7087 47.9381 22.2796C48.1238 22.7095 48.2547 23.1561 48.3809 23.6028C48.4143 23.7198 48.4524 23.801 48.5952 23.813C48.9571 23.844 49.3166 23.9037 49.6809 23.9276C50.2952 23.9658 50.9119 23.9634 51.5262 24.0112C52.2571 24.0685 52.9881 24.0709 53.7214 24.0757C54.0595 24.0757 54.3952 24.0781 54.7333 24.0852C55.2666 24.0948 55.8047 24.09 56.3262 24.2333C56.7928 24.3623 57.1047 24.6513 57.2 25.1409C57.2357 25.3201 57.2666 25.4992 57.2809 25.6807C57.3071 26.0247 57.3214 26.3686 57.3333 26.7125C57.3381 26.8511 57.3881 26.9108 57.5309 26.9156C57.9047 26.9299 58.2785 26.9347 58.65 26.9705C58.9785 27.0016 58.9809 26.9872 58.9809 26.6504V26.2444C58.9809 25.9554 58.9809 25.664 58.9857 25.375C58.9905 25.1314 59.0309 24.8902 59.1333 24.6656C59.2333 24.4459 59.4071 24.3504 59.6428 24.3599C59.8952 24.3719 60.0476 24.5271 60.15 24.7373C60.2571 24.957 60.3047 25.1959 60.3333 25.4395C60.3785 25.8432 60.3881 26.2492 60.3928 26.6528C60.3952 26.8869 60.4238 26.9108 60.6571 26.9132H60.8381C61.2833 26.9132 61.7285 26.918 62.1714 26.8774C62.2785 26.8678 62.3309 26.8511 62.3381 26.7245C62.3595 26.3399 62.3666 25.9578 62.35 25.5733L62.3476 25.5756Z" fill="#FDFDFF"/>
<path fill-rule="evenodd" clip-rule="evenodd" d="M33.7524 19.5472C34.5285 19.657 35.3047 19.6117 36.0619 19.4015C36.9381 19.1579 37.6238 18.6252 38.1928 17.9302C38.5976 17.4334 38.919 16.8888 39.1905 16.3084C39.6809 15.2623 40.0666 14.1779 40.3547 13.0577C40.3928 12.912 40.3738 12.8069 40.2714 12.709C40.2214 12.6612 40.1762 12.6039 40.1214 12.5585C39.3143 11.8874 38.4333 11.3404 37.4381 10.9941C35.4619 10.3062 33.4452 10.151 31.3857 10.5427C30.5619 10.6979 29.7857 10.9559 29.0809 11.4192C28.9881 11.4813 28.8905 11.5434 28.7809 11.5602C28.6476 11.5817 28.6285 11.6605 28.6309 11.7727V12.2003V12.3794C28.6262 12.7233 28.6524 13.0673 28.6809 13.4112C28.7547 14.3141 28.9262 15.1954 29.2405 16.0457C29.5857 16.9772 30.1595 17.7463 30.9381 18.3649C31.7666 19.0241 32.7119 19.4015 33.7476 19.5472H33.7524ZM31.5285 13.4853C31.5024 13.6931 31.3047 13.7552 31.1333 13.8173V13.8149C31.0952 13.8316 31.0524 13.8316 31.0119 13.8316H30.9643C30.6762 13.8268 30.3238 13.4805 30.3119 13.201C30.3071 13.0458 30.3809 12.9335 30.5333 12.9335C30.7714 12.9359 31.0166 12.9407 31.2357 13.0649C31.3976 13.158 31.5571 13.2799 31.5285 13.4853ZM38.0476 13.588C38.0381 13.7504 37.9452 13.8626 37.8047 13.9032C37.5785 13.9701 37.3452 14.0131 37.1095 14.0251C36.8738 14.0394 36.6143 13.8053 36.6024 13.5569C36.5762 13.053 37.5643 13.1007 37.8404 13.2464C37.9762 13.3181 38.0571 13.4256 38.0476 13.588Z" fill="#FDFDFF"/>
<path fill-rule="evenodd" clip-rule="evenodd" d="M28.9262 8.77761C28.8381 9.23381 28.7571 9.69478 28.7214 10.1581C28.7119 10.2656 28.7024 10.3731 28.6905 10.4806C28.6595 10.7768 28.6285 11.0729 28.6524 11.3715C28.7571 11.4001 28.8166 11.3595 28.8738 11.3237C28.8857 11.3165 28.8952 11.3094 28.9071 11.3022C29.169 11.1494 29.4095 10.9654 29.6857 10.8341C30.8214 10.2919 32.0405 10.1319 33.2762 10.0698C34.3619 10.0148 35.4309 10.1558 36.4881 10.4137C37.6881 10.7051 38.8024 11.1876 39.7928 11.9399C40.0166 12.1095 40.2357 12.2815 40.4524 12.4511C40.5047 12.4248 40.5166 12.3842 40.5214 12.3436C40.6524 11.5745 40.769 10.803 40.7547 10.0244C40.7309 8.64625 40.4809 7.30871 39.9119 6.04282C39.6643 5.49348 39.3238 5.00623 38.9143 4.56437C38.8285 4.47361 38.7571 4.4545 38.6571 4.53571C38.4666 4.69096 38.25 4.80083 38.0119 4.86054C37.2595 5.04684 36.5452 4.92264 35.8809 4.54048C35.5571 4.35418 35.3309 4.06757 35.1857 3.72124V3.71408C35.0762 3.45851 35.0738 3.45851 34.8047 3.47045C34.7547 3.47284 34.7047 3.47523 34.6524 3.48001C34.5714 3.48956 34.4881 3.49673 34.4071 3.50628C33.9381 3.55883 33.4666 3.60898 32.9952 3.60898C32.5547 3.60898 32.1714 3.76185 31.8119 4.00069C31.6 4.14161 31.4071 4.30164 31.2119 4.46405C31.05 4.59781 31.05 4.60497 31.1928 4.76261C31.619 5.23075 31.8 5.78248 31.7309 6.41065C31.6809 6.85251 31.5047 7.25616 31.2476 7.61204C30.7357 8.31903 30.0928 8.77522 29.1619 8.58892C29.0024 8.55787 28.9547 8.63191 28.9262 8.77761ZM32.4547 8.18527C32.4595 8.01091 32.6524 7.78401 32.8 7.77685L32.8024 7.77446C32.9762 7.76729 33.2357 8.00614 33.2357 8.17811C33.2357 8.34052 33.0595 8.52443 32.9095 8.51966C32.6333 8.5101 32.45 8.37396 32.4547 8.18527ZM36.8143 8.62953C36.8309 8.47905 36.8928 8.3453 37.0643 8.27365C37.2262 8.20438 37.3595 8.24498 37.4762 8.35724C37.8619 8.72745 37.4428 9.00451 37.1166 8.97824C36.9405 8.96391 36.7905 8.85882 36.8143 8.62953Z" fill="#FDFDFF"/>
<path d="M31.6643 0.39173C31.2024 0.45383 30.869 0.71656 30.6285 1.1011C30.1452 1.87496 30.2738 3.14562 31.3571 3.77618C31.4452 3.82633 31.5024 3.7929 31.5619 3.75468C31.5738 3.74752 31.5881 3.73796 31.6 3.7308C31.6952 3.68064 31.669 3.61376 31.6428 3.53972L31.6357 3.523C31.5547 3.2961 31.4595 3.06919 31.3976 2.83751C31.2143 2.14008 31.2119 1.45698 31.6095 0.819264C31.6928 0.68551 31.7881 0.556534 31.8833 0.415615C31.8333 0.398895 31.8071 0.384565 31.7809 0.384565C31.7405 0.384565 31.7 0.386953 31.6619 0.39173H31.6643Z" fill="#0A0A0A"/>
<path d="M32.0119 0.888529C32.0643 0.781049 32.1166 0.668791 32.0952 0.513541C31.8524 0.735668 31.7143 0.988845 31.6119 1.26352C31.3238 2.03499 31.5524 2.75392 31.8357 3.46807C31.8809 3.58032 31.9643 3.5636 32.0262 3.49912C32.1214 3.40358 32.2333 3.34148 32.3762 3.28177C32.1666 2.99515 31.9309 2.75392 31.8428 2.41714C31.7119 1.91796 31.7714 1.43788 31.9738 0.967349C31.9857 0.941076 31.9976 0.917191 32.0095 0.890918L32.0119 0.888529Z" fill="#0A0A0A"/>
<path d="M40.369 2.65121C40.1762 3.33909 39.8333 3.8956 39.0952 4.1034C39.0833 4.10817 39.0762 4.13445 39.0547 4.17027C39.369 4.44972 39.6166 4.78888 39.8595 5.13521C39.9166 5.054 39.9809 4.93936 40.0428 4.82232L40.1714 4.52138C40.3119 4.1846 40.4547 3.85022 40.5476 3.49673C40.65 3.10024 40.6857 2.69898 40.6476 2.29056C40.6428 2.23801 40.6285 2.19024 40.5666 2.18307C40.5071 2.17591 40.4714 2.21174 40.4595 2.26667C40.4285 2.39326 40.4071 2.52462 40.3714 2.65121H40.369Z" fill="#0A0A0A"/>
<path d="M41.1262 2.26189L41.1239 2.25797C41.0508 2.13017 40.9743 1.99639 40.7881 1.95856C40.8547 2.35982 40.9024 2.74675 40.8405 3.14323C40.7452 3.76185 40.5309 4.33746 40.2452 4.89159C40.1714 5.08028 40.0619 5.23075 39.9881 5.31912C40.0309 5.38122 40.0762 5.44332 40.119 5.50542C40.2476 5.40749 40.3643 5.32629 40.4714 5.23314C40.9119 4.84382 41.269 4.40195 41.3571 3.7929C41.4333 3.25788 41.4 2.74197 41.1262 2.26189Z" fill="#0A0A0A"/>
</g>
<defs>
<clipPath id="clip0_451_687">
<rect width="100" height="50" fill="white"/>
</clipPath>
</defs>
</svg>
