<svg width="24" height="24" viewBox="0 0 24 24" fill="none" xmlns="http://www.w3.org/2000/svg">
<path d="M4.56208 8.42032C4.56225 7.57199 4.77708 6.7381 5.18572 5.99958C5.59435 5.26107 6.18292 4.64301 6.8943 4.20538C7.60569 3.76775 8.41572 3.52542 9.24581 3.50189C10.0759 3.47837 10.8978 3.67445 11.6319 4.07112C12.3659 4.46779 12.9871 5.05156 13.4352 5.7658C13.8833 6.48003 14.143 7.30047 14.1892 8.1475C14.2354 8.99452 14.0665 9.83936 13.6989 10.6C13.3313 11.3607 12.7774 12.0114 12.0911 12.4889C13.5691 13.0428 14.8511 14.0358 15.7721 15.3402C16.693 16.6446 17.2108 18.2008 17.2588 19.8083C17.2567 19.9816 17.1892 20.1475 17.0703 20.2711C16.9514 20.3948 16.7903 20.4667 16.6208 20.4719C16.4512 20.4771 16.2862 20.4152 16.1602 20.299C16.0343 20.1829 15.9572 20.0215 15.945 19.8486C15.8928 18.1051 15.1782 16.4508 13.9525 15.2363C12.7268 14.0219 11.0864 13.3427 9.37895 13.3427C7.67148 13.3427 6.03109 14.0219 4.80542 15.2363C3.57975 16.4508 2.86511 18.1051 2.81296 19.8486C2.80419 20.0238 2.72859 20.1886 2.60236 20.3076C2.47613 20.4265 2.30931 20.4903 2.13763 20.4851C1.96596 20.48 1.80308 20.4064 1.6839 20.28C1.56472 20.1537 1.49871 19.9847 1.50002 19.8092C1.5478 18.2015 2.06549 16.6452 2.98645 15.3406C3.90742 14.036 5.1895 13.0428 6.66768 12.4889C6.01851 12.0376 5.48726 11.431 5.12025 10.7218C4.75324 10.0126 4.56161 9.2225 4.56208 8.42032ZM9.37939 4.84116C8.4502 4.84116 7.55908 5.21825 6.90204 5.88947C6.24501 6.5607 5.87589 7.47107 5.87589 8.42032C5.87589 9.36958 6.24501 10.28 6.90204 10.9512C7.55908 11.6224 8.4502 11.9995 9.37939 11.9995C10.3086 11.9995 11.1997 11.6224 11.8567 10.9512C12.5138 10.28 12.8829 9.36958 12.8829 8.42032C12.8829 7.47107 12.5138 6.5607 11.8567 5.88947C11.1997 5.21825 10.3086 4.84116 9.37939 4.84116ZM16.6404 8.42032C16.5108 8.42032 16.3846 8.42927 16.2603 8.44717C16.1734 8.46305 16.0844 8.46091 15.9983 8.44086C15.9123 8.42081 15.8312 8.38327 15.7597 8.33047C15.6882 8.27768 15.6278 8.21072 15.5822 8.13358C15.5366 8.05644 15.5067 7.9707 15.4942 7.88149C15.4817 7.79227 15.4869 7.7014 15.5096 7.6143C15.5322 7.5272 15.5718 7.44565 15.626 7.37452C15.6802 7.30338 15.7478 7.24413 15.8249 7.20028C15.9019 7.15643 15.9869 7.12889 16.0746 7.1193C16.9457 6.99063 17.834 7.16153 18.5996 7.6051C19.3652 8.04867 19.9648 8.73973 20.3038 9.56953C20.6429 10.3993 20.7023 11.3207 20.4726 12.1888C20.2429 13.0568 19.7372 13.8222 19.035 14.3644C20.0672 14.8365 20.9435 15.6037 21.5583 16.5733C22.1731 17.543 22.5002 18.6736 22.5 19.8289C22.5 20.0069 22.4308 20.1776 22.3076 20.3034C22.1844 20.4293 22.0173 20.5 21.8431 20.5C21.6689 20.5 21.5018 20.4293 21.3786 20.3034C21.2554 20.1776 21.1862 20.0069 21.1862 19.8289C21.1861 18.8305 20.8712 17.8586 20.2881 17.0573C19.705 16.256 18.8848 15.6678 17.949 15.38L17.4812 15.2368V13.7372L17.8403 13.5502C18.3727 13.2747 18.7986 12.824 19.0493 12.2708C19.3001 11.7177 19.361 11.0943 19.2223 10.5014C19.0836 9.90848 18.7534 9.38062 18.2849 9.00304C17.8165 8.62545 17.2371 8.42016 16.6404 8.42032Z" fill="#B1A016"/>
</svg>
