<svg width="22" height="26" viewBox="0 0 22 26" fill="none" xmlns="http://www.w3.org/2000/svg">
<path d="M3.56208 9.42032C3.56225 8.57199 3.77708 7.7381 4.18572 6.99958C4.59435 6.26107 5.18292 5.64301 5.8943 5.20538C6.60569 4.76775 7.41572 4.52542 8.24581 4.50189C9.07589 4.47837 9.89784 4.67445 10.6319 5.07112C11.3659 5.46779 11.9871 6.05156 12.4352 6.7658C12.8833 7.48003 13.143 8.30047 13.1892 9.1475C13.2354 9.99452 13.0665 10.8394 12.6989 11.6C12.3313 12.3607 11.7774 13.0114 11.0911 13.4889C12.5691 14.0428 13.8511 15.0358 14.7721 16.3402C15.693 17.6446 16.2108 19.2008 16.2588 20.8083C16.2567 20.9816 16.1892 21.1475 16.0703 21.2711C15.9514 21.3948 15.7903 21.4667 15.6208 21.4719C15.4512 21.4771 15.2862 21.4152 15.1602 21.299C15.0343 21.1829 14.9572 21.0215 14.945 20.8486C14.8928 19.1051 14.1782 17.4508 12.9525 16.2363C11.7268 15.0219 10.0864 14.3427 8.37895 14.3427C6.67148 14.3427 5.03109 15.0219 3.80542 16.2363C2.57975 17.4508 1.86511 19.1051 1.81296 20.8486C1.80419 21.0238 1.72859 21.1886 1.60236 21.3076C1.47613 21.4265 1.30931 21.4903 1.13763 21.4851C0.965957 21.48 0.803082 21.4064 0.683901 21.28C0.56472 21.1537 0.498713 20.9847 0.500019 20.8092C0.547799 19.2015 1.06549 17.6452 1.98645 16.3406C2.90742 15.036 4.1895 14.0428 5.66768 13.4889C5.01851 13.0376 4.48726 12.431 4.12025 11.7218C3.75324 11.0126 3.56161 10.2225 3.56208 9.42032ZM8.37939 5.84116C7.4502 5.84116 6.55908 6.21825 5.90204 6.88947C5.24501 7.5607 4.87589 8.47107 4.87589 9.42032C4.87589 10.3696 5.24501 11.28 5.90204 11.9512C6.55908 12.6224 7.4502 12.9995 8.37939 12.9995C9.30858 12.9995 10.1997 12.6224 10.8567 11.9512C11.5138 11.28 11.8829 10.3696 11.8829 9.42032C11.8829 8.47107 11.5138 7.5607 10.8567 6.88947C10.1997 6.21825 9.30858 5.84116 8.37939 5.84116ZM15.6404 9.42032C15.5108 9.42032 15.3846 9.42927 15.2603 9.44717C15.1734 9.46305 15.0844 9.46091 14.9983 9.44086C14.9123 9.42081 14.8312 9.38327 14.7597 9.33047C14.6882 9.27768 14.6278 9.21072 14.5822 9.13358C14.5366 9.05644 14.5067 8.9707 14.4942 8.88149C14.4817 8.79227 14.4869 8.7014 14.5096 8.6143C14.5322 8.5272 14.5718 8.44565 14.626 8.37452C14.6802 8.30338 14.7478 8.24413 14.8249 8.20028C14.9019 8.15643 14.9869 8.12889 15.0746 8.1193C15.9457 7.99063 16.834 8.16153 17.5996 8.6051C18.3652 9.04867 18.9648 9.73973 19.3038 10.5695C19.6429 11.3993 19.7023 12.3207 19.4726 13.1888C19.2429 14.0568 18.7372 14.8222 18.035 15.3644C19.0672 15.8365 19.9435 16.6037 20.5583 17.5733C21.1731 18.543 21.5002 19.6736 21.5 20.8289C21.5 21.0069 21.4308 21.1776 21.3076 21.3034C21.1844 21.4293 21.0173 21.5 20.8431 21.5C20.6689 21.5 20.5018 21.4293 20.3786 21.3034C20.2554 21.1776 20.1862 21.0069 20.1862 20.8289C20.1861 19.8305 19.8712 18.8586 19.2881 18.0573C18.705 17.256 17.8848 16.6678 16.949 16.38L16.4812 16.2368V14.7372L16.8403 14.5502C17.3727 14.2747 17.7986 13.824 18.0493 13.2708C18.3001 12.7177 18.361 12.0943 18.2223 11.5014C18.0836 10.9085 17.7534 10.3806 17.2849 10.003C16.8165 9.62545 16.2371 9.42016 15.6404 9.42032Z" fill="#FEE41F"/>
</svg>
