<svg width="24" height="24" viewBox="0 0 24 24" fill="none" xmlns="http://www.w3.org/2000/svg">
<path d="M12 2C17.523 2 22 6.477 22 12C22 17.523 17.523 22 12 22C6.477 22 2 17.523 2 12C2 6.477 6.477 2 12 2ZM12 3.395C9.71781 3.395 7.5291 4.3016 5.91535 5.91535C4.3016 7.5291 3.395 9.71781 3.395 12C3.395 14.2822 4.3016 16.4709 5.91535 18.0847C7.5291 19.6984 9.71781 20.605 12 20.605C14.2822 20.605 16.4709 19.6984 18.0847 18.0847C19.6984 16.4709 20.605 14.2822 20.605 12C20.605 9.71781 19.6984 7.5291 18.0847 5.91535C16.4709 4.3016 14.2822 3.395 12 3.395ZM11.07 7.581C11.455 7.581 11.767 7.894 11.767 8.279V13.163H16.651C16.8314 13.1698 17.0022 13.2463 17.1274 13.3764C17.2526 13.5064 17.3226 13.68 17.3226 13.8605C17.3226 14.041 17.2526 14.2146 17.1274 14.3446C17.0022 14.4747 16.8314 14.5512 16.651 14.558H11.07C10.8849 14.558 10.7073 14.4845 10.5764 14.3536C10.4455 14.2227 10.372 14.0451 10.372 13.86V8.28C10.372 7.894 10.684 7.581 11.07 7.581Z" fill="#B1A016"/>
</svg>
