<svg width="40" height="40" viewBox="0 0 40 40" fill="none" xmlns="http://www.w3.org/2000/svg">
<g filter="url(#filter0_b_3828_12243)">
<rect width="40" height="40" rx="20" fill="#0A0A0A" fill-opacity="0.2"/>
<path fill-rule="evenodd" clip-rule="evenodd" d="M22.5333 8.88892C22.9997 8.88904 23.4543 9.0359 23.8326 9.3087C24.2109 9.5815 24.4937 9.96642 24.6411 10.4089L25.2444 12.2222H28.8889C29.1836 12.2222 29.4662 12.3393 29.6746 12.5477C29.8829 12.7561 30 13.0387 30 13.3334C30 13.628 29.8829 13.9107 29.6746 14.119C29.4662 14.3274 29.1836 14.4445 28.8889 14.4445L28.8856 14.5234L27.9222 28.0156C27.8621 28.8563 27.4858 29.643 26.8689 30.2173C26.2521 30.7917 25.4406 31.111 24.5978 31.1111H15.4022C14.5594 31.111 13.7479 30.7917 13.1311 30.2173C12.5143 29.643 12.1379 28.8563 12.0778 28.0156L11.1144 14.5222C11.1124 14.4964 11.1113 14.4704 11.1111 14.4445C10.8164 14.4445 10.5338 14.3274 10.3254 14.119C10.1171 13.9107 10 13.628 10 13.3334C10 13.0387 10.1171 12.7561 10.3254 12.5477C10.5338 12.3393 10.8164 12.2222 11.1111 12.2222H14.7556L15.3589 10.4089C15.5063 9.96624 15.7894 9.5812 16.1679 9.30838C16.5464 9.03556 17.0012 8.8888 17.4678 8.88892H22.5333ZM16.6667 17.7778C16.3945 17.7778 16.1318 17.8778 15.9285 18.0586C15.7251 18.2394 15.5952 18.4886 15.5633 18.7589L15.5556 18.8889V25.5556C15.5559 25.8388 15.6643 26.1112 15.8587 26.3171C16.0531 26.523 16.3188 26.647 16.6016 26.6635C16.8843 26.6801 17.1626 26.5882 17.3798 26.4064C17.597 26.2246 17.7366 25.9668 17.77 25.6856L17.7778 25.5556V18.8889C17.7778 18.5942 17.6607 18.3116 17.4523 18.1032C17.244 17.8949 16.9614 17.7778 16.6667 17.7778ZM23.3333 17.7778C23.0386 17.7778 22.756 17.8949 22.5477 18.1032C22.3393 18.3116 22.2222 18.5942 22.2222 18.8889V25.5556C22.2222 25.8503 22.3393 26.1329 22.5477 26.3413C22.756 26.5496 23.0386 26.6667 23.3333 26.6667C23.628 26.6667 23.9106 26.5496 24.119 26.3413C24.3274 26.1329 24.4444 25.8503 24.4444 25.5556V18.8889C24.4444 18.5942 24.3274 18.3116 24.119 18.1032C23.9106 17.8949 23.628 17.7778 23.3333 17.7778ZM22.5333 11.1111H17.4667L17.0967 12.2222H22.9033L22.5333 11.1111Z" fill="#FDFDFF"/>
</g>
<defs>
<filter id="filter0_b_3828_12243" x="-4" y="-4" width="48" height="48" filterUnits="userSpaceOnUse" color-interpolation-filters="sRGB">
<feFlood flood-opacity="0" result="BackgroundImageFix"/>
<feGaussianBlur in="BackgroundImageFix" stdDeviation="2"/>
<feComposite in2="SourceAlpha" operator="in" result="effect1_backgroundBlur_3828_12243"/>
<feBlend mode="normal" in="SourceGraphic" in2="effect1_backgroundBlur_3828_12243" result="shape"/>
</filter>
</defs>
</svg>
