<svg width="40" height="60" viewBox="0 0 40 60" fill="none" xmlns="http://www.w3.org/2000/svg">
<path d="M23.75 19C23.75 18.0054 23.3549 17.0516 22.6516 16.3483C21.9484 15.6451 20.9946 15.25 20 15.25C19.0054 15.25 18.0516 15.6451 17.3483 16.3483C16.6451 17.0516 16.25 18.0054 16.25 19C16.25 19.9946 16.6451 20.9484 17.3483 21.6516C18.0516 22.3549 19.0054 22.75 20 22.75C20.9946 22.75 21.9484 22.3549 22.6516 21.6516C23.3549 20.9484 23.75 19.9946 23.75 19ZM35 19C35 26.185 27.2575 34.04 22.8975 37.895C22.1003 38.6069 21.0688 39.0005 20 39.0005C18.9312 39.0005 17.8997 38.6069 17.1025 37.895C12.7425 34.04 5 26.185 5 19C5 17.0302 5.38799 15.0796 6.14181 13.2597C6.89563 11.4399 8.00052 9.78628 9.3934 8.3934C10.7863 7.00052 12.4399 5.89563 14.2597 5.14181C16.0796 4.38799 18.0302 4 20 4C21.9698 4 23.9204 4.38799 25.7403 5.14181C27.5601 5.89563 29.2137 7.00052 30.6066 8.3934C31.9995 9.78628 33.1044 11.4399 33.8582 13.2597C34.612 15.0796 35 17.0302 35 19ZM32.5 19C32.5 15.6848 31.183 12.5054 28.8388 10.1612C26.4946 7.81696 23.3152 6.5 20 6.5C16.6848 6.5 13.5054 7.81696 11.1612 10.1612C8.81696 12.5054 7.5 15.6848 7.5 19C7.5 21.77 9.0375 24.9875 11.425 28.2075C13.76 31.3525 16.6425 34.15 18.7575 36.0225C19.0978 36.331 19.5407 36.5018 20 36.5018C20.4593 36.5018 20.9022 36.331 21.2425 36.0225C23.3575 34.15 26.2425 31.355 28.575 28.2075C30.9625 24.9875 32.5 21.77 32.5 19Z" fill="#0A0A0A"/>
<path fill-rule="evenodd" clip-rule="evenodd" d="M32.5 19C32.5 15.6848 31.183 12.5054 28.8388 10.1612C26.4946 7.81696 23.3152 6.5 20 6.5C16.6848 6.5 13.5054 7.81696 11.1612 10.1612C8.81696 12.5054 7.5 15.6848 7.5 19C7.5 21.77 9.0375 24.9875 11.425 28.2075C13.76 31.3525 16.6425 34.15 18.7575 36.0225C19.0978 36.331 19.5407 36.5018 20 36.5018C20.4593 36.5018 20.9022 36.331 21.2425 36.0225C23.3575 34.15 26.2425 31.355 28.575 28.2075C30.9625 24.9875 32.5 21.77 32.5 19ZM22.6516 16.3483C23.3549 17.0516 23.75 18.0054 23.75 19C23.75 19.9946 23.3549 20.9484 22.6516 21.6516C21.9484 22.3549 20.9946 22.75 20 22.75C19.0054 22.75 18.0516 22.3549 17.3483 21.6516C16.6451 20.9484 16.25 19.9946 16.25 19C16.25 18.0054 16.6451 17.0516 17.3483 16.3483C18.0516 15.6451 19.0054 15.25 20 15.25C20.9946 15.25 21.9484 15.6451 22.6516 16.3483Z" fill="#FEE41F"/>
<g opacity="0.5" filter="url(#filter0_f_5627_13484)">
<ellipse cx="20" cy="54" rx="12" ry="2" fill="#4D4D4D"/>
</g>
<defs>
<filter id="filter0_f_5627_13484" x="5" y="49" width="30" height="10" filterUnits="userSpaceOnUse" color-interpolation-filters="sRGB">
<feFlood flood-opacity="0" result="BackgroundImageFix"/>
<feBlend mode="normal" in="SourceGraphic" in2="BackgroundImageFix" result="shape"/>
<feGaussianBlur stdDeviation="1.5" result="effect1_foregroundBlur_5627_13484"/>
</filter>
</defs>
</svg>
