<svg width="79" height="54" viewBox="0 0 79 54" fill="none" xmlns="http://www.w3.org/2000/svg">
<path fill-rule="evenodd" clip-rule="evenodd" d="M6.34325 0.708609C5.49582 0.82254 4.88427 1.30456 4.44308 2.01006C3.55633 3.42982 3.79221 5.76103 5.77975 6.91788C5.94137 7.0099 6.04621 6.94855 6.15541 6.87844C6.17725 6.8653 6.20347 6.84777 6.22531 6.83462C6.40003 6.7426 6.35198 6.6199 6.30393 6.48406L6.29083 6.45339C6.14231 6.0371 5.96758 5.62081 5.85401 5.19576C5.51765 3.91622 5.51329 2.66297 6.24278 1.49298C6.39566 1.24759 6.5704 1.01097 6.74512 0.752429C6.65339 0.721755 6.60534 0.695463 6.55729 0.695463C6.48303 0.695463 6.40877 0.699845 6.33888 0.708609H6.34325ZM6.981 1.62006C7.07711 1.42287 7.17321 1.21692 7.1339 0.93209C6.68834 1.33961 6.43498 1.8041 6.24715 2.30803C5.7186 3.72341 6.13795 5.04239 6.65776 6.3526C6.74076 6.55856 6.89364 6.52788 7.00721 6.40957C7.18194 6.23429 7.38725 6.12036 7.64934 6.01081C7.26494 5.48497 6.83249 5.04239 6.67087 4.42453C6.43061 3.5087 6.53981 2.62792 6.91111 1.76467C6.93295 1.71646 6.9548 1.67264 6.97664 1.62444L6.981 1.62006ZM23.7025 4.1397L23.6984 4.1325C23.5642 3.89803 23.4238 3.65259 23.0822 3.58319C23.2045 4.31936 23.2919 5.02924 23.1783 5.75665C23.0036 6.89159 22.6105 7.94764 22.0863 8.96426C21.9509 9.31044 21.7499 9.58651 21.6145 9.74864C21.6931 9.86257 21.7761 9.9765 21.8548 10.0904C22.0906 9.91077 22.3047 9.76179 22.5013 9.59089C23.3094 8.87663 23.9646 8.06596 24.1262 6.94855C24.266 5.96699 24.2049 5.02048 23.7025 4.1397ZM22.3134 4.85396C21.9596 6.11598 21.3306 7.13698 19.9764 7.51821C19.9546 7.52697 19.9415 7.57518 19.9022 7.64091C20.4788 8.1536 20.9331 8.77584 21.3786 9.41123C21.4835 9.26224 21.6014 9.0519 21.715 8.83719C21.7936 8.65314 21.8722 8.4691 21.9509 8.28506C22.2086 7.6672 22.4707 7.05372 22.641 6.40519C22.8289 5.67778 22.8944 4.9416 22.8245 4.19229C22.8158 4.09588 22.7896 4.00824 22.676 3.9951C22.5668 3.98195 22.5013 4.04768 22.4794 4.14847C22.4226 4.38071 22.3833 4.62172 22.3178 4.85396H22.3134ZM1.31981 16.0938C1.15818 16.9307 1.00966 17.7764 0.94414 18.6265C0.926667 18.8237 0.909195 19.0209 0.887354 19.2181C0.830568 19.7615 0.773779 20.3048 0.817461 20.8526C1.00966 20.9052 1.11887 20.8307 1.22371 20.7649C1.24555 20.7518 1.26302 20.7387 1.28486 20.7255C1.76537 20.4451 2.20655 20.1076 2.71327 19.8666C4.7969 18.8719 7.03342 18.5783 9.30052 18.4644C11.2924 18.3636 13.2538 18.6222 15.1932 19.0954C17.3948 19.63 19.4391 20.5152 21.2563 21.8955C21.6669 22.2066 22.0688 22.5221 22.4663 22.8332C22.5624 22.785 22.5843 22.7105 22.593 22.6361C22.8332 21.2251 23.0473 19.8097 23.0211 18.3811C22.9774 15.8527 22.5187 13.3988 21.4747 11.0764C21.0204 10.0685 20.3958 9.1746 19.6444 8.36393C19.4872 8.19742 19.3561 8.16236 19.1727 8.31135C18.8232 8.59618 18.4257 8.79775 17.9889 8.9073C16.6085 9.24909 15.2981 9.02123 14.0793 8.32011C13.4853 7.97832 13.0703 7.45248 12.8038 6.81709V6.80395C12.6029 6.33508 12.5985 6.33507 12.1049 6.35698C12.0132 6.36137 11.9214 6.36575 11.8253 6.37451C11.6768 6.39204 11.5239 6.40519 11.3754 6.42272C10.5149 6.51912 9.64998 6.61114 8.78508 6.61114C7.97696 6.61114 7.27368 6.89159 6.61408 7.32978C6.22531 7.58832 5.87148 7.88192 5.51329 8.17989C5.21625 8.42528 5.21625 8.43843 5.47834 8.72764C6.26025 9.58651 6.59224 10.5987 6.46556 11.7512C6.37383 12.5619 6.05058 13.3024 5.57881 13.9553C4.63965 15.2524 3.46023 16.0894 1.75226 15.7476C1.45959 15.6906 1.37222 15.8264 1.31981 16.0938ZM8.42688 14.2577C8.15605 14.2708 7.80223 14.6871 7.79349 15.007C7.78476 15.3532 8.12111 15.603 8.62782 15.6205C8.90302 15.6293 9.22626 15.2918 9.22626 14.9939C9.22626 14.6784 8.75013 14.2402 8.43125 14.2533L8.42688 14.2577ZM16.2503 15.1692C15.9358 15.3006 15.8223 15.546 15.7917 15.8221C15.748 16.2427 16.0232 16.4355 16.3464 16.4618C16.9449 16.51 17.7137 16.0017 17.006 15.3225C16.792 15.1166 16.5474 15.0421 16.2503 15.1692ZM62.6364 46.9122C62.6101 46.3382 62.6014 45.7554 62.6713 45.1901C62.68 45.1332 62.6844 45.0806 62.6931 45.0324L62.6934 45.0304C62.7456 44.6554 62.7493 44.6289 62.3699 44.4277C61.6229 44.0289 60.9939 43.4987 60.426 42.872C58.7792 41.0404 58.5434 38.0957 59.8888 36.0274C60.3212 35.3613 60.9022 34.9363 61.6972 34.8793C62.0292 34.8574 62.0379 34.7172 62.0117 34.4543C61.9156 33.5866 61.8326 32.7146 61.6797 31.8557C61.505 30.8698 61.374 29.8707 61.0376 28.9198C60.9502 28.6788 60.8367 28.5868 60.592 28.6438C60.4479 28.6788 60.3037 28.7051 60.1552 28.727C58.0672 29.0513 56.4291 28.2713 55.2454 26.5842C54.2363 25.1425 54.2887 23.5475 54.8653 21.9437C54.8915 21.8736 54.9352 21.8035 54.9745 21.7377L54.9792 21.7301C55.0606 21.597 55.1395 21.468 55.0837 21.339C54.992 21.133 54.7168 21.0454 54.5071 20.9271C52.6856 19.928 50.7112 19.4942 48.6668 19.3145C48.4353 19.2926 48.2912 19.389 48.1339 19.538C47.7626 19.9017 47.3826 20.261 46.9938 20.5984C45.6309 21.7816 44.0977 22.452 42.2456 22.1321C40.6643 21.8561 39.463 21.041 38.7641 19.5687C38.6287 19.2882 38.4627 19.2488 38.2006 19.2619C38.0521 19.2707 37.9036 19.2751 37.755 19.2838C37.0518 19.3145 36.3529 19.3496 35.6496 19.3496C33.7931 19.3496 31.9584 19.1086 30.1194 18.9201C27.8829 18.6923 25.8342 17.9429 23.9646 16.6941C23.9035 16.6546 23.8379 16.6152 23.768 16.6853C23.7287 16.8299 23.7549 16.9701 23.7811 17.1104C23.7821 17.116 23.783 17.1216 23.7839 17.1272C23.7961 17.1999 23.8077 17.2694 23.8117 17.3426C23.9166 19.4723 23.6894 21.5712 23.2089 23.6439C23.1521 23.8893 23.1652 24.0733 23.3487 24.2486C23.6588 24.5466 23.9122 24.8928 24.1393 25.2521C24.7596 26.238 25.144 27.2853 24.9081 28.4772C24.4844 30.6069 22.51 32.18 20.339 32.0792C19.9895 32.0617 19.7973 32.1712 19.6139 32.4385C19.1159 33.1791 18.5568 33.8802 17.8797 34.463C17.8054 34.5288 17.7399 34.5945 17.6831 34.6558L17.8054 37.1097C17.8069 37.1211 17.8083 37.1325 17.8098 37.1439C17.8564 37.5091 17.9025 37.8705 17.9321 38.2359C18.1942 41.3296 18.4519 44.4233 18.6267 47.5213C18.6529 47.9639 18.7053 48.4065 18.7446 48.8491C18.7621 49.0375 18.8276 49.1733 19.0547 49.1383C19.6226 49.0419 20.2036 49.0857 20.7714 49.0068C20.8675 48.9937 20.9724 48.9981 21.0816 49.0068C21.0869 49.007 21.0922 49.0072 21.0976 49.0074C21.3239 49.0161 21.5513 49.0248 21.6495 48.8578C21.7499 48.6913 21.7237 48.4459 21.6975 48.2005C21.6888 48.1085 21.6757 48.0209 21.6757 47.9332C21.6669 47.7623 21.6626 47.5914 21.6538 47.4162C21.6276 46.864 21.6014 46.3119 21.6276 45.7598C21.6582 45.0981 21.8417 44.5153 22.4052 44.1034C23.4972 43.3015 24.4757 43.5951 24.7596 44.7914C24.7858 44.9009 24.8164 45.0061 24.8339 45.1156C24.9693 45.9613 25.0086 46.8115 25.0348 47.6659C25.0392 47.8281 25.0392 47.9902 25.0348 48.1523C25.0348 48.516 25.0348 48.8841 25.0916 49.2873C26.1181 49.0419 27.1097 48.9279 28.1144 48.9192C28.9575 48.9104 28.9618 48.9104 28.8133 48.0822C28.8089 48.0472 28.7871 48.0121 28.7827 47.9727C28.7391 47.609 28.691 47.2496 28.6386 46.8859C28.4901 45.8299 28.3459 44.7738 28.394 43.7002C28.394 43.6258 28.394 43.5513 28.394 43.4768C28.3896 43.3497 28.3852 43.2226 28.4071 43.0999C28.4333 41.518 28.8701 40.6066 29.154 40.1859C29.4555 39.5374 29.9403 39.0028 30.5693 38.5733C31.6963 37.8021 32.867 37.7145 34.0683 38.4375C35.038 39.0203 35.75 39.8178 36.2 40.8651C36.5407 41.6539 36.7809 42.4733 37.0124 43.2927C37.0736 43.5074 37.1435 43.6564 37.4056 43.6783C38.0696 43.7353 38.7292 43.8449 39.3975 43.8887C40.5245 43.9588 41.6559 43.9544 42.7829 44.042C44.0685 44.1429 45.3541 44.1511 46.6436 44.1593C46.6992 44.1596 46.7547 44.16 46.8103 44.1604C47.4306 44.1604 48.0465 44.1647 48.6668 44.1779C49.6453 44.1954 50.6325 44.1866 51.5892 44.4496C52.4453 44.6862 53.0176 45.2164 53.1923 46.1147C53.2578 46.4434 53.3146 46.772 53.3408 47.105C53.3889 47.736 53.4151 48.3671 53.4369 48.9981C53.4457 49.2522 53.5374 49.3618 53.7995 49.3705C54.4853 49.3968 55.1711 49.4056 55.8525 49.4713C56.4554 49.5283 56.4597 49.502 56.4597 48.8841C56.4597 48.6344 56.4597 48.3846 56.4597 48.1392C56.4597 47.609 56.4597 47.0744 56.4685 46.5441C56.4772 46.0972 56.5514 45.6546 56.7393 45.2427C56.9227 44.8396 57.2416 44.6643 57.6741 44.6818C58.1371 44.7037 58.4167 44.9885 58.6045 45.3742C58.8011 45.7773 58.8884 46.2155 58.9409 46.6625C59.0239 47.403 59.0413 48.148 59.0501 48.8885C59.0544 49.3179 59.1068 49.3618 59.5349 49.3661C59.6441 49.3661 59.7577 49.3661 59.8669 49.3661C60.6838 49.3661 61.5006 49.3749 62.3131 49.3004C62.5097 49.2829 62.6058 49.2522 62.6189 49.02C62.6582 48.3145 62.6713 47.6134 62.6407 46.9079L62.6364 46.9122ZM10.1742 35.8521C11.5982 36.0537 13.0222 35.9704 14.4113 35.5848C16.0188 35.1379 17.2769 34.1607 18.3209 32.8855C19.0635 31.9741 19.6532 30.975 20.1512 29.9101C21.051 27.9908 21.7587 26.0014 22.2872 23.9463C22.3571 23.679 22.3222 23.4862 22.1343 23.3065C22.0426 23.2189 21.9596 23.1137 21.8591 23.0304C20.3783 21.7991 18.7621 20.7956 16.9362 20.1602C13.3105 18.8982 9.61067 18.6134 5.83217 19.332C4.32077 19.6169 2.89673 20.0901 1.60374 20.9402C1.43338 21.0542 1.25428 21.1681 1.05335 21.1988C0.808725 21.2382 0.773781 21.3828 0.778149 21.5888C0.778149 21.8517 0.778149 22.1102 0.778149 22.3731C0.778149 22.4827 0.778149 22.5922 0.778149 22.7018C0.769413 23.3328 0.817462 23.9638 0.869881 24.5948C1.0053 26.2512 1.31981 27.8681 1.89641 29.4281C2.5298 31.1371 3.58254 32.5481 5.01095 33.683C6.53108 34.8925 8.26526 35.5848 10.1654 35.8521H10.1742ZM5.36913 25.3397C5.68365 25.2258 6.04621 25.1119 6.09426 24.7306C6.14668 24.3538 5.85401 24.1303 5.55697 23.9594C5.1551 23.7315 4.70517 23.7228 4.26835 23.7184C3.98879 23.7184 3.85337 23.9244 3.8621 24.2092C3.88394 24.7219 4.53044 25.3573 5.059 25.366C5.08521 25.366 5.11578 25.366 5.14636 25.366C5.22062 25.366 5.29924 25.366 5.36913 25.3354V25.3397ZM17.6089 25.4975C17.8666 25.423 18.0369 25.217 18.0544 24.9191C18.0719 24.6211 17.9234 24.4239 17.6744 24.2924C17.1677 24.0251 15.3549 23.9375 15.4029 24.8621C15.4248 25.3178 15.9009 25.7473 16.3333 25.721C16.7658 25.6991 17.1939 25.6202 17.6089 25.4975ZM71.6786 42.0482C72.823 43.319 74.5441 43.5162 76.0511 42.8414C76.8025 42.504 77.4053 41.9475 78.0955 41.3866C77.659 41.1382 77.3113 40.8615 76.967 40.5876C76.9529 40.5764 76.9389 40.5652 76.9248 40.554C76.7107 40.3831 76.4967 40.2034 76.239 40.0895C74.6009 39.3665 72.941 39.1999 71.2286 39.8397C71.0146 39.9186 70.9622 40.015 70.9622 40.2341C70.9578 40.944 71.2155 41.5355 71.6786 42.0482ZM70.0623 40.0238C69.9051 40.2867 69.8352 40.5584 70.0274 40.8607C70.3637 40.7117 70.4161 40.4357 70.4249 40.1333C70.4249 40.0325 70.4161 39.9449 70.2982 39.9274C70.2021 39.9098 70.1147 39.9361 70.0623 40.0281V40.0238Z" fill="#0A0A0A"/>
<path d="M62.6364 46.9122C62.6101 46.3382 62.6014 45.7554 62.6713 45.1901C62.68 45.1332 62.6844 45.0806 62.6931 45.0324L62.6934 45.0304C62.7456 44.6554 62.7493 44.6289 62.3699 44.4277C61.6229 44.0289 60.9939 43.4987 60.426 42.872C58.7792 41.0404 58.5434 38.0957 59.8888 36.0274C60.3212 35.3613 60.9022 34.9363 61.6972 34.8793C62.0292 34.8574 62.0379 34.7172 62.0117 34.4543C61.9156 33.5866 61.8326 32.7146 61.6797 31.8557C61.505 30.8698 61.374 29.8707 61.0376 28.9198C60.9502 28.6788 60.8367 28.5868 60.592 28.6438C60.4479 28.6788 60.3037 28.7051 60.1552 28.727C58.0672 29.0513 56.4291 28.2713 55.2454 26.5842C54.2363 25.1425 54.2887 23.5475 54.8653 21.9437C54.8915 21.8736 54.9352 21.8035 54.9745 21.7377L54.9792 21.7301C55.0606 21.597 55.1395 21.468 55.0837 21.339C54.992 21.133 54.7168 21.0454 54.5071 20.9271C52.6856 19.928 50.7112 19.4942 48.6668 19.3145C48.4353 19.2926 48.2912 19.389 48.1339 19.538C47.7626 19.9017 47.3826 20.261 46.9938 20.5984C45.6309 21.7816 44.0977 22.452 42.2456 22.1321C40.6643 21.8561 39.463 21.041 38.7641 19.5687C38.6287 19.2882 38.4627 19.2488 38.2006 19.2619C38.0521 19.2707 37.9036 19.2751 37.755 19.2838C37.0518 19.3145 36.3529 19.3496 35.6496 19.3496C33.7931 19.3496 31.9584 19.1086 30.1194 18.9201C27.8829 18.6923 25.8342 17.9429 23.9646 16.6941C23.9035 16.6546 23.8379 16.6152 23.768 16.6853C23.7287 16.8299 23.7549 16.9701 23.7811 17.1104L23.7839 17.1272C23.7961 17.1999 23.8077 17.2694 23.8117 17.3426C23.9166 19.4723 23.6894 21.5712 23.2089 23.6439C23.1521 23.8893 23.1652 24.0733 23.3487 24.2486C23.6588 24.5466 23.9122 24.8928 24.1393 25.2521C24.7596 26.238 25.144 27.2853 24.9081 28.4772C24.4844 30.6069 22.51 32.18 20.339 32.0792C19.9895 32.0617 19.7973 32.1712 19.6139 32.4385C19.1159 33.1791 18.5568 33.8802 17.8797 34.463C17.8054 34.5288 17.7399 34.5945 17.6831 34.6558L17.8054 37.1097L17.8098 37.1439C17.8564 37.5091 17.9025 37.8705 17.9321 38.2359C18.1942 41.3296 18.4519 44.4233 18.6267 47.5213C18.6529 47.9639 18.7053 48.4065 18.7446 48.8491C18.7621 49.0375 18.8276 49.1733 19.0547 49.1383C19.6226 49.0419 20.2036 49.0857 20.7714 49.0068C20.8675 48.9937 20.9724 48.9981 21.0816 49.0068L21.0976 49.0074C21.3239 49.0161 21.5513 49.0248 21.6495 48.8578C21.7499 48.6913 21.7237 48.4459 21.6975 48.2005C21.6888 48.1085 21.6757 48.0209 21.6757 47.9332C21.6669 47.7623 21.6626 47.5914 21.6538 47.4162C21.6276 46.864 21.6014 46.3119 21.6276 45.7598C21.6582 45.0981 21.8417 44.5153 22.4052 44.1034C23.4972 43.3015 24.4757 43.5951 24.7596 44.7914C24.7858 44.9009 24.8164 45.0061 24.8339 45.1156C24.9693 45.9613 25.0086 46.8115 25.0348 47.6659C25.0392 47.8281 25.0392 47.9902 25.0348 48.1523C25.0348 48.516 25.0348 48.8841 25.0916 49.2873C26.1181 49.0419 27.1097 48.9279 28.1144 48.9192C28.9575 48.9104 28.9618 48.9104 28.8133 48.0822C28.8089 48.0472 28.7871 48.0121 28.7827 47.9727C28.7391 47.609 28.691 47.2496 28.6386 46.8859C28.4901 45.8299 28.3459 44.7738 28.394 43.7002V43.4768C28.3896 43.3497 28.3852 43.2226 28.4071 43.0999C28.4333 41.518 28.8701 40.6066 29.154 40.1859C29.4555 39.5374 29.9403 39.0028 30.5693 38.5733C31.6963 37.8021 32.867 37.7145 34.0683 38.4375C35.038 39.0203 35.75 39.8178 36.2 40.8651C36.5407 41.6539 36.7809 42.4733 37.0124 43.2927C37.0736 43.5074 37.1435 43.6564 37.4056 43.6783C38.0696 43.7353 38.7292 43.8449 39.3975 43.8887C40.5245 43.9588 41.6559 43.9544 42.7829 44.042C44.0685 44.1429 45.3541 44.1511 46.6436 44.1593C46.6992 44.1596 46.7547 44.16 46.8103 44.1604C47.4306 44.1604 48.0465 44.1647 48.6668 44.1779C49.6453 44.1954 50.6325 44.1866 51.5892 44.4496C52.4453 44.6862 53.0176 45.2164 53.1923 46.1147C53.2578 46.4434 53.3146 46.772 53.3408 47.105C53.3889 47.736 53.4151 48.3671 53.4369 48.9981C53.4457 49.2522 53.5374 49.3618 53.7995 49.3705C54.4853 49.3968 55.1711 49.4056 55.8525 49.4713C56.4554 49.5283 56.4597 49.502 56.4597 48.8841V48.1392C56.4597 47.609 56.4597 47.0744 56.4685 46.5441C56.4772 46.0972 56.5514 45.6546 56.7393 45.2427C56.9227 44.8396 57.2416 44.6643 57.6741 44.6818C58.1371 44.7037 58.4167 44.9885 58.6045 45.3742C58.8011 45.7773 58.8884 46.2155 58.9409 46.6625C59.0239 47.403 59.0413 48.148 59.0501 48.8885C59.0544 49.3179 59.1068 49.3618 59.5349 49.3661H59.8669C60.6838 49.3661 61.5006 49.3749 62.3131 49.3004C62.5097 49.2829 62.6058 49.2522 62.6189 49.02C62.6582 48.3145 62.6713 47.6134 62.6407 46.9079L62.6364 46.9122Z" fill="#FDFDFF"/>
<path fill-rule="evenodd" clip-rule="evenodd" d="M10.1742 35.8521C11.5982 36.0537 13.0222 35.9704 14.4113 35.5848C16.0188 35.1379 17.2769 34.1607 18.3209 32.8855C19.0635 31.9741 19.6532 30.975 20.1512 29.9101C21.051 27.9908 21.7587 26.0014 22.2872 23.9463C22.3571 23.679 22.3222 23.4862 22.1343 23.3065C22.0426 23.2189 21.9596 23.1137 21.8591 23.0304C20.3783 21.7991 18.7621 20.7956 16.9362 20.1602C13.3105 18.8982 9.61067 18.6134 5.83217 19.332C4.32077 19.6169 2.89673 20.0901 1.60374 20.9402C1.43338 21.0542 1.25428 21.1681 1.05335 21.1988C0.808725 21.2382 0.773781 21.3828 0.778149 21.5888V22.3731V22.7018C0.769413 23.3328 0.817462 23.9638 0.869881 24.5948C1.0053 26.2512 1.31981 27.8681 1.89641 29.4281C2.5298 31.1371 3.58254 32.5481 5.01095 33.683C6.53108 34.8925 8.26526 35.5848 10.1654 35.8521H10.1742ZM6.09426 24.7306C6.04621 25.1119 5.68365 25.2258 5.36913 25.3397V25.3354C5.29924 25.366 5.22062 25.366 5.14636 25.366H5.059C4.53044 25.3573 3.88394 24.7219 3.8621 24.2092C3.85337 23.9244 3.98879 23.7184 4.26835 23.7184C4.70517 23.7228 5.1551 23.7315 5.55697 23.9594C5.85401 24.1303 6.14668 24.3538 6.09426 24.7306ZM18.0544 24.9191C18.0369 25.217 17.8666 25.423 17.6089 25.4975C17.1939 25.6202 16.7658 25.6991 16.3333 25.721C15.9009 25.7473 15.4248 25.3178 15.4029 24.8621C15.3549 23.9375 17.1677 24.0251 17.6744 24.2924C17.9234 24.4239 18.0719 24.6211 18.0544 24.9191Z" fill="#FDFDFF"/>
<path fill-rule="evenodd" clip-rule="evenodd" d="M1.31981 16.0938C1.15818 16.9307 1.00966 17.7764 0.94414 18.6265C0.926667 18.8237 0.909195 19.0209 0.887354 19.2181C0.830568 19.7615 0.773779 20.3048 0.817461 20.8526C1.00966 20.9052 1.11887 20.8307 1.22371 20.7649C1.24555 20.7518 1.26302 20.7387 1.28486 20.7255C1.76537 20.4451 2.20655 20.1076 2.71327 19.8666C4.7969 18.8719 7.03342 18.5783 9.30052 18.4644C11.2924 18.3636 13.2538 18.6222 15.1932 19.0954C17.3948 19.63 19.4391 20.5152 21.2563 21.8955C21.6669 22.2066 22.0688 22.5221 22.4663 22.8332C22.5624 22.785 22.5843 22.7105 22.593 22.6361C22.8332 21.2251 23.0473 19.8097 23.0211 18.3811C22.9774 15.8527 22.5187 13.3988 21.4747 11.0764C21.0204 10.0685 20.3958 9.1746 19.6444 8.36393C19.4872 8.19742 19.3561 8.16236 19.1727 8.31135C18.8232 8.59618 18.4257 8.79775 17.9889 8.9073C16.6085 9.24909 15.2981 9.02123 14.0793 8.32011C13.4853 7.97832 13.0703 7.45248 12.8038 6.81709V6.80395C12.6029 6.33508 12.5985 6.33507 12.1049 6.35698C12.0132 6.36137 11.9214 6.36575 11.8253 6.37451C11.6768 6.39204 11.5239 6.40519 11.3754 6.42272C10.5149 6.51912 9.64998 6.61114 8.78508 6.61114C7.97696 6.61114 7.27368 6.89159 6.61408 7.32978C6.22531 7.58832 5.87148 7.88192 5.51329 8.17989C5.21625 8.42528 5.21625 8.43843 5.47834 8.72764C6.26025 9.58651 6.59224 10.5987 6.46556 11.7512C6.37383 12.5619 6.05058 13.3024 5.57881 13.9553C4.63965 15.2524 3.46023 16.0894 1.75226 15.7476C1.45959 15.6906 1.37222 15.8264 1.31981 16.0938ZM7.79349 15.007C7.80223 14.6871 8.15605 14.2708 8.42688 14.2577L8.43125 14.2533C8.75013 14.2402 9.22626 14.6784 9.22626 14.9939C9.22626 15.2918 8.90302 15.6293 8.62782 15.6205C8.12111 15.603 7.78476 15.3532 7.79349 15.007ZM15.7917 15.8221C15.8223 15.546 15.9358 15.3006 16.2503 15.1692C16.5474 15.0421 16.792 15.1166 17.006 15.3225C17.7137 16.0017 16.9449 16.51 16.3464 16.4618C16.0232 16.4355 15.748 16.2427 15.7917 15.8221Z" fill="#FDFDFF"/>
<path d="M6.34325 0.708609C5.49582 0.82254 4.88427 1.30456 4.44308 2.01006C3.55633 3.42982 3.79221 5.76103 5.77975 6.91788C5.94137 7.0099 6.04621 6.94855 6.15541 6.87844C6.17725 6.8653 6.20347 6.84777 6.22531 6.83462C6.40003 6.7426 6.35198 6.6199 6.30393 6.48406L6.29083 6.45339C6.14231 6.0371 5.96758 5.62081 5.85401 5.19576C5.51765 3.91622 5.51329 2.66297 6.24278 1.49298C6.39566 1.24759 6.5704 1.01097 6.74512 0.752429C6.65339 0.721755 6.60534 0.695463 6.55729 0.695463C6.48303 0.695463 6.40877 0.699845 6.33888 0.708609H6.34325Z" fill="#0A0A0A"/>
<path d="M6.981 1.62006C7.07711 1.42287 7.17321 1.21692 7.1339 0.93209C6.68834 1.33961 6.43498 1.8041 6.24715 2.30803C5.7186 3.72341 6.13795 5.04239 6.65776 6.3526C6.74076 6.55856 6.89364 6.52788 7.00721 6.40957C7.18194 6.23429 7.38725 6.12036 7.64934 6.01081C7.26494 5.48497 6.83249 5.04239 6.67087 4.42453C6.43061 3.5087 6.53981 2.62792 6.91111 1.76467C6.93295 1.71646 6.9548 1.67264 6.97664 1.62444L6.981 1.62006Z" fill="#0A0A0A"/>
<path d="M22.3134 4.85396C21.9596 6.11598 21.3306 7.13698 19.9764 7.51821C19.9546 7.52697 19.9415 7.57518 19.9022 7.64091C20.4788 8.1536 20.9331 8.77584 21.3786 9.41123C21.4835 9.26224 21.6014 9.0519 21.715 8.83719L21.9509 8.28506C22.2086 7.6672 22.4707 7.05372 22.641 6.40519C22.8289 5.67778 22.8944 4.9416 22.8245 4.19229C22.8158 4.09588 22.7896 4.00824 22.676 3.9951C22.5668 3.98195 22.5013 4.04768 22.4794 4.14847C22.4226 4.38071 22.3833 4.62172 22.3178 4.85396H22.3134Z" fill="#0A0A0A"/>
<path d="M23.7025 4.1397L23.6984 4.1325C23.5642 3.89803 23.4238 3.65259 23.0822 3.58319C23.2045 4.31936 23.2919 5.02924 23.1783 5.75665C23.0036 6.89159 22.6105 7.94764 22.0863 8.96426C21.9509 9.31044 21.7499 9.58651 21.6145 9.74864C21.6931 9.86257 21.7761 9.9765 21.8548 10.0904C22.0906 9.91077 22.3047 9.76179 22.5013 9.59089C23.3094 8.87663 23.9646 8.06596 24.1262 6.94855C24.266 5.96699 24.2049 5.02048 23.7025 4.1397Z" fill="#0A0A0A"/>
<path fill-rule="evenodd" clip-rule="evenodd" d="M71.2417 39.1956C72.2421 38.6434 73.3123 38.7004 74.3869 38.8056C75.6798 38.937 76.8068 39.4585 77.7766 40.3261C78.0387 40.5627 78.3357 40.7424 78.6633 40.8914C79.0827 41.0842 79.1045 41.334 78.7507 41.6407C78.1042 42.1972 77.5232 42.837 76.7675 43.2489C75.16 44.1209 73.5525 44.2086 71.9843 43.1569C71.2898 42.6924 70.7962 42.0482 70.5079 41.2069C69.9051 41.5049 69.643 41.3866 69.4814 40.8081C69.4202 40.5803 69.4115 40.3656 69.5163 40.1552C69.6255 39.9317 69.5775 39.8353 69.3154 39.7871C67.4501 39.4366 66.1135 38.3455 65.1306 36.7548C64.2788 35.3701 63.6978 33.8627 63.1081 32.3597C62.9465 31.9478 62.7892 31.5315 62.5228 31.0933C62.4922 31.5402 62.5577 31.9127 62.6233 32.2852C62.798 33.2361 62.8329 34.2045 62.929 35.1641C63.047 36.3473 63.1518 37.5304 63.2523 38.7135C63.4183 40.7117 63.5799 42.7143 63.5974 44.7212V44.8352C63.6629 46.3689 63.6629 48.7045 63.2304 50.4266C63.2042 50.58 63.1824 50.7333 63.1518 50.8867C63.0688 51.2898 62.9203 51.6667 62.7237 52.0304C62.4005 52.6307 61.92 52.9243 61.2385 52.9156C59.6616 52.898 58.5608 51.8332 58.3599 50.1593C58.2201 49.0112 58.2725 47.8544 58.1458 46.7107C58.1109 46.3776 58.0759 46.0446 57.9318 45.7379C57.8663 45.6064 57.792 45.4618 57.6086 45.4749C57.4218 45.488 57.3862 45.6398 57.3514 45.788L57.3508 45.7904C57.2373 46.2506 57.2329 46.715 57.2329 47.1839V47.3943V48.0647L57.2329 48.124C57.233 48.9938 57.2331 49.8634 57.0494 50.7246C56.9053 51.3862 56.7131 52.0173 56.2195 52.5168C55.6865 53.0558 55.0663 53.2267 54.3411 52.9988C54.1795 52.9506 54.0223 52.898 53.865 52.8367C53.3277 52.6351 52.9914 52.2758 52.8472 51.6886C52.7119 51.1373 52.6994 50.5819 52.6868 50.0263L52.6856 49.9709C52.6856 49.826 52.6815 49.6853 52.6772 49.5407L52.6768 49.5283C52.6419 48.5292 52.6594 47.5257 52.4846 46.531C52.3449 45.7554 52.0609 45.2909 51.0082 45.1332C49.9379 44.9706 48.8635 44.9793 47.7889 44.9879L47.7102 44.9885C47.4612 44.9885 47.2079 44.9929 46.9589 44.9929C45.7008 44.9929 44.4471 44.9666 43.1935 44.879C42.2325 44.8133 41.2715 44.7957 40.3104 44.7563C38.6767 44.695 37.0692 44.4408 35.4574 44.2042C33.4829 43.915 31.5172 43.5644 29.5472 43.2445C29.189 43.1876 29.1759 43.2095 29.1671 43.5644C29.1366 44.9228 29.3331 46.2593 29.5341 47.5958C29.5515 47.7098 29.569 47.8237 29.5865 47.942C29.7219 48.871 29.7525 49.8 29.5428 50.7158C29.3462 51.5703 28.9269 52.3065 28.0358 52.565C27.0704 52.8454 26.1269 52.6877 25.2751 52.1312C24.7596 51.7938 24.5456 51.2504 24.4233 50.6764C24.3446 50.2951 24.2922 49.9095 24.2835 49.5151C24.266 48.5862 24.2398 47.6572 24.2005 46.7282C24.1786 46.2637 24.1262 45.7992 24.0607 45.3391C24.0301 45.12 23.934 44.9141 23.8598 44.7037C23.7855 44.489 23.6195 44.4145 23.4186 44.4846C22.9599 44.6424 22.5842 44.8965 22.51 45.4311V45.4487L22.5086 45.4581C22.4698 45.7265 22.4315 45.9908 22.4445 46.2637C22.4882 47.3417 22.5362 48.4153 22.5711 49.4932V49.5108C22.593 50.2469 22.6148 50.9875 22.3003 51.6886C22.012 52.3284 21.4398 52.6745 20.7409 52.6001C19.4479 52.4598 18.5131 51.6404 18.2291 50.4266C18.0064 49.4626 17.9321 48.481 17.8579 47.4994C17.7399 45.8868 17.6351 44.2787 17.5259 42.6661C17.4036 40.9045 17.373 39.1386 17.207 37.377C17.1895 37.2105 17.172 37.044 17.1502 36.8775L17.1494 36.8705C17.0885 36.3602 17.0281 35.8542 17.0803 35.3526C16.9442 35.28 16.866 35.328 16.7894 35.3751L16.7833 35.3789C16.7658 35.3876 16.7527 35.4008 16.7352 35.4095C13.7736 37.0791 10.7071 37.101 7.56634 36.0055C6.01563 35.4665 4.65712 34.5945 3.52138 33.4289C2.20655 32.0836 1.30233 30.4754 0.791253 28.6438C0.184072 26.4747 -0.0124963 24.2705 0.000608284 22.027C0.0093447 20.1602 0.127286 18.311 0.481111 16.4794C0.917932 14.2358 1.70858 12.1237 2.94915 10.1868C3.52575 9.28853 4.15915 8.45157 4.99784 7.78113C5.08521 7.71102 5.17256 7.63214 5.22498 7.54012C5.31235 7.38675 5.35603 7.22462 5.14636 7.11945C4.92795 7.0099 4.77506 6.80833 4.57849 6.67687C3.26803 5.818 2.94041 3.11432 3.81405 1.72085C4.39939 0.791867 5.1682 0.160861 6.28646 0.0162555C6.70581 -0.0363283 7.10331 0.0469293 7.49208 0.147715C7.82844 0.239737 7.9857 0.507038 7.96823 0.875124C7.95075 1.25197 7.8197 1.60253 7.66245 1.93995C7.29552 2.72432 7.147 3.52622 7.46588 4.37195C7.77602 5.19138 8.61908 5.90126 9.55388 5.83115C10.7901 5.73913 12.0307 5.65587 13.2669 5.59452C14.1361 5.5507 15.0098 5.57699 15.8791 5.67778C16.9143 5.79609 17.836 6.208 18.7228 6.73384C19.4479 7.16327 20.1643 7.06248 20.7627 6.46215C21.2039 6.01519 21.514 5.5025 21.6407 4.88026C21.7412 4.407 21.8417 3.93375 21.9465 3.46488C22.0775 2.86893 22.3789 2.66297 22.9861 2.75061C23.6938 2.85578 24.1481 3.31151 24.4495 3.91184C25.4017 5.80047 25.1702 8.2018 23.305 9.84504C23.0429 10.0773 22.8027 10.349 22.4663 10.4848C22.1955 10.5944 22.1693 10.7477 22.2872 11.0019C22.7153 11.9309 23.0298 12.9037 23.257 13.9028C23.3618 14.3541 23.4666 14.8054 23.5409 15.2656C23.5977 15.6161 23.7549 15.8703 24.0476 16.0762C24.646 16.4969 25.3013 16.7992 25.974 17.0578L26.0459 17.0855C27.0924 17.4884 28.1445 17.8935 29.2676 18.0306C30.2767 18.1577 31.2945 18.2453 32.3079 18.3286C32.452 18.3417 32.6006 18.3505 32.7447 18.3636C33.5397 18.4293 34.3347 18.4951 35.1297 18.4951C36.6848 18.4907 38.2399 18.4162 39.795 18.3636C41.6471 18.3023 43.4992 18.311 45.3514 18.3373C46.5177 18.3549 47.684 18.3636 48.8416 18.4513C50.0603 18.5477 51.2615 18.7668 52.4366 19.1261C53.5592 19.4679 54.6251 19.9368 55.6079 20.5721C56.5602 21.1856 57.4163 21.913 58.1764 22.7675C59.5917 24.3582 60.8454 26.0452 61.6841 28.0215C62.1995 29.2353 62.9989 30.3001 63.4925 31.5271C63.9905 32.7672 64.5147 33.9942 65.1131 35.1904C65.6723 36.3122 66.3406 37.3464 67.3497 38.1307C68.1228 38.7267 69.0008 39.029 69.9444 39.1999C70.2458 39.2525 71.2723 39.3928 71.2417 39.1956ZM4.44308 2.01006C4.88427 1.30456 5.49582 0.82254 6.34325 0.708609H6.33888C6.40877 0.699845 6.48303 0.695463 6.55729 0.695463C6.60534 0.695463 6.65339 0.721755 6.74512 0.752429C6.5704 1.01097 6.39566 1.24759 6.24278 1.49298C5.51329 2.66297 5.51765 3.91622 5.85401 5.19576C5.96758 5.62081 6.14231 6.0371 6.29083 6.45339L6.30393 6.48406C6.35198 6.6199 6.40003 6.7426 6.22531 6.83462C6.20347 6.84777 6.17725 6.8653 6.15541 6.87844C6.04621 6.94855 5.94137 7.0099 5.77975 6.91788C3.79221 5.76103 3.55633 3.42982 4.44308 2.01006ZM7.1339 0.93209C7.17321 1.21692 7.07711 1.42287 6.981 1.62006L6.97664 1.62444C6.9548 1.67264 6.93295 1.71646 6.91111 1.76467C6.53981 2.62792 6.43061 3.5087 6.67087 4.42453C6.83249 5.04239 7.26494 5.48497 7.64934 6.01081C7.38725 6.12036 7.18194 6.23429 7.00721 6.40957C6.89364 6.52788 6.74076 6.55856 6.65776 6.3526C6.13795 5.04239 5.7186 3.72341 6.24715 2.30803C6.43498 1.8041 6.68834 1.33961 7.1339 0.93209ZM23.1783 5.75665C23.2919 5.02924 23.2045 4.31936 23.0822 3.58319C23.4238 3.65259 23.5642 3.89803 23.6984 4.1325L23.7025 4.1397C24.2049 5.02048 24.266 5.96699 24.1262 6.94855C23.9646 8.06596 23.3094 8.87663 22.5013 9.59089C22.3047 9.76179 22.0906 9.91077 21.8548 10.0904C21.7761 9.9765 21.6931 9.86257 21.6145 9.74864C21.7499 9.58651 21.9509 9.31044 22.0863 8.96426C22.6105 7.94764 23.0036 6.89159 23.1783 5.75665ZM19.9764 7.51821C21.3306 7.13698 21.9596 6.11598 22.3134 4.85396H22.3178C22.3833 4.62172 22.4226 4.38071 22.4794 4.14847C22.5013 4.04768 22.5668 3.98195 22.676 3.9951C22.7896 4.00824 22.8158 4.09588 22.8245 4.19229C22.8944 4.9416 22.8289 5.67778 22.641 6.40519C22.4707 7.05372 22.2086 7.6672 21.9509 8.28506L21.715 8.83719C21.6014 9.0519 21.4835 9.26224 21.3786 9.41123C20.9331 8.77584 20.4788 8.1536 19.9022 7.64091C19.9415 7.57518 19.9546 7.52697 19.9764 7.51821ZM0.94414 18.6265C1.00966 17.7764 1.15818 16.9307 1.31981 16.0938C1.37222 15.8264 1.45959 15.6906 1.75226 15.7476C3.46023 16.0894 4.63965 15.2524 5.57881 13.9553C6.05058 13.3024 6.37383 12.5619 6.46556 11.7512C6.59224 10.5987 6.26025 9.58651 5.47834 8.72764C5.21625 8.43843 5.21625 8.42528 5.51329 8.17989C5.87148 7.88192 6.22531 7.58832 6.61408 7.32978C7.27368 6.89159 7.97696 6.61114 8.78508 6.61114C9.64998 6.61114 10.5149 6.51912 11.3754 6.42272C11.5239 6.40519 11.6768 6.39204 11.8253 6.37451C11.9214 6.36575 12.0132 6.36137 12.1049 6.35698C12.5985 6.33507 12.6029 6.33508 12.8038 6.80395V6.81709C13.0703 7.45248 13.4853 7.97832 14.0793 8.32011C15.2981 9.02123 16.6085 9.24909 17.9889 8.9073C18.4257 8.79775 18.8232 8.59618 19.1727 8.31135C19.3561 8.16236 19.4872 8.19742 19.6444 8.36393C20.3958 9.1746 21.0204 10.0685 21.4747 11.0764C22.5187 13.3988 22.9774 15.8527 23.0211 18.3811C23.0473 19.8097 22.8332 21.2251 22.593 22.6361C22.5843 22.7105 22.5624 22.785 22.4663 22.8332C22.0688 22.5221 21.6669 22.2066 21.2563 21.8955C19.4391 20.5152 17.3948 19.63 15.1932 19.0954C13.2538 18.6222 11.2924 18.3636 9.30052 18.4644C7.03342 18.5783 4.7969 18.8719 2.71327 19.8666C2.20655 20.1076 1.76537 20.4451 1.28486 20.7255C1.26302 20.7387 1.24555 20.7518 1.22371 20.7649C1.11887 20.8307 1.00966 20.9052 0.817461 20.8526C0.773779 20.3048 0.830568 19.7615 0.887354 19.2181C0.909195 19.0209 0.926667 18.8237 0.94414 18.6265ZM62.6713 45.1901C62.6014 45.7554 62.6101 46.3382 62.6364 46.9122L62.6407 46.9079C62.6713 47.6134 62.6582 48.3145 62.6189 49.02C62.6058 49.2522 62.5097 49.2829 62.3131 49.3004C61.5006 49.3749 60.6838 49.3661 59.8669 49.3661H59.5349C59.1068 49.3618 59.0544 49.3179 59.0501 48.8885C59.0413 48.148 59.0239 47.403 58.9409 46.6625C58.8884 46.2155 58.8011 45.7773 58.6045 45.3742C58.4167 44.9885 58.1371 44.7037 57.6741 44.6818C57.2416 44.6643 56.9227 44.8396 56.7393 45.2427C56.5514 45.6546 56.4772 46.0972 56.4685 46.5441C56.4597 47.0744 56.4597 47.609 56.4597 48.1392V48.8841C56.4597 49.502 56.4554 49.5283 55.8525 49.4713C55.1711 49.4056 54.4853 49.3968 53.7995 49.3705C53.5374 49.3618 53.4457 49.2522 53.4369 48.9981C53.4151 48.3671 53.3889 47.736 53.3408 47.105C53.3146 46.772 53.2578 46.4434 53.1923 46.1147C53.0176 45.2164 52.4453 44.6862 51.5892 44.4496C50.6325 44.1866 49.6453 44.1954 48.6668 44.1779C48.0465 44.1647 47.4306 44.1604 46.8103 44.1604L46.6436 44.1593C45.3541 44.1511 44.0685 44.1429 42.7829 44.042C41.6559 43.9544 40.5245 43.9588 39.3975 43.8887C38.7292 43.8449 38.0696 43.7353 37.4056 43.6783C37.1435 43.6564 37.0736 43.5074 37.0124 43.2927C36.7809 42.4733 36.5407 41.6539 36.2 40.8651C35.75 39.8178 35.038 39.0203 34.0683 38.4375C32.867 37.7145 31.6963 37.8021 30.5693 38.5733C29.9403 39.0028 29.4555 39.5374 29.154 40.1859C28.8701 40.6066 28.4333 41.518 28.4071 43.0999C28.3852 43.2226 28.3896 43.3497 28.394 43.4768V43.7002C28.3459 44.7738 28.4901 45.8299 28.6386 46.8859C28.691 47.2496 28.7391 47.609 28.7827 47.9727C28.7871 48.0121 28.8089 48.0472 28.8133 48.0822C28.9618 48.9104 28.9575 48.9104 28.1144 48.9192C27.1097 48.9279 26.1181 49.0419 25.0916 49.2873C25.0348 48.8841 25.0348 48.516 25.0348 48.1523C25.0392 47.9902 25.0392 47.8281 25.0348 47.6659C25.0086 46.8115 24.9693 45.9613 24.8339 45.1156C24.8164 45.0061 24.7858 44.9009 24.7596 44.7914C24.4757 43.5951 23.4972 43.3015 22.4052 44.1034C21.8417 44.5153 21.6582 45.0981 21.6276 45.7598C21.6014 46.3119 21.6276 46.864 21.6538 47.4162C21.6626 47.5914 21.6669 47.7623 21.6757 47.9332C21.6757 48.0209 21.6888 48.1085 21.6975 48.2005C21.7237 48.4459 21.7499 48.6913 21.6495 48.8578C21.5513 49.0248 21.3239 49.0161 21.0976 49.0074L21.0816 49.0068C20.9724 48.9981 20.8675 48.9937 20.7714 49.0068C20.2036 49.0857 19.6226 49.0419 19.0547 49.1383C18.8276 49.1733 18.7621 49.0375 18.7446 48.8491C18.7053 48.4065 18.6529 47.9639 18.6267 47.5213C18.4519 44.4233 18.1942 41.3296 17.9321 38.2359C17.9025 37.8705 17.8564 37.5091 17.8098 37.1439L17.8054 37.1097L17.6831 34.6558C17.7399 34.5945 17.8054 34.5288 17.8797 34.463C18.5568 33.8802 19.1159 33.1791 19.6139 32.4385C19.7973 32.1712 19.9895 32.0617 20.339 32.0792C22.51 32.18 24.4844 30.6069 24.9081 28.4772C25.144 27.2853 24.7596 26.238 24.1393 25.2521C23.9122 24.8928 23.6588 24.5466 23.3487 24.2486C23.1652 24.0733 23.1521 23.8893 23.2089 23.6439C23.6894 21.5712 23.9166 19.4723 23.8117 17.3426C23.8077 17.2694 23.7961 17.1999 23.7839 17.1272L23.7811 17.1104C23.7549 16.9701 23.7287 16.8299 23.768 16.6853C23.8379 16.6152 23.9035 16.6546 23.9646 16.6941C25.8342 17.9429 27.8829 18.6923 30.1194 18.9201C31.9584 19.1086 33.7931 19.3496 35.6496 19.3496C36.3529 19.3496 37.0518 19.3145 37.755 19.2838C37.9036 19.2751 38.0521 19.2707 38.2006 19.2619C38.4627 19.2488 38.6287 19.2882 38.7641 19.5687C39.463 21.041 40.6643 21.8561 42.2456 22.1321C44.0977 22.452 45.6309 21.7816 46.9938 20.5984C47.3826 20.261 47.7626 19.9017 48.1339 19.538C48.2912 19.389 48.4353 19.2926 48.6668 19.3145C50.7112 19.4942 52.6856 19.928 54.5071 20.9271C54.7168 21.0454 54.992 21.133 55.0837 21.339C55.1395 21.468 55.0606 21.597 54.9792 21.7301L54.9745 21.7377C54.9352 21.8035 54.8915 21.8736 54.8653 21.9437C54.2887 23.5475 54.2363 25.1425 55.2454 26.5842C56.4291 28.2713 58.0672 29.0513 60.1552 28.727C60.3037 28.7051 60.4479 28.6788 60.592 28.6438C60.8367 28.5868 60.9502 28.6788 61.0376 28.9198C61.374 29.8707 61.505 30.8698 61.6797 31.8557C61.8326 32.7146 61.9156 33.5866 62.0117 34.4543C62.0379 34.7172 62.0292 34.8574 61.6972 34.8793C60.9022 34.9363 60.3212 35.3613 59.8888 36.0274C58.5434 38.0957 58.7792 41.0404 60.426 42.872C60.9939 43.4987 61.6229 44.0289 62.3699 44.4277C62.7493 44.6289 62.7456 44.6554 62.6934 45.0304L62.6931 45.0324C62.6844 45.0806 62.68 45.1332 62.6713 45.1901ZM14.4113 35.5848C13.0222 35.9704 11.5982 36.0537 10.1742 35.8521H10.1654C8.26526 35.5848 6.53108 34.8925 5.01095 33.683C3.58254 32.5481 2.5298 31.1371 1.89641 29.4281C1.31981 27.8681 1.0053 26.2512 0.869881 24.5948C0.817462 23.9638 0.769413 23.3328 0.778149 22.7018V22.3731V21.5888C0.773781 21.3828 0.808725 21.2382 1.05335 21.1988C1.25428 21.1681 1.43338 21.0542 1.60374 20.9402C2.89673 20.0901 4.32077 19.6169 5.83217 19.332C9.61067 18.6134 13.3105 18.8982 16.9362 20.1602C18.7621 20.7956 20.3783 21.7991 21.8591 23.0304C21.9596 23.1137 22.0426 23.2189 22.1343 23.3065C22.3222 23.4862 22.3571 23.679 22.2872 23.9463C21.7587 26.0014 21.051 27.9908 20.1512 29.9101C19.6532 30.975 19.0635 31.9741 18.3209 32.8855C17.2769 34.1607 16.0188 35.1379 14.4113 35.5848ZM76.0511 42.8414C74.5441 43.5162 72.823 43.319 71.6786 42.0482C71.2155 41.5355 70.9578 40.944 70.9622 40.2341C70.9622 40.015 71.0146 39.9186 71.2286 39.8397C72.941 39.1999 74.6009 39.3665 76.239 40.0895C76.4967 40.2034 76.7107 40.3831 76.9248 40.554L76.967 40.5876C77.3113 40.8615 77.659 41.1382 78.0955 41.3866C77.4053 41.9475 76.8025 42.504 76.0511 42.8414ZM70.0274 40.8607C69.8352 40.5584 69.9051 40.2867 70.0623 40.0238V40.0281C70.1147 39.9361 70.2021 39.9098 70.2982 39.9274C70.4161 39.9449 70.4249 40.0325 70.4249 40.1333C70.4161 40.4357 70.3637 40.7117 70.0274 40.8607Z" fill="#0A0A0A"/>
<path d="M17.6089 25.4975C17.8666 25.423 18.0369 25.217 18.0544 24.9191C18.0719 24.6211 17.9234 24.4239 17.6744 24.2924C17.1677 24.0251 15.3549 23.9375 15.4029 24.8621C15.4248 25.3178 15.9009 25.7473 16.3333 25.721C16.7658 25.6991 17.1939 25.6202 17.6089 25.4975Z" fill="#0A0A0A"/>
<path d="M8.42688 14.2577C8.15605 14.2708 7.80223 14.6871 7.79349 15.007C7.78476 15.3532 8.12111 15.603 8.62782 15.6205C8.90302 15.6293 9.22626 15.2918 9.22626 14.9939C9.22626 14.6784 8.75013 14.2402 8.43125 14.2533L8.42688 14.2577Z" fill="#0A0A0A"/>
<path d="M5.36913 25.3397C5.68365 25.2258 6.04621 25.1119 6.09426 24.7306C6.14668 24.3538 5.85401 24.1303 5.55697 23.9594C5.1551 23.7315 4.70517 23.7228 4.26835 23.7184C3.98879 23.7184 3.85337 23.9244 3.8621 24.2092C3.88394 24.7219 4.53044 25.3573 5.059 25.366H5.14636C5.22062 25.366 5.29924 25.366 5.36913 25.3354V25.3397Z" fill="#0A0A0A"/>
<path d="M16.2503 15.1692C15.9358 15.3006 15.8223 15.546 15.7917 15.8221C15.748 16.2427 16.0232 16.4355 16.3464 16.4618C16.9449 16.51 17.7137 16.0017 17.006 15.3225C16.792 15.1166 16.5474 15.0421 16.2503 15.1692Z" fill="#0A0A0A"/>
</svg>
