<svg width="64" height="64" viewBox="0 0 64 64" fill="none" xmlns="http://www.w3.org/2000/svg">
<g clip-path="url(#clip0_1169_1768)">
<rect width="64" height="64" rx="32" fill="#FEE41F"/>
<g clip-path="url(#clip1_1169_1768)">
<path fill-rule="evenodd" clip-rule="evenodd" d="M93.9872 24.9331V25.0348C93.9744 26.2872 93.4463 27.2901 92.6456 28.1774C91.7725 29.1434 90.6695 29.6702 89.5238 30.1185C88.8424 30.3865 88.1311 30.5483 87.4369 30.747C87.1856 30.821 86.9982 30.9042 87.0323 31.2462C87.0493 31.4264 86.9982 31.602 86.8193 31.6806C86.6703 31.7453 86.6788 31.8932 86.6575 32.0272C86.3381 33.9405 85.7844 35.7891 85.465 37.7025C85.2179 39.1721 85.0816 40.6556 84.9794 42.1438C84.9709 42.2639 84.9624 42.3887 84.9539 42.5089C84.89 43.3823 84.8304 44.2604 84.8687 45.1431C84.8943 45.7717 84.9283 46.3956 84.9837 47.0195C85.022 47.4447 85.137 47.5279 85.4607 47.3384C86.436 46.7561 87.4795 46.8161 88.5272 46.9271C89.7878 47.0657 90.8867 47.6157 91.8322 48.5307C92.0877 48.7803 92.3773 48.9698 92.6967 49.1269C93.1056 49.3303 93.1269 49.5937 92.7819 49.9172C92.1516 50.5041 91.5851 51.1789 90.8483 51.6133C89.281 52.533 87.7137 52.6254 86.1847 51.5163C85.5076 51.0264 85.0263 50.347 84.7452 49.4597C84.1574 49.7739 83.9019 49.6491 83.7443 49.0391C83.6847 48.7988 83.6762 48.5723 83.7784 48.3505C83.8849 48.1148 83.838 48.0131 83.5825 47.9623C81.7639 47.5926 80.4606 46.4418 79.5024 44.7642C78.6718 43.3038 78.1054 41.714 77.5304 40.1288C77.3729 39.6943 77.2195 39.2553 76.9597 38.7931C76.9299 39.2645 76.9938 39.6574 77.0577 40.0502C77.228 41.0531 77.2621 42.0744 77.3558 43.0866C77.4708 44.3344 77.573 45.5822 77.671 46.83C77.8328 48.9374 77.9904 51.0495 78.0074 53.1661C78.0074 53.2077 78.0074 53.2447 78.0074 53.2863C78.0713 54.9038 78.0713 57.3671 77.6497 59.1834C77.6241 59.3451 77.6028 59.5069 77.573 59.6687C77.4921 60.0938 77.3473 60.4913 77.1556 60.8749C76.8405 61.508 76.372 61.8177 75.7076 61.8084C74.1701 61.7899 73.0968 60.6669 72.9009 58.9015C72.7646 57.6906 72.8157 56.4705 72.6922 55.2643C72.6581 54.9131 72.6241 54.5618 72.4835 54.2383C72.4196 54.0997 72.3472 53.9472 72.1683 53.961C71.9852 53.9749 71.9511 54.1367 71.9171 54.2938C71.8063 54.7791 71.8021 55.2689 71.8021 55.7634C71.8021 55.8374 71.8021 55.9113 71.8021 55.9853C71.8021 56.221 71.8021 56.4567 71.8021 56.6924C71.8021 57.6306 71.8063 58.5687 71.6232 59.4977C71.4826 60.1955 71.2952 60.861 70.814 61.3879C70.2944 61.9563 69.6896 62.1366 68.9826 61.8962C68.825 61.8454 68.6717 61.7899 68.5184 61.7252C67.9945 61.5127 67.6666 61.1337 67.526 60.5144C67.3897 59.9136 67.3812 59.3082 67.3685 58.7027C67.3685 58.5456 67.3642 58.3931 67.3599 58.236C67.3259 57.1823 67.3429 56.1239 67.1725 55.0748C67.0362 54.2568 66.7594 53.7669 65.733 53.6006C64.664 53.4249 63.5907 53.4388 62.5174 53.4481C62.2747 53.4481 62.0277 53.4527 61.7849 53.4527C60.5583 53.4527 59.336 53.4249 58.1136 53.3325C57.1767 53.2632 56.2397 53.2447 55.3027 53.2031C53.7098 53.1384 52.1425 52.8704 50.5709 52.6208C48.6459 52.3158 46.7293 51.9461 44.8085 51.6087C44.4593 51.5486 44.4465 51.5717 44.438 51.9461C44.4082 53.3787 44.5998 54.7883 44.7957 56.1979C44.8128 56.318 44.8298 56.4382 44.8468 56.563C44.9789 57.5427 45.0087 58.5225 44.8042 59.4884C44.6126 60.3896 44.2037 61.166 43.3349 61.4387C42.3936 61.7345 41.4737 61.5681 40.6432 60.9812C40.1406 60.6253 39.9319 60.0522 39.8127 59.4468C39.736 59.0447 39.6849 58.638 39.6764 58.2221C39.6594 57.2423 39.6338 56.2626 39.5955 55.2828C39.5742 54.7929 39.5231 54.303 39.4592 53.8178C39.4294 53.5867 39.3357 53.3695 39.2633 53.1477C39.1909 52.9212 39.029 52.8426 38.8331 52.9166C38.3859 53.083 38.0196 53.351 37.9472 53.9148V53.9333C37.9089 54.2199 37.8706 54.5018 37.8834 54.7929C37.926 55.9298 37.9728 57.0621 38.0069 58.199V58.2175C38.0282 58.9939 38.0495 59.7749 37.7428 60.5144C37.4617 61.1891 36.9038 61.5542 36.2223 61.4757C34.9617 61.3278 34.0503 60.4636 33.7734 59.1834C33.5562 58.1667 33.4838 57.1314 33.4114 56.0962C33.2964 54.3955 33.1942 52.6994 33.0877 50.9986C32.9685 49.1408 32.9387 47.2783 32.7768 45.4204C32.7598 45.2448 32.7427 45.0692 32.7214 44.8936C32.6618 44.3529 32.6022 43.8168 32.6533 43.2853C32.517 43.2067 32.4404 43.2622 32.3637 43.313C32.3467 43.3223 32.3339 43.3361 32.3168 43.3454C29.4292 45.1062 26.4394 45.1293 23.3772 43.9739C21.8652 43.4054 20.5407 42.4858 19.4333 41.2564C18.1514 39.8376 17.2698 38.1415 16.7715 36.2097C16.1795 33.922 15.9878 31.5974 16.0006 29.2312C16.0091 27.2624 16.1241 25.3121 16.4691 23.3803C16.895 21.0141 17.6659 18.7865 18.8754 16.7437C19.4376 15.7963 20.0552 14.9136 20.8729 14.2065C20.9581 14.1326 21.0433 14.0494 21.0944 13.9523C21.1795 13.7906 21.2221 13.6196 21.0177 13.5087C20.8048 13.3931 20.6557 13.1805 20.464 13.0419C19.1863 12.1361 18.8669 9.28458 19.7187 7.81492C20.2894 6.83516 21.039 6.16966 22.1293 6.01714C22.5382 5.96169 22.9257 6.04949 23.3048 6.15579C23.6327 6.25284 23.7861 6.53476 23.769 6.92297C23.752 7.32042 23.6242 7.69014 23.4709 8.046C23.1131 8.87326 22.9683 9.719 23.2792 10.611C23.5816 11.4752 24.4036 12.2239 25.315 12.1499C26.5203 12.0529 27.7299 11.9651 28.9352 11.9004C29.7827 11.8542 30.6345 11.8819 31.4821 11.9882C32.4915 12.113 33.3901 12.5474 34.2547 13.102C34.9617 13.5549 35.6602 13.4486 36.2436 12.8154C36.6738 12.344 36.9762 11.8033 37.0997 11.1471C37.1977 10.6479 37.2956 10.1488 37.3978 9.6543C37.5256 9.02577 37.8195 8.80856 38.4115 8.90099C39.1014 9.0119 39.5444 9.49255 39.8382 10.1257C40.7667 12.1176 40.541 14.6502 38.7224 16.3833C38.4668 16.6282 38.2326 16.9147 37.9047 17.058C37.6406 17.1736 37.615 17.3353 37.73 17.6034C38.1474 18.5831 38.4541 19.6091 38.6755 20.6628C38.7778 21.1388 38.88 21.6149 38.9524 22.1001C39.0077 22.4698 39.1611 22.7379 39.4464 22.9551C40.0299 23.3988 40.6687 23.7177 41.3246 23.9903C42.3681 24.4248 43.4158 24.8684 44.5359 25.0163C45.5198 25.1503 46.5121 25.2428 47.5002 25.3306C47.6407 25.3444 47.7855 25.3537 47.9261 25.3676C48.7012 25.4369 49.4764 25.5062 50.2515 25.5062C51.7677 25.5016 53.2839 25.423 54.8001 25.3676C56.6059 25.3029 58.4118 25.3121 60.2176 25.3398C61.3547 25.3583 62.4919 25.3676 63.6205 25.46C64.8088 25.5617 65.98 25.7927 67.1257 26.1717C68.2202 26.5322 69.2594 27.0267 70.2177 27.6968C71.1462 28.3438 71.9809 29.111 72.722 30.0122C74.1019 31.6898 75.3243 33.4691 76.142 35.5534C76.6446 36.8336 77.424 37.9566 77.9052 39.2507C78.3908 40.5586 78.9018 41.8526 79.4853 43.1143C80.0305 44.2974 80.6821 45.3881 81.6659 46.2153C82.4198 46.8439 83.2758 47.1628 84.1958 47.343C84.4896 47.3985 84.4896 47.1951 84.4598 46.9871C84.3832 46.4048 84.3278 45.8179 84.2767 45.2356C84.1234 43.5533 84.0765 41.8711 84.1234 40.1796C84.1787 38.0814 84.315 35.9879 84.4343 33.8943V33.8481C84.4513 33.5939 84.4684 33.3536 84.2128 33.1687C84.0382 33.0439 84.1149 32.8406 84.1873 32.6603L84.1958 32.6326C84.4769 31.8839 84.4769 31.8793 83.8338 31.4587C82.0109 30.271 80.3201 28.9123 78.8933 27.1838C77.8669 25.9406 77.0449 24.5588 76.5977 22.9597C76.2953 21.8829 76.1761 20.7645 76.4912 19.6553C76.8064 18.5554 77.5688 18.1626 78.5696 18.5508C79.447 18.8928 80.1114 19.5583 80.6991 20.3116C81.2485 21.0187 81.7043 21.7951 82.1344 22.5946C82.2068 22.7286 82.292 22.8488 82.3942 23.0106C82.7264 22.5992 82.8968 22.1232 83.1566 21.7119C84.1787 20.0805 85.5842 19.0268 87.3261 18.5462C88.6975 18.1672 89.988 18.4352 91.0656 19.5028C91.7257 20.1544 92.0664 20.9771 92.0366 21.9615C92.0366 22.0216 92.0366 22.0816 92.0366 22.1371C92.0366 22.2341 92.0366 22.3358 92.0281 22.4329C92.0111 22.6316 92.0877 22.7148 92.2623 22.7425C92.4966 22.7841 92.7138 22.8719 92.9267 22.9921C93.6039 23.3849 93.9702 23.9903 94 24.8315C94 24.8684 94 24.9008 94 24.9377L93.9872 24.9331ZM22.1847 6.74735C21.3584 6.86751 20.7622 7.37588 20.332 8.11995C19.4674 9.61733 19.6974 12.076 21.6353 13.2961C21.7928 13.3931 21.8951 13.3284 22.0015 13.2545C22.0228 13.2406 22.0484 13.2221 22.0697 13.2083C22.24 13.1112 22.1932 12.9818 22.1463 12.8385L22.1336 12.8062C21.9888 12.3671 21.8184 11.9281 21.7077 11.4798C21.3797 10.1303 21.3755 8.80856 22.0867 7.5746C22.2358 7.3158 22.4061 7.06623 22.5765 6.79356C22.4871 6.76121 22.4402 6.73348 22.3934 6.73348C22.321 6.73348 22.2486 6.73811 22.1804 6.74735H22.1847ZM22.8065 7.70863C22.9002 7.50066 22.9939 7.28345 22.9555 6.98305C22.5211 7.41285 22.2741 7.90273 22.091 8.43421C21.5756 9.92697 21.9845 11.3181 22.4913 12.6999C22.5722 12.9171 22.7213 12.8848 22.832 12.76C23.0024 12.5751 23.2026 12.455 23.4581 12.3394C23.0833 11.7848 22.6617 11.3181 22.5041 10.6664C22.2698 9.70052 22.3763 8.77158 22.7383 7.86114C22.7596 7.8103 22.7809 7.76409 22.8022 7.71325L22.8065 7.70863ZM39.11 10.366L39.1059 10.3584C38.9751 10.1111 38.8382 9.85228 38.5052 9.77908C38.6244 10.5555 38.7096 11.3042 38.5989 12.0714C38.4285 13.2683 38.0452 14.3821 37.5341 15.4543C37.4021 15.8194 37.2062 16.1106 37.0741 16.2816C37.1508 16.4018 37.2317 16.5219 37.3084 16.6421C37.5384 16.4526 37.7471 16.2955 37.9387 16.1152C38.7266 15.3619 39.3655 14.5069 39.5231 13.3284C39.6594 12.2932 39.5997 11.2949 39.11 10.366ZM37.7556 11.1193C37.4106 12.4503 36.7973 13.5272 35.477 13.9292C35.4557 13.9385 35.4429 13.9893 35.4046 14.0586C35.9668 14.5994 36.4097 15.2556 36.8442 15.9257C36.9464 15.7686 37.0614 15.5468 37.1721 15.3203C37.2488 15.1262 37.3254 14.9321 37.4021 14.738C37.6534 14.0864 37.9089 13.4393 38.075 12.7554C38.2582 11.9882 38.322 11.2118 38.2539 10.4215C38.2454 10.3198 38.2198 10.2274 38.1091 10.2135C38.0026 10.1996 37.9387 10.269 37.9174 10.3753C37.8621 10.6202 37.8237 10.8744 37.7598 11.1193H37.7556ZM17.2868 22.9736C17.1292 23.8563 16.9844 24.7483 16.9205 25.6448C16.9035 25.8528 16.8865 26.0608 16.8652 26.2688C16.8098 26.8418 16.7544 27.4149 16.797 27.9926C16.9844 28.048 17.0909 27.9695 17.1931 27.9002C17.2144 27.8863 17.2314 27.8724 17.2527 27.8586C17.7212 27.5628 18.1514 27.2069 18.6454 26.9527C20.677 25.9037 22.8576 25.594 25.068 25.4738C27.0101 25.3676 28.9224 25.6402 30.8134 26.1393C32.96 26.7032 34.9532 27.6367 36.7249 29.0925C37.1253 29.4206 37.5171 29.7534 37.9047 30.0815C37.9983 30.0307 38.0196 29.9521 38.0282 29.8736C38.2624 28.3854 38.4711 26.8927 38.4455 25.386C38.403 22.7194 37.9558 20.1313 36.9379 17.6819C36.4949 16.619 35.8859 15.6762 35.1533 14.8212C35 14.6456 34.8722 14.6086 34.6934 14.7657C34.3526 15.0661 33.9651 15.2787 33.5392 15.3943C32.1933 15.7547 30.9156 15.5144 29.7274 14.775C29.1481 14.4145 28.7435 13.8599 28.4837 13.1898V13.1759C28.2878 12.6814 28.2836 12.6814 27.8023 12.7045C27.7129 12.7091 27.6234 12.7138 27.5297 12.723C27.3849 12.7415 27.2358 12.7554 27.091 12.7738C26.252 12.8755 25.4087 12.9726 24.5655 12.9726C23.7775 12.9726 23.0918 13.2683 22.4487 13.7305C22.0697 14.0032 21.7247 14.3128 21.3755 14.6271C21.0858 14.8859 21.0858 14.8998 21.3414 15.2048C22.1037 16.1106 22.4274 17.1782 22.3039 18.3936C22.2145 19.2486 21.8993 20.0297 21.4393 20.7183C20.5237 22.0863 19.3737 22.969 17.7085 22.6085C17.4231 22.5484 17.3379 22.6917 17.2868 22.9736ZM78.7741 26.1255C79.8473 27.6275 81.1719 28.8383 82.5816 29.9429C83.2843 30.4928 83.9871 31.0382 84.7707 31.4449C85.0944 31.1491 85.252 30.7239 85.5544 30.4466C86.0697 29.9845 86.0655 29.5131 85.8099 28.8661C85.2733 27.5027 85.0092 26.0562 85.0902 24.5634C85.1242 23.9395 85.1626 23.311 85.482 22.7518C85.8696 22.0724 86.5382 21.9569 87.0919 22.4837C87.3687 22.7471 87.5434 23.0938 87.6882 23.4542C87.8415 23.8286 87.9778 24.2122 88.1226 24.5911C88.1822 24.568 88.2248 24.5634 88.2461 24.5357C89.0297 23.5929 89.954 22.9043 91.138 22.7194C91.2955 22.6963 91.3424 22.5946 91.3594 22.4421C91.4489 21.6518 91.3467 20.917 90.8569 20.2839C90.0775 19.2717 89.0553 18.939 87.8926 19.1007C86.9812 19.2255 86.1549 19.6322 85.3926 20.1729C84.3534 20.9124 83.6123 21.943 83.0373 23.1169C82.9607 23.274 82.8883 23.4357 82.786 23.5651C82.5688 23.8471 82.2707 23.8609 82.0322 23.5929C81.8959 23.4404 81.7937 23.2509 81.683 23.0706C81.1974 22.2665 80.763 21.43 80.1838 20.6998C79.6855 20.0666 79.1276 19.5121 78.4248 19.1654C77.7519 18.8327 77.2025 19.1146 76.9895 19.8772C76.964 19.9696 76.9427 20.0666 76.9299 20.1637C76.8021 20.9494 76.8703 21.7258 77.0407 22.4929C77.3388 23.8563 77.9947 25.0256 78.7741 26.1162V26.1255ZM24.2162 21.0372C23.9522 21.051 23.6072 21.4901 23.5987 21.8274C23.5901 22.1925 23.9181 22.456 24.4121 22.4745C24.6804 22.4837 24.9956 22.1278 24.9956 21.8136C24.9956 21.4808 24.5314 21.0187 24.2205 21.0325L24.2162 21.0372ZM31.8441 21.9984C31.5374 22.1371 31.4267 22.3959 31.3969 22.6871C31.3543 23.1307 31.6226 23.3341 31.9378 23.3618C32.5213 23.4126 33.2709 22.8765 32.5809 22.1602C32.3722 21.943 32.1337 21.8644 31.8441 21.9984ZM92.8756 23.6483C92.6073 23.4311 92.2964 23.3387 91.9685 23.2971C91.0826 23.1908 90.2862 23.4635 89.5621 23.9996C89.2044 24.263 88.8764 24.5634 88.5868 24.9285C88.1779 25.4461 87.9437 25.3999 87.6796 24.7991C87.5008 24.3924 87.3261 23.9811 87.1515 23.5744C87.0451 23.3202 86.9045 23.0938 86.7128 22.9089C86.4701 22.6732 86.2231 22.6871 85.9931 22.932C85.844 23.0891 85.7844 23.2879 85.7205 23.5004C85.5714 24.0181 85.5885 24.5449 85.5672 25.1873C85.58 25.4091 85.5757 25.7419 85.614 26.0746C85.7886 27.5258 86.2358 28.8892 86.7512 30.2294C86.8151 30.4004 86.913 30.4143 87.0536 30.3681C87.9437 30.0538 88.8722 29.8736 89.7453 29.4853C90.7589 29.0324 91.7044 28.4732 92.4412 27.5674C93.0843 26.7771 93.4932 25.8852 93.4548 24.7991C93.4378 24.3092 93.2291 23.9395 92.8799 23.653L92.8756 23.6483ZM77.0705 55.4769C77.0449 54.8715 77.0364 54.2568 77.1045 53.6606C77.113 53.6006 77.1173 53.5451 77.1258 53.4943L77.1261 53.4922C77.1769 53.0967 77.1805 53.0687 76.8107 52.8565C76.0824 52.4359 75.4691 51.8767 74.9154 51.2158C73.3098 49.284 73.0798 46.1784 74.3916 43.997C74.8132 43.2945 75.3796 42.8462 76.1548 42.7862C76.4785 42.763 76.487 42.6152 76.4614 42.3379C76.3677 41.4228 76.2868 40.5031 76.1377 39.5973C75.9674 38.5574 75.8396 37.5037 75.5117 36.5008C75.4265 36.2467 75.3157 36.1496 75.0772 36.2097C74.9367 36.2467 74.7961 36.2744 74.6513 36.2975C72.6155 36.6395 71.0184 35.8169 69.8642 34.0376C68.8804 32.5171 68.9315 30.8348 69.4937 29.1434C69.5193 29.0694 69.5618 28.9955 69.6002 28.9261L69.6047 28.9181C69.6841 28.7777 69.761 28.6416 69.7066 28.5056C69.6172 28.2884 69.3489 28.1959 69.1445 28.0712C67.3685 27.0174 65.4434 26.5599 63.4502 26.3704C63.2244 26.3473 63.0839 26.449 62.9306 26.6061C62.5686 26.9897 62.198 27.3687 61.819 27.7245C60.4902 28.9724 58.9952 29.6795 57.1894 29.3421C55.6477 29.0509 54.4764 28.1913 53.795 26.6385C53.663 26.3427 53.5011 26.3011 53.2456 26.315C53.1008 26.3242 52.956 26.3288 52.8112 26.3381C52.1255 26.3704 51.444 26.4074 50.7583 26.4074C48.9483 26.4074 47.1595 26.1532 45.3664 25.9545C43.1858 25.7142 41.1883 24.9239 39.3655 23.6067C39.3059 23.5651 39.242 23.5236 39.1738 23.5975C39.1355 23.75 39.1611 23.8979 39.1866 24.0458C39.1875 24.0517 39.1884 24.0576 39.1893 24.0635C39.2012 24.1402 39.2125 24.2135 39.2164 24.2907C39.3186 26.5368 39.0972 28.7505 38.6287 30.9365C38.5733 31.1953 38.5861 31.3894 38.765 31.5743C39.0674 31.8885 39.3144 32.2537 39.5359 32.6326C40.1406 33.6725 40.5154 34.777 40.2854 36.0341C39.8723 38.2801 37.9472 39.9393 35.8305 39.833C35.4898 39.8145 35.3024 39.93 35.1235 40.212C34.638 40.993 34.0928 41.7324 33.4327 42.3471C33.3603 42.4164 33.2964 42.4858 33.241 42.5505L33.3603 45.1385C33.3617 45.1505 33.3631 45.1626 33.3645 45.1746C33.41 45.5598 33.4549 45.9408 33.4838 46.3263C33.7393 49.5891 33.9906 52.8519 34.161 56.1193C34.1865 56.5861 34.2377 57.0529 34.276 57.5196C34.293 57.7184 34.3569 57.8616 34.5784 57.8247C35.132 57.723 35.6985 57.7692 36.2522 57.686C36.3459 57.6721 36.4481 57.6768 36.5545 57.686C36.5597 57.6862 36.5649 57.6864 36.5701 57.6867C36.7908 57.6958 37.0125 57.705 37.1082 57.5289C37.2062 57.3533 37.1806 57.0945 37.1551 56.8356C37.1466 56.7386 37.1338 56.6462 37.1338 56.5537C37.1253 56.3735 37.121 56.1933 37.1125 56.0084C37.0869 55.4261 37.0614 54.8438 37.0869 54.2614C37.1167 53.5636 37.2956 52.9489 37.845 52.5145C38.9098 51.6688 39.8638 51.9784 40.1406 53.2401C40.1662 53.3556 40.196 53.4665 40.213 53.5821C40.3451 54.474 40.3834 55.3706 40.4089 56.2718C40.4132 56.4428 40.4132 56.6138 40.4089 56.7848C40.4089 57.1684 40.4089 57.5566 40.4643 57.9818C41.4652 57.723 42.432 57.6028 43.4116 57.5936C44.2335 57.5843 44.2378 57.5843 44.093 56.7109C44.0887 56.6739 44.0674 56.6369 44.0632 56.5953C44.0206 56.2117 43.9737 55.8328 43.9226 55.4492C43.7778 54.3354 43.6373 53.2216 43.6841 52.0893C43.6841 52.0108 43.6841 51.9322 43.6841 51.8536C43.6799 51.7196 43.6756 51.5856 43.6969 51.4562C43.7225 49.7878 44.1484 48.8265 44.4252 48.3828C44.7191 47.6989 45.1918 47.135 45.8051 46.6821C46.9039 45.8687 48.0453 45.7763 49.2166 46.5388C50.1621 47.1535 50.8563 47.9946 51.295 49.0992C51.6272 49.9311 51.8614 50.7953 52.0871 51.6595C52.1468 51.886 52.2149 52.0431 52.4705 52.0662C53.1178 52.1263 53.7609 52.2418 54.4126 52.288C55.5114 52.362 56.6145 52.3574 57.7133 52.4498C59.0208 52.5607 60.3283 52.5653 61.6401 52.5746C62.2449 52.5746 62.8454 52.5792 63.4502 52.5931C64.4042 52.6116 65.3667 52.6023 66.2994 52.8796C67.1342 53.1292 67.6921 53.6884 67.8625 54.6358C67.9264 54.9824 67.9817 55.329 68.0073 55.6803C68.0542 56.3458 68.0797 57.0113 68.101 57.6768C68.1095 57.9448 68.199 58.0604 68.4545 58.0696C69.1232 58.0973 69.7918 58.1066 70.4562 58.1759C71.044 58.236 71.0482 58.2082 71.0482 57.5566C71.0482 57.2932 71.0482 57.0298 71.0482 56.7709C71.0482 56.2117 71.0482 55.6479 71.0567 55.0887C71.0653 54.6173 71.1377 54.1505 71.3208 53.7161C71.4997 53.2909 71.8106 53.1061 72.2322 53.1245C72.6837 53.1477 72.9563 53.4481 73.1394 53.8547C73.3311 54.2799 73.4162 54.7421 73.4673 55.2135C73.5483 55.9945 73.5653 56.7802 73.5738 57.5612C73.5781 58.0141 73.6292 58.0604 74.0466 58.065C74.153 58.065 74.2638 58.065 74.3703 58.065C75.1667 58.065 75.9631 58.0742 76.7553 57.9957C76.9469 57.9772 77.0407 57.9448 77.0534 57.6999C77.0918 56.9558 77.1045 56.2164 77.0747 55.4723L77.0705 55.4769ZM25.9198 43.8121C27.3082 44.0247 28.6967 43.9369 30.0511 43.5302C31.6184 43.0588 32.845 42.0282 33.8629 40.6833C34.5869 39.7221 35.1619 38.6684 35.6474 37.5453C36.5247 35.5211 37.2147 33.4229 37.73 31.2554C37.7982 30.9735 37.7641 30.7701 37.581 30.5807C37.4915 30.4882 37.4106 30.3773 37.3126 30.2895C35.8688 28.9908 34.293 27.9325 32.5128 27.2624C28.9778 25.9314 25.3704 25.631 21.6864 26.3889C20.2128 26.6893 18.8243 27.1884 17.5636 28.085C17.3975 28.2052 17.2229 28.3253 17.027 28.3577C16.7885 28.3993 16.7544 28.5518 16.7587 28.769C16.7587 29.0463 16.7587 29.319 16.7587 29.5963C16.7587 29.7118 16.7587 29.8273 16.7587 29.9429C16.7502 30.6084 16.797 31.2739 16.8481 31.9394C16.9802 33.6863 17.2868 35.3917 17.849 37.0369C18.4666 38.8394 19.493 40.3275 20.8857 41.5245C22.3678 42.8 24.0586 43.5302 25.9113 43.8121H25.9198ZM84.8517 34.0098C84.8389 34.5367 84.8346 35.0682 84.8176 35.595C84.8091 35.9463 84.7963 36.2929 84.7835 36.6441C84.7452 37.6978 84.7111 38.7515 84.7707 39.8006C85.0518 37.7163 85.4437 35.669 85.9462 33.6447C86.0868 33.0809 86.1933 32.5032 86.2784 31.9255C86.2912 31.8423 86.2912 31.7545 86.2912 31.6667C86.2912 31.5327 86.1208 31.5928 86.1166 31.4218C86.1166 31.3062 86.1805 31.1953 86.2486 31.0798C86.321 30.955 86.3977 30.8256 86.3934 30.6777C86.3892 30.5113 86.321 30.442 86.2018 30.5807C85.9164 30.9088 85.6183 31.223 85.3457 31.565C85.3329 31.5835 85.3159 31.5974 85.2989 31.6113L84.8261 32.2259C84.8644 32.4293 85.022 32.6003 85.0902 32.799L85.1029 32.8406C85.1626 33.0023 85.2222 33.178 85.0774 33.2796C84.8474 33.4414 84.8474 33.6632 84.8474 33.8897C84.8474 33.9267 84.8474 33.9682 84.8474 34.0098H84.8517ZM21.2349 32.725C21.5416 32.6049 21.8951 32.4847 21.9419 32.0827C21.993 31.6852 21.7077 31.4495 21.418 31.2693C21.0262 31.0289 20.5875 31.0197 20.1616 31.0151C19.8891 31.0151 19.757 31.2323 19.7656 31.5327C19.7868 32.0734 20.4172 32.7435 20.9325 32.7528C20.9581 32.7528 20.9879 32.7528 21.0177 32.7528C21.0901 32.7528 21.1668 32.7528 21.2349 32.7204V32.725ZM33.1686 32.8914C33.4199 32.8129 33.586 32.5956 33.6031 32.2814C33.6201 31.9671 33.4753 31.7591 33.2325 31.6205C32.7385 31.3386 30.971 31.2462 31.0178 32.2213C31.0391 32.7019 31.5034 33.1549 31.925 33.1271C32.3467 33.104 32.764 33.0208 33.1686 32.8914ZM85.8866 50.347C87.0025 51.6872 88.6805 51.8952 90.1499 51.1835C90.8824 50.8276 91.4702 50.2407 92.1431 49.6491C91.7001 49.3765 91.3509 49.0715 91.0017 48.7711C90.793 48.5908 90.5843 48.4013 90.333 48.2812C88.7359 47.5186 87.1175 47.343 85.4479 48.0177C85.2392 48.1009 85.1881 48.2026 85.1881 48.4337C85.1839 49.1824 85.4351 49.8063 85.8866 50.347ZM84.3108 48.2118C84.1574 48.4891 84.0893 48.7757 84.2767 49.0946C84.6046 48.9374 84.6558 48.6463 84.6643 48.3274C84.6643 48.2211 84.6557 48.1287 84.5408 48.1102C84.4471 48.0917 84.3619 48.1194 84.3108 48.2165V48.2118Z" fill="#0A0A0A"/>
<path d="M77.0705 55.4769C77.0449 54.8715 77.0364 54.2568 77.1045 53.6606C77.113 53.6006 77.1173 53.5451 77.1258 53.4943L77.1261 53.4922C77.1769 53.0967 77.1805 53.0687 76.8107 52.8565C76.0824 52.4359 75.4691 51.8767 74.9154 51.2158C73.3098 49.284 73.0798 46.1784 74.3916 43.997C74.8132 43.2945 75.3796 42.8462 76.1548 42.7862C76.4785 42.763 76.487 42.6152 76.4614 42.3379C76.3677 41.4228 76.2868 40.5031 76.1377 39.5973C75.9674 38.5574 75.8396 37.5037 75.5117 36.5008C75.4265 36.2467 75.3157 36.1496 75.0772 36.2097C74.9367 36.2467 74.7961 36.2744 74.6513 36.2975C72.6155 36.6395 71.0184 35.8169 69.8642 34.0376C68.8804 32.5171 68.9315 30.8348 69.4937 29.1434C69.5193 29.0694 69.5618 28.9955 69.6002 28.9261L69.6047 28.9181C69.6841 28.7777 69.761 28.6416 69.7066 28.5056C69.6172 28.2884 69.3489 28.1959 69.1445 28.0712C67.3685 27.0174 65.4434 26.5599 63.4502 26.3704C63.2244 26.3473 63.0839 26.449 62.9306 26.6061C62.5686 26.9897 62.198 27.3687 61.819 27.7245C60.4902 28.9724 58.9952 29.6795 57.1894 29.3421C55.6477 29.0509 54.4764 28.1913 53.795 26.6385C53.663 26.3427 53.5011 26.3011 53.2456 26.315C53.1008 26.3242 52.956 26.3288 52.8112 26.3381C52.1255 26.3704 51.444 26.4074 50.7583 26.4074C48.9483 26.4074 47.1595 26.1532 45.3664 25.9545C43.1858 25.7142 41.1883 24.9239 39.3655 23.6067C39.3059 23.5651 39.242 23.5236 39.1738 23.5975C39.1355 23.75 39.1611 23.8979 39.1866 24.0458L39.1893 24.0635C39.2012 24.1402 39.2125 24.2135 39.2164 24.2907C39.3186 26.5368 39.0972 28.7505 38.6287 30.9365C38.5733 31.1953 38.5861 31.3894 38.765 31.5743C39.0674 31.8885 39.3144 32.2537 39.5359 32.6326C40.1406 33.6725 40.5154 34.777 40.2854 36.0341C39.8723 38.2801 37.9472 39.9393 35.8305 39.833C35.4898 39.8145 35.3024 39.93 35.1235 40.212C34.638 40.993 34.0928 41.7324 33.4327 42.3471C33.3603 42.4164 33.2964 42.4858 33.241 42.5505L33.3603 45.1385L33.3645 45.1746C33.41 45.5598 33.4549 45.9408 33.4838 46.3263C33.7393 49.5891 33.9906 52.8519 34.161 56.1193C34.1865 56.5861 34.2377 57.0529 34.276 57.5196C34.293 57.7184 34.3569 57.8616 34.5784 57.8247C35.132 57.723 35.6985 57.7692 36.2522 57.686C36.3459 57.6721 36.4481 57.6768 36.5545 57.686L36.5701 57.6867C36.7908 57.6958 37.0125 57.705 37.1082 57.5289C37.2062 57.3533 37.1806 57.0945 37.1551 56.8356C37.1466 56.7386 37.1338 56.6462 37.1338 56.5537C37.1253 56.3735 37.121 56.1933 37.1125 56.0084C37.0869 55.4261 37.0614 54.8438 37.0869 54.2614C37.1167 53.5636 37.2956 52.9489 37.845 52.5145C38.9098 51.6688 39.8638 51.9784 40.1406 53.2401C40.1662 53.3556 40.196 53.4665 40.213 53.5821C40.3451 54.474 40.3834 55.3706 40.4089 56.2718C40.4132 56.4428 40.4132 56.6138 40.4089 56.7848C40.4089 57.1684 40.4089 57.5566 40.4643 57.9818C41.4652 57.723 42.432 57.6028 43.4116 57.5936C44.2335 57.5843 44.2378 57.5843 44.093 56.7109C44.0887 56.6739 44.0674 56.6369 44.0632 56.5953C44.0206 56.2117 43.9737 55.8328 43.9226 55.4492C43.7778 54.3354 43.6373 53.2216 43.6841 52.0893V51.8536C43.6799 51.7196 43.6756 51.5856 43.6969 51.4562C43.7225 49.7878 44.1484 48.8265 44.4252 48.3828C44.7191 47.6989 45.1918 47.135 45.8051 46.6821C46.9039 45.8687 48.0453 45.7763 49.2166 46.5388C50.1621 47.1535 50.8563 47.9946 51.295 49.0992C51.6272 49.9311 51.8614 50.7953 52.0871 51.6595C52.1468 51.886 52.2149 52.0431 52.4705 52.0662C53.1178 52.1263 53.7609 52.2418 54.4126 52.288C55.5114 52.362 56.6145 52.3574 57.7133 52.4498C59.0208 52.5607 60.3283 52.5653 61.6401 52.5746C62.2449 52.5746 62.8454 52.5792 63.4502 52.5931C64.4042 52.6116 65.3667 52.6023 66.2994 52.8796C67.1342 53.1292 67.6921 53.6884 67.8625 54.6358C67.9264 54.9824 67.9817 55.329 68.0073 55.6803C68.0542 56.3458 68.0797 57.0113 68.101 57.6768C68.1095 57.9448 68.199 58.0604 68.4545 58.0696C69.1232 58.0973 69.7918 58.1066 70.4562 58.1759C71.044 58.236 71.0482 58.2082 71.0482 57.5566V56.7709C71.0482 56.2117 71.0482 55.6479 71.0567 55.0887C71.0653 54.6173 71.1377 54.1505 71.3208 53.7161C71.4997 53.2909 71.8106 53.1061 72.2322 53.1245C72.6837 53.1477 72.9563 53.4481 73.1394 53.8547C73.3311 54.2799 73.4162 54.7421 73.4673 55.2135C73.5483 55.9945 73.5653 56.7802 73.5738 57.5612C73.5781 58.0141 73.6292 58.0604 74.0466 58.065H74.3703C75.1667 58.065 75.9631 58.0742 76.7553 57.9957C76.9469 57.9772 77.0407 57.9448 77.0534 57.6999C77.0918 56.9558 77.1045 56.2164 77.0747 55.4723L77.0705 55.4769Z" fill="#FDFDFF"/>
<path fill-rule="evenodd" clip-rule="evenodd" d="M25.9198 43.8121C27.3082 44.0247 28.6967 43.9369 30.0511 43.5302C31.6184 43.0588 32.845 42.0282 33.8629 40.6833C34.5869 39.7221 35.1619 38.6684 35.6474 37.5453C36.5247 35.5211 37.2147 33.4229 37.73 31.2554C37.7982 30.9735 37.7641 30.7701 37.581 30.5807C37.4915 30.4882 37.4106 30.3773 37.3126 30.2895C35.8688 28.9908 34.293 27.9325 32.5128 27.2624C28.9778 25.9314 25.3704 25.631 21.6864 26.3889C20.2128 26.6893 18.8243 27.1884 17.5636 28.085C17.3975 28.2052 17.2229 28.3253 17.027 28.3577C16.7885 28.3993 16.7544 28.5518 16.7587 28.769V29.5963V29.9429C16.7502 30.6084 16.797 31.2739 16.8481 31.9394C16.9802 33.6863 17.2868 35.3917 17.849 37.0369C18.4666 38.8394 19.493 40.3275 20.8857 41.5245C22.3678 42.8 24.0586 43.5302 25.9113 43.8121H25.9198ZM21.9419 32.0827C21.8951 32.4847 21.5416 32.6049 21.2349 32.725V32.7204C21.1668 32.7528 21.0901 32.7528 21.0177 32.7528H20.9325C20.4172 32.7435 19.7868 32.0734 19.7656 31.5327C19.757 31.2323 19.8891 31.0151 20.1616 31.0151C20.5875 31.0197 21.0262 31.0289 21.418 31.2693C21.7077 31.4495 21.993 31.6852 21.9419 32.0827ZM33.6031 32.2814C33.586 32.5956 33.4199 32.8129 33.1686 32.8914C32.764 33.0208 32.3467 33.104 31.925 33.1271C31.5034 33.1549 31.0391 32.7019 31.0178 32.2213C30.971 31.2462 32.7385 31.3386 33.2325 31.6205C33.4753 31.7591 33.6201 31.9671 33.6031 32.2814Z" fill="#FDFDFF"/>
<path fill-rule="evenodd" clip-rule="evenodd" d="M17.2868 22.9736C17.1292 23.8563 16.9844 24.7483 16.9205 25.6448C16.9035 25.8528 16.8865 26.0608 16.8652 26.2688C16.8098 26.8418 16.7544 27.4149 16.797 27.9926C16.9844 28.048 17.0909 27.9695 17.1931 27.9002C17.2144 27.8863 17.2314 27.8724 17.2527 27.8586C17.7212 27.5628 18.1514 27.2069 18.6454 26.9527C20.677 25.9037 22.8576 25.594 25.068 25.4738C27.0101 25.3676 28.9224 25.6402 30.8134 26.1393C32.96 26.7032 34.9532 27.6367 36.7249 29.0925C37.1253 29.4206 37.5171 29.7534 37.9047 30.0815C37.9983 30.0307 38.0196 29.9521 38.0282 29.8736C38.2624 28.3854 38.4711 26.8927 38.4455 25.386C38.403 22.7194 37.9558 20.1313 36.9379 17.6819C36.4949 16.619 35.8859 15.6762 35.1533 14.8212C35 14.6456 34.8722 14.6086 34.6934 14.7657C34.3526 15.0661 33.9651 15.2787 33.5392 15.3943C32.1933 15.7547 30.9156 15.5144 29.7274 14.775C29.1481 14.4145 28.7435 13.8599 28.4837 13.1898V13.1759C28.2878 12.6814 28.2836 12.6814 27.8023 12.7045C27.7129 12.7091 27.6234 12.7138 27.5297 12.723C27.3849 12.7415 27.2358 12.7554 27.091 12.7738C26.252 12.8755 25.4087 12.9726 24.5655 12.9726C23.7775 12.9726 23.0918 13.2683 22.4487 13.7305C22.0697 14.0032 21.7247 14.3128 21.3755 14.6271C21.0858 14.8859 21.0858 14.8998 21.3414 15.2048C22.1037 16.1106 22.4274 17.1782 22.3039 18.3936C22.2145 19.2486 21.8993 20.0297 21.4393 20.7183C20.5237 22.0863 19.3737 22.969 17.7085 22.6085C17.4231 22.5484 17.3379 22.6917 17.2868 22.9736ZM23.5987 21.8274C23.6072 21.4901 23.9522 21.051 24.2162 21.0372L24.2205 21.0325C24.5314 21.0187 24.9956 21.4808 24.9956 21.8136C24.9956 22.1278 24.6804 22.4837 24.4121 22.4745C23.9181 22.456 23.5901 22.1925 23.5987 21.8274ZM31.3969 22.6871C31.4267 22.3959 31.5374 22.1371 31.8441 21.9984C32.1337 21.8644 32.3722 21.943 32.5809 22.1602C33.2709 22.8765 32.5213 23.4126 31.9378 23.3618C31.6226 23.3341 31.3543 23.1307 31.3969 22.6871Z" fill="#FDFDFF"/>
<path d="M22.1847 6.74735C21.3584 6.86751 20.7622 7.37588 20.332 8.11995C19.4674 9.61733 19.6974 12.076 21.6353 13.2961C21.7928 13.3931 21.8951 13.3284 22.0015 13.2545C22.0228 13.2406 22.0484 13.2221 22.0697 13.2083C22.24 13.1112 22.1932 12.9818 22.1463 12.8385L22.1336 12.8062C21.9888 12.3671 21.8184 11.9281 21.7077 11.4798C21.3797 10.1303 21.3755 8.80856 22.0867 7.5746C22.2358 7.3158 22.4061 7.06623 22.5765 6.79356C22.4871 6.76121 22.4402 6.73348 22.3934 6.73348C22.321 6.73348 22.2486 6.73811 22.1804 6.74735H22.1847Z" fill="#0A0A0A"/>
<path d="M22.8065 7.70863C22.9002 7.50066 22.9939 7.28345 22.9555 6.98305C22.5211 7.41285 22.2741 7.90273 22.091 8.43421C21.5756 9.92697 21.9845 11.3181 22.4913 12.6999C22.5722 12.9171 22.7213 12.8848 22.832 12.76C23.0024 12.5751 23.2026 12.455 23.4581 12.3394C23.0833 11.7848 22.6617 11.3181 22.5041 10.6664C22.2698 9.70052 22.3763 8.77158 22.7383 7.86114C22.7596 7.8103 22.7809 7.76409 22.8022 7.71325L22.8065 7.70863Z" fill="#0A0A0A"/>
<path d="M37.7556 11.1193C37.4106 12.4503 36.7973 13.5272 35.477 13.9292C35.4557 13.9385 35.4429 13.9893 35.4046 14.0586C35.9668 14.5994 36.4097 15.2556 36.8442 15.9257C36.9464 15.7686 37.0614 15.5468 37.1721 15.3203L37.4021 14.738C37.6534 14.0864 37.9089 13.4393 38.075 12.7554C38.2582 11.9882 38.322 11.2118 38.2539 10.4215C38.2454 10.3198 38.2198 10.2274 38.1091 10.2135C38.0026 10.1996 37.9387 10.269 37.9174 10.3753C37.8621 10.6202 37.8237 10.8744 37.7598 11.1193H37.7556Z" fill="#0A0A0A"/>
<path d="M39.11 10.366L39.1059 10.3584C38.9751 10.1111 38.8382 9.85228 38.5052 9.77908C38.6244 10.5555 38.7096 11.3042 38.5989 12.0714C38.4285 13.2683 38.0452 14.3821 37.5341 15.4543C37.4021 15.8194 37.2062 16.1106 37.0741 16.2816C37.1508 16.4018 37.2317 16.5219 37.3084 16.6421C37.5384 16.4526 37.7471 16.2955 37.9387 16.1152C38.7266 15.3619 39.3655 14.5069 39.5231 13.3284C39.6594 12.2932 39.5997 11.2949 39.11 10.366Z" fill="#0A0A0A"/>
</g>
</g>
<defs>
<clipPath id="clip0_1169_1768">
<rect width="64" height="64" rx="32" fill="white"/>
</clipPath>
<clipPath id="clip1_1169_1768">
<rect width="84" height="57.2727" fill="white" transform="translate(16 4)"/>
</clipPath>
</defs>
</svg>
