<svg width="492" height="245" viewBox="0 0 492 245" fill="none" xmlns="http://www.w3.org/2000/svg">
<path d="M0 159.5C84.4837 173.236 177 172 251.5 153.392C326 129 492 117 492 117V245H0V159.5Z" fill="#FFF5A5"/>
<path fill-rule="evenodd" clip-rule="evenodd" d="M687.939 144.149V144.6C687.877 150.167 685.338 154.624 681.489 158.568C677.291 162.861 671.988 165.203 666.48 167.195C663.204 168.386 659.784 169.105 656.447 169.989C655.238 170.317 654.337 170.687 654.501 172.207C654.583 173.008 654.337 173.789 653.478 174.138C652.761 174.425 652.802 175.083 652.699 175.678C651.164 184.182 648.502 192.398 646.966 200.902C645.779 207.434 645.123 214.027 644.632 220.641C644.591 221.176 644.55 221.73 644.509 222.264C644.202 226.146 643.915 230.049 644.1 233.972C644.222 236.766 644.386 239.539 644.652 242.312C644.837 244.201 645.389 244.571 646.946 243.729C651.635 241.141 656.651 241.408 661.688 241.901C667.749 242.517 673.032 244.961 677.578 249.028C678.806 250.138 680.199 250.98 681.734 251.678C683.7 252.582 683.802 253.753 682.144 255.191C679.113 257.799 676.39 260.798 672.848 262.729C665.313 266.817 657.777 267.227 650.427 262.298C647.171 260.12 644.857 257.101 643.506 253.157C640.68 254.554 639.451 253.999 638.694 251.288C638.407 250.22 638.366 249.213 638.858 248.227C639.37 247.18 639.144 246.728 637.916 246.502C629.173 244.859 622.907 239.744 618.3 232.288C614.307 225.797 611.584 218.731 608.819 211.686C608.062 209.755 607.325 207.804 606.076 205.75C605.932 207.845 606.239 209.591 606.547 211.337C607.366 215.794 607.529 220.333 607.98 224.832C608.533 230.378 609.024 235.924 609.495 241.47C610.273 250.836 611.031 260.223 611.113 269.631C611.113 269.815 611.113 269.98 611.113 270.165C611.42 277.354 611.42 288.302 609.393 296.374C609.27 297.093 609.168 297.812 609.024 298.531C608.635 300.421 607.939 302.187 607.017 303.892C605.502 306.706 603.25 308.082 600.056 308.041C592.664 307.959 587.504 302.968 586.562 295.121C585.907 289.74 586.152 284.317 585.559 278.956C585.395 277.395 585.231 275.834 584.555 274.396C584.248 273.78 583.9 273.102 583.04 273.164C582.16 273.225 581.996 273.944 581.832 274.642C581.3 276.799 581.279 278.977 581.279 281.174C581.279 281.503 581.279 281.832 581.279 282.16C581.279 283.208 581.279 284.255 581.279 285.303C581.279 289.473 581.3 293.642 580.419 297.771C579.743 300.873 578.843 303.831 576.529 306.172C574.031 308.699 571.123 309.5 567.724 308.432C566.966 308.206 566.229 307.959 565.492 307.672C562.974 306.727 561.397 305.042 560.721 302.29C560.066 299.62 560.025 296.929 559.964 294.238C559.964 293.54 559.943 292.862 559.923 292.164C559.759 287.48 559.841 282.777 559.022 278.114C558.367 274.478 557.036 272.301 552.101 271.561C546.961 270.781 541.801 270.842 536.642 270.884C535.474 270.884 534.287 270.904 533.12 270.904C527.223 270.904 521.346 270.781 515.469 270.37C510.965 270.062 506.46 269.98 501.955 269.795C494.297 269.507 486.762 268.316 479.206 267.207C469.951 265.851 460.737 264.208 451.502 262.708C449.823 262.441 449.762 262.544 449.721 264.208C449.578 270.575 450.499 276.84 451.441 283.105C451.523 283.639 451.605 284.173 451.687 284.728C452.321 289.082 452.465 293.437 451.482 297.73C450.561 301.735 448.595 305.186 444.418 306.398C439.893 307.713 435.47 306.973 431.477 304.365C429.061 302.783 428.057 300.236 427.484 297.545C427.116 295.758 426.87 293.951 426.829 292.102C426.747 287.747 426.624 283.393 426.44 279.038C426.337 276.861 426.092 274.684 425.785 272.527C425.641 271.5 425.191 270.534 424.843 269.548C424.495 268.542 423.716 268.193 422.775 268.521C420.625 269.261 418.864 270.452 418.516 272.958V273.04C418.331 274.314 418.147 275.567 418.208 276.861C418.413 281.914 418.638 286.946 418.802 291.999V292.081C418.905 295.532 419.007 299.004 417.533 302.29C416.181 305.289 413.499 306.912 410.223 306.562C404.162 305.905 399.78 302.064 398.449 296.374C397.405 291.855 397.057 287.254 396.709 282.653C396.156 275.094 395.664 267.556 395.152 259.997C394.579 251.74 394.436 243.462 393.658 235.205C393.576 234.424 393.494 233.644 393.392 232.863C393.105 230.46 392.818 228.077 393.064 225.715C392.409 225.366 392.04 225.612 391.672 225.838C391.59 225.879 391.528 225.941 391.446 225.982C377.564 233.808 363.189 233.911 348.467 228.776C341.198 226.249 334.83 222.161 329.506 216.698C323.343 210.392 319.105 202.853 316.709 194.267C313.863 184.1 312.941 173.768 313.003 163.251C313.044 154.501 313.597 145.833 315.255 137.247C317.303 126.73 321.009 116.83 326.824 107.751C329.527 103.54 332.496 99.6167 336.427 96.474C336.837 96.1454 337.246 95.7756 337.492 95.3443C337.902 94.6254 338.106 93.8654 337.124 93.3724C336.1 92.8589 335.383 91.914 334.462 91.2978C328.319 87.2718 326.783 74.5983 330.878 68.0665C333.622 63.7119 337.226 60.754 342.468 60.0762C344.433 59.8297 346.297 60.22 348.119 60.6924C349.696 61.1238 350.433 62.3767 350.351 64.1021C350.269 65.8686 349.655 67.5119 348.918 69.0935C347.198 72.7702 346.502 76.5292 347.996 80.4935C349.45 84.3346 353.402 87.6621 357.784 87.3335C363.579 86.9021 369.394 86.5119 375.188 86.2243C379.263 86.0189 383.358 86.1421 387.433 86.6146C392.286 87.1691 396.606 89.1 400.763 91.5648C404.162 93.5778 407.52 93.1054 410.325 90.2913C412.393 88.1962 413.847 85.7929 414.441 82.8762C414.912 80.6578 415.383 78.4394 415.874 76.2416C416.488 73.4481 417.901 72.4827 420.747 72.8935C424.065 73.3865 426.194 75.5227 427.607 78.3367C432.071 87.1897 430.985 98.4459 422.242 106.149C421.014 107.237 419.887 108.511 418.311 109.148C417.041 109.661 416.918 110.38 417.471 111.571C419.478 115.926 420.952 120.486 422.017 125.169C422.508 127.285 423 129.4 423.348 131.557C423.614 133.2 424.351 134.392 425.723 135.357C428.528 137.329 431.6 138.746 434.753 139.958C439.77 141.889 444.807 143.861 450.192 144.518C454.922 145.114 459.693 145.525 464.443 145.915C465.119 145.977 465.815 146.018 466.491 146.079C470.217 146.387 473.944 146.696 477.671 146.696C484.96 146.675 492.25 146.326 499.539 146.079C508.221 145.792 516.903 145.833 525.585 145.956C531.052 146.038 536.519 146.079 541.945 146.49C547.658 146.942 553.289 147.969 558.797 149.653C564.059 151.256 569.055 153.453 573.662 156.432C578.126 159.307 582.139 162.717 585.702 166.723C592.336 174.179 598.213 182.087 602.144 191.351C604.56 197.04 608.307 202.032 610.621 207.783C612.956 213.596 615.413 219.347 618.218 224.955C620.839 230.213 623.972 235.061 628.702 238.738C632.326 241.531 636.441 242.948 640.864 243.75C642.277 243.996 642.277 243.092 642.134 242.168C641.765 239.58 641.499 236.971 641.253 234.383C640.516 226.906 640.291 219.43 640.516 211.912C640.782 202.586 641.438 193.281 642.011 183.977V183.771C642.093 182.641 642.175 181.573 640.946 180.752C640.107 180.197 640.475 179.293 640.823 178.492L640.864 178.369C642.216 175.042 642.216 175.021 639.124 173.152C630.36 167.873 622.231 161.834 615.372 154.152C610.437 148.626 606.485 142.485 604.335 135.378C602.881 130.592 602.308 125.621 603.823 120.691C605.338 115.803 609.004 114.057 613.816 115.782C618.034 117.302 621.228 120.26 624.053 123.608C626.695 126.751 628.886 130.202 630.954 133.755C631.302 134.351 631.712 134.885 632.203 135.604C633.8 133.776 634.619 131.66 635.868 129.832C640.782 122.581 647.539 117.898 655.914 115.762C662.507 114.077 668.712 115.269 673.892 120.013C677.066 122.91 678.704 126.566 678.561 130.941C678.561 131.208 678.561 131.475 678.561 131.722C678.561 132.153 678.561 132.605 678.52 133.036C678.438 133.919 678.806 134.289 679.646 134.412C680.772 134.597 681.816 134.987 682.84 135.522C686.096 137.267 687.857 139.958 688 143.697C688 143.861 688 144.005 688 144.169L687.939 144.149ZM342.734 63.3216C338.762 63.8557 335.895 66.1151 333.827 69.4221C329.67 76.0773 330.776 87.0048 340.093 92.4275C340.85 92.8589 341.342 92.5713 341.854 92.2427C341.956 92.181 342.079 92.0989 342.181 92.0373C343 91.6059 342.775 91.0308 342.55 90.394L342.488 90.2502C341.792 88.2989 340.973 86.3475 340.441 84.3551C338.864 78.3573 338.844 72.4827 342.263 66.9984C342.98 65.8481 343.799 64.7389 344.618 63.527C344.188 63.3832 343.963 63.26 343.737 63.26C343.389 63.26 343.041 63.2805 342.713 63.3216H342.734ZM345.723 67.594C346.174 66.6697 346.624 65.7043 346.44 64.3692C344.352 66.2794 343.164 68.4567 342.284 70.8189C339.806 77.4535 341.772 83.6362 344.208 89.7778C344.597 90.7432 345.314 90.5994 345.846 90.0448C346.665 89.2232 347.628 88.6891 348.856 88.1756C347.054 85.7108 345.027 83.6362 344.27 80.74C343.144 76.447 343.655 72.3183 345.396 68.2719C345.498 68.0459 345.601 67.8405 345.703 67.6146L345.723 67.594ZM424.106 79.4048L424.086 79.3711C423.457 78.272 422.799 77.1215 421.198 76.7962C421.771 80.247 422.181 83.5746 421.648 86.9843C420.829 92.3043 418.987 97.2545 416.529 102.02C415.895 103.643 414.953 104.937 414.318 105.697C414.687 106.231 415.076 106.765 415.444 107.299C416.55 106.457 417.553 105.758 418.475 104.957C422.263 101.609 425.334 97.8091 426.092 92.5713C426.747 87.9702 426.46 83.5335 424.106 79.4048ZM417.594 82.7529C415.936 88.6686 412.987 93.4545 406.64 95.2416C406.537 95.2826 406.476 95.5086 406.291 95.8167C408.994 98.2199 411.124 101.137 413.212 104.115C413.704 103.417 414.257 102.431 414.789 101.424C415.158 100.562 415.526 99.6989 415.895 98.8362C417.103 95.94 418.331 93.0643 419.13 90.0243C420.01 86.6146 420.317 83.1637 419.99 79.6513C419.949 79.1994 419.826 78.7886 419.294 78.727C418.782 78.6654 418.475 78.9735 418.372 79.4459C418.106 80.5346 417.922 81.6643 417.615 82.7529H417.594ZM319.187 135.439C318.429 139.363 317.733 143.327 317.426 147.312C317.344 148.236 317.262 149.16 317.159 150.085C316.893 152.632 316.627 155.179 316.832 157.746C317.733 157.993 318.245 157.644 318.736 157.336C318.838 157.274 318.92 157.212 319.023 157.151C321.275 155.836 323.343 154.254 325.718 153.125C335.485 148.462 345.969 147.086 356.596 146.552C365.933 146.079 375.127 147.291 384.218 149.51C394.538 152.016 404.121 156.165 412.639 162.635C414.564 164.093 416.448 165.572 418.311 167.031C418.761 166.805 418.864 166.456 418.905 166.106C420.031 159.492 421.034 152.858 420.911 146.162C420.707 134.31 418.557 122.807 413.663 111.92C411.533 107.196 408.605 103.006 405.083 99.2059C404.346 98.4254 403.732 98.261 402.872 98.9594C401.234 100.295 399.371 101.239 397.323 101.753C390.853 103.355 384.71 102.287 378.997 99.0005C376.212 97.3983 374.267 94.9335 373.018 91.9551V91.8935C372.076 89.6956 372.056 89.6956 369.742 89.7983C369.312 89.8189 368.882 89.8394 368.431 89.8805C367.735 89.9627 367.018 90.0243 366.322 90.1064C362.289 90.5583 358.234 90.9897 354.18 90.9897C350.392 90.9897 347.095 92.3043 344.003 94.3583C342.181 95.5702 340.523 96.9464 338.844 98.3432C337.451 99.4935 337.451 99.5551 338.68 100.911C342.345 104.937 343.901 109.682 343.307 115.084C342.877 118.884 341.362 122.355 339.151 125.416C334.748 131.496 329.22 135.419 321.214 133.817C319.842 133.55 319.432 134.186 319.187 135.439ZM614.798 149.448C619.958 156.124 626.326 161.505 633.104 166.414C636.482 168.859 639.861 171.283 643.629 173.09C645.185 171.776 645.942 169.886 647.396 168.653C649.874 166.599 649.853 164.504 648.625 161.629C646.045 155.569 644.775 149.14 645.164 142.505C645.328 139.732 645.512 136.939 647.048 134.453C648.911 131.434 652.126 130.92 654.788 133.262C656.119 134.433 656.958 135.973 657.655 137.576C658.392 139.239 659.047 140.944 659.743 142.629C660.03 142.526 660.235 142.505 660.337 142.382C664.105 138.192 668.548 135.131 674.24 134.31C674.998 134.207 675.223 133.755 675.305 133.077C675.735 129.565 675.243 126.299 672.889 123.485C669.142 118.986 664.227 117.507 658.637 118.226C654.256 118.781 650.283 120.589 646.618 122.992C641.622 126.278 638.059 130.859 635.295 136.076C634.926 136.775 634.578 137.493 634.087 138.069C633.042 139.322 631.609 139.383 630.462 138.192C629.807 137.514 629.316 136.672 628.783 135.871C626.449 132.297 624.361 128.579 621.576 125.333C619.18 122.519 616.498 120.055 613.119 118.514C609.884 117.035 607.243 118.288 606.219 121.677C606.096 122.088 605.994 122.519 605.932 122.951C605.318 126.443 605.646 129.893 606.465 133.303C607.898 139.363 611.051 144.559 614.798 149.407V149.448ZM352.501 126.833C351.231 126.895 349.573 128.846 349.532 130.345C349.491 131.968 351.068 133.139 353.443 133.221C354.733 133.262 356.248 131.68 356.248 130.284C356.248 128.805 354.016 126.751 352.522 126.812L352.501 126.833ZM389.174 131.105C387.699 131.722 387.167 132.872 387.024 134.166C386.819 136.138 388.109 137.042 389.624 137.165C392.429 137.391 396.033 135.008 392.716 131.824C391.713 130.859 390.566 130.51 389.174 131.105ZM682.594 138.438C681.304 137.473 679.81 137.062 678.233 136.877C673.974 136.405 670.145 137.617 666.664 139.999C664.944 141.17 663.367 142.505 661.975 144.128C660.009 146.429 658.883 146.223 657.614 143.553C656.754 141.745 655.914 139.917 655.075 138.11C654.563 136.98 653.887 135.973 652.966 135.152C651.798 134.104 650.611 134.166 649.505 135.255C648.788 135.953 648.502 136.836 648.195 137.781C647.478 140.082 647.56 142.423 647.458 145.278C647.519 146.264 647.499 147.743 647.683 149.222C648.522 155.672 650.672 161.731 653.15 167.688C653.457 168.448 653.928 168.51 654.604 168.304C658.883 166.907 663.347 166.106 667.544 164.381C672.418 162.368 676.963 159.883 680.506 155.857C683.598 152.344 685.563 148.38 685.379 143.553C685.297 141.376 684.294 139.732 682.615 138.459L682.594 138.438ZM606.608 279.901C606.485 277.21 606.444 274.478 606.772 271.828C606.813 271.561 606.833 271.315 606.874 271.089L606.875 271.08C607.12 269.322 607.137 269.198 605.359 268.254C601.858 266.385 598.909 263.9 596.247 260.962C588.528 252.377 587.422 238.573 593.729 228.878C595.756 225.756 598.479 223.764 602.206 223.497C603.762 223.394 603.803 222.737 603.68 221.504C603.229 217.437 602.84 213.35 602.124 209.324C601.305 204.702 600.69 200.019 599.114 195.561C598.704 194.432 598.172 194 597.025 194.267C596.349 194.432 595.674 194.555 594.978 194.658C585.19 196.178 577.512 192.521 571.963 184.613C567.233 177.856 567.478 170.379 570.181 162.861C570.304 162.532 570.509 162.204 570.693 161.896L570.715 161.86C571.097 161.236 571.466 160.631 571.205 160.026C570.775 159.061 569.485 158.65 568.502 158.096C559.964 153.412 550.709 151.379 541.126 150.537C540.041 150.434 539.365 150.886 538.628 151.584C536.887 153.289 535.106 154.973 533.283 156.555C526.895 162.101 519.708 165.244 511.026 163.744C503.614 162.45 497.983 158.63 494.707 151.728C494.072 150.413 493.294 150.229 492.065 150.29C491.369 150.331 490.673 150.352 489.977 150.393C486.68 150.537 483.404 150.701 480.107 150.701C471.405 150.701 462.805 149.571 454.185 148.688C443.701 147.62 434.098 144.107 425.334 138.253C425.047 138.069 424.74 137.884 424.413 138.212C424.228 138.89 424.351 139.547 424.474 140.205C424.478 140.231 424.483 140.257 424.487 140.284C424.544 140.624 424.598 140.95 424.617 141.293C425.109 151.276 424.044 161.115 421.792 170.831C421.526 171.981 421.587 172.844 422.447 173.665C423.901 175.062 425.088 176.685 426.153 178.369C429.061 182.991 430.863 187.9 429.757 193.487C427.771 203.47 418.516 210.844 408.339 210.371C406.701 210.289 405.8 210.803 404.94 212.056C402.606 215.527 399.985 218.813 396.811 221.545C396.463 221.853 396.156 222.161 395.89 222.449L396.463 233.952C396.47 234.005 396.477 234.059 396.483 234.112C396.702 235.824 396.918 237.518 397.057 239.231C398.285 253.732 399.493 268.234 400.312 282.756C400.435 284.831 400.681 286.905 400.865 288.98C400.947 289.863 401.254 290.5 402.319 290.335C404.981 289.884 407.704 290.089 410.366 289.719C410.817 289.658 411.308 289.678 411.82 289.719C411.845 289.72 411.87 289.721 411.895 289.722C412.956 289.763 414.022 289.803 414.482 289.021C414.953 288.24 414.83 287.09 414.707 285.94C414.666 285.508 414.605 285.098 414.605 284.687C414.564 283.886 414.543 283.085 414.502 282.263C414.379 279.675 414.257 277.087 414.379 274.499C414.523 271.397 415.383 268.665 418.024 266.734C423.143 262.975 427.73 264.352 429.061 269.959C429.184 270.473 429.327 270.966 429.409 271.479C430.044 275.444 430.228 279.428 430.351 283.434C430.371 284.194 430.371 284.954 430.351 285.714C430.351 287.419 430.351 289.144 430.617 291.034C435.429 289.884 440.077 289.35 444.786 289.308C448.738 289.267 448.759 289.267 448.062 285.385C448.042 285.221 447.94 285.057 447.919 284.872C447.714 283.167 447.489 281.482 447.243 279.778C446.547 274.827 445.872 269.877 446.097 264.845C446.097 264.495 446.097 264.146 446.097 263.797C446.076 263.201 446.056 262.606 446.158 262.031C446.281 254.615 448.329 250.343 449.66 248.371C451.072 245.331 453.345 242.825 456.294 240.812C461.577 237.197 467.064 236.786 472.695 240.175C477.241 242.907 480.578 246.646 482.687 251.555C484.284 255.252 485.411 259.093 486.496 262.934C486.783 263.941 487.11 264.639 488.339 264.742C491.451 265.009 494.543 265.522 497.676 265.728C502.959 266.057 508.262 266.036 513.545 266.447C519.831 266.94 526.117 266.96 532.424 267.001C535.331 267.001 538.218 267.022 541.126 267.084C545.712 267.166 550.34 267.125 554.824 268.357C558.838 269.466 561.52 271.952 562.339 276.162C562.646 277.703 562.912 279.244 563.035 280.805C563.26 283.762 563.383 286.72 563.486 289.678C563.527 290.869 563.957 291.383 565.185 291.424C568.4 291.547 571.615 291.588 574.809 291.897C577.634 292.164 577.655 292.04 577.655 289.144C577.655 287.973 577.655 286.802 577.655 285.652C577.655 283.167 577.655 280.661 577.696 278.175C577.737 276.08 578.085 274.006 578.965 272.075C579.825 270.185 581.32 269.364 583.347 269.446C585.518 269.548 586.828 270.884 587.709 272.691C588.63 274.581 589.04 276.635 589.285 278.73C589.674 282.201 589.756 285.693 589.797 289.165C589.818 291.178 590.063 291.383 592.07 291.404C592.582 291.404 593.114 291.404 593.626 291.404C597.455 291.404 601.284 291.445 605.093 291.095C606.014 291.013 606.465 290.869 606.526 289.781C606.71 286.474 606.772 283.187 606.628 279.88L606.608 279.901ZM360.691 228.057C367.367 229.001 374.042 228.611 380.553 226.804C388.088 224.708 393.985 220.128 398.879 214.151C402.36 209.878 405.124 205.195 407.459 200.204C411.677 191.207 414.994 181.881 417.471 172.248C417.799 170.995 417.635 170.091 416.755 169.249C416.325 168.838 415.936 168.345 415.465 167.955C408.523 162.183 400.947 157.479 392.388 154.501C375.393 148.585 358.05 147.25 340.338 150.619C333.254 151.954 326.578 154.172 320.518 158.157C319.719 158.691 318.879 159.225 317.938 159.369C316.791 159.554 316.627 160.232 316.648 161.197C316.648 162.43 316.648 163.642 316.648 164.874C316.648 165.387 316.648 165.901 316.648 166.414C316.607 169.372 316.832 172.33 317.078 175.288C317.712 183.052 319.187 190.632 321.889 197.944C324.858 205.955 329.793 212.569 336.489 217.889C343.614 223.558 351.743 226.804 360.65 228.057H360.691ZM644.018 184.49C643.956 186.832 643.936 189.194 643.854 191.536C643.813 193.097 643.751 194.637 643.69 196.198C643.506 200.881 643.342 205.565 643.629 210.227C644.98 200.964 646.864 191.864 649.28 182.867C649.956 180.361 650.468 177.794 650.877 175.226C650.939 174.857 650.938 174.466 650.938 174.076C650.938 173.48 650.119 173.747 650.099 172.987C650.099 172.474 650.406 171.981 650.734 171.467C651.082 170.913 651.45 170.338 651.43 169.68C651.409 168.941 651.082 168.633 650.508 169.249C649.137 170.707 647.703 172.104 646.393 173.624C646.331 173.706 646.249 173.768 646.168 173.83L643.895 176.561C644.079 177.465 644.837 178.225 645.164 179.109L645.226 179.293C645.512 180.012 645.799 180.793 645.103 181.245C643.997 181.964 643.997 182.95 643.997 183.956C643.997 184.12 643.997 184.305 643.997 184.49H644.018ZM338.168 178.78C339.642 178.246 341.342 177.712 341.567 175.925C341.813 174.158 340.441 173.111 339.048 172.31C337.165 171.242 335.055 171.2 333.008 171.18C331.697 171.18 331.063 172.145 331.104 173.48C331.206 175.884 334.236 178.862 336.714 178.903C336.837 178.903 336.98 178.903 337.124 178.903C337.472 178.903 337.84 178.903 338.168 178.759V178.78ZM395.542 179.519C396.75 179.17 397.548 178.205 397.63 176.808C397.712 175.411 397.016 174.487 395.849 173.871C393.473 172.618 384.976 172.207 385.201 176.541C385.304 178.677 387.535 180.69 389.563 180.567C391.59 180.464 393.596 180.094 395.542 179.519ZM648.993 257.101C654.358 263.058 662.426 263.982 669.49 260.819C673.012 259.237 675.837 256.628 679.072 253.999C676.943 252.787 675.264 251.432 673.585 250.097C672.582 249.295 671.578 248.453 670.37 247.919C662.692 244.53 654.911 243.75 646.884 246.748C645.881 247.118 645.635 247.57 645.635 248.597C645.615 251.925 646.823 254.698 648.993 257.101ZM641.417 247.611C640.68 248.844 640.352 250.117 641.253 251.534C642.83 250.836 643.076 249.542 643.117 248.125C643.117 247.652 643.076 247.241 642.523 247.159C642.072 247.077 641.663 247.2 641.417 247.632V247.611Z" fill="#0A0A0A"/>
<path d="M606.608 279.901C606.485 277.21 606.444 274.478 606.772 271.828C606.813 271.561 606.833 271.315 606.874 271.089L606.875 271.08C607.12 269.322 607.137 269.198 605.359 268.254C601.858 266.385 598.909 263.9 596.247 260.962C588.528 252.377 587.422 238.573 593.729 228.878C595.756 225.756 598.479 223.764 602.206 223.497C603.762 223.394 603.803 222.737 603.68 221.504C603.229 217.437 602.84 213.35 602.124 209.324C601.305 204.702 600.69 200.019 599.114 195.561C598.704 194.432 598.172 194 597.025 194.267C596.349 194.432 595.674 194.555 594.978 194.658C585.19 196.178 577.512 192.521 571.963 184.613C567.233 177.856 567.478 170.379 570.181 162.861C570.304 162.532 570.509 162.204 570.693 161.896L570.715 161.86C571.097 161.236 571.466 160.631 571.205 160.026C570.775 159.061 569.485 158.65 568.502 158.096C559.964 153.412 550.709 151.379 541.126 150.537C540.041 150.434 539.365 150.886 538.628 151.584C536.887 153.289 535.106 154.973 533.283 156.555C526.895 162.101 519.708 165.244 511.026 163.744C503.614 162.45 497.983 158.63 494.707 151.728C494.072 150.413 493.294 150.229 492.065 150.29C491.369 150.331 490.673 150.352 489.977 150.393C486.68 150.537 483.404 150.701 480.107 150.701C471.405 150.701 462.805 149.571 454.185 148.688C443.701 147.62 434.098 144.107 425.334 138.253C425.047 138.069 424.74 137.884 424.413 138.212C424.228 138.89 424.351 139.547 424.474 140.205L424.487 140.284C424.544 140.624 424.598 140.95 424.617 141.293C425.109 151.276 424.044 161.115 421.792 170.831C421.526 171.981 421.587 172.844 422.447 173.665C423.901 175.062 425.088 176.685 426.153 178.369C429.061 182.991 430.863 187.9 429.757 193.487C427.771 203.47 418.516 210.844 408.339 210.371C406.701 210.289 405.8 210.803 404.94 212.056C402.606 215.527 399.985 218.813 396.811 221.545C396.463 221.853 396.156 222.161 395.89 222.449L396.463 233.952L396.483 234.112C396.702 235.824 396.918 237.518 397.057 239.231C398.285 253.732 399.493 268.234 400.312 282.756C400.435 284.831 400.681 286.905 400.865 288.98C400.947 289.863 401.254 290.5 402.319 290.335C404.981 289.884 407.704 290.089 410.366 289.719C410.817 289.658 411.308 289.678 411.82 289.719L411.895 289.722C412.956 289.763 414.022 289.803 414.482 289.021C414.953 288.24 414.83 287.09 414.707 285.94C414.666 285.508 414.605 285.098 414.605 284.687C414.564 283.886 414.543 283.085 414.502 282.263C414.379 279.675 414.257 277.087 414.379 274.499C414.523 271.397 415.383 268.665 418.024 266.734C423.143 262.975 427.73 264.352 429.061 269.959C429.184 270.473 429.327 270.966 429.409 271.479C430.044 275.444 430.228 279.428 430.351 283.434C430.371 284.194 430.371 284.954 430.351 285.714C430.351 287.419 430.351 289.144 430.617 291.034C435.429 289.884 440.077 289.35 444.786 289.308C448.738 289.267 448.759 289.267 448.062 285.385C448.042 285.221 447.94 285.057 447.919 284.872C447.714 283.167 447.489 281.482 447.243 279.778C446.547 274.827 445.872 269.877 446.097 264.845V263.797C446.076 263.201 446.056 262.606 446.158 262.031C446.281 254.615 448.329 250.343 449.66 248.371C451.072 245.331 453.345 242.825 456.294 240.812C461.577 237.197 467.064 236.786 472.695 240.175C477.241 242.907 480.578 246.646 482.687 251.555C484.284 255.252 485.411 259.093 486.496 262.934C486.783 263.941 487.11 264.639 488.339 264.742C491.451 265.009 494.543 265.522 497.676 265.728C502.959 266.057 508.262 266.036 513.545 266.447C519.831 266.94 526.117 266.96 532.424 267.001C535.331 267.001 538.218 267.022 541.126 267.084C545.712 267.166 550.34 267.125 554.824 268.357C558.838 269.466 561.52 271.952 562.339 276.162C562.646 277.703 562.912 279.244 563.035 280.805C563.26 283.762 563.383 286.72 563.486 289.678C563.527 290.869 563.957 291.383 565.185 291.424C568.4 291.547 571.615 291.588 574.809 291.897C577.634 292.164 577.655 292.04 577.655 289.144V285.652C577.655 283.167 577.655 280.661 577.696 278.175C577.737 276.08 578.085 274.006 578.965 272.075C579.825 270.185 581.32 269.364 583.347 269.446C585.518 269.548 586.828 270.884 587.709 272.691C588.63 274.581 589.04 276.635 589.285 278.73C589.674 282.201 589.756 285.693 589.797 289.165C589.818 291.178 590.063 291.383 592.07 291.404H593.626C597.455 291.404 601.284 291.445 605.093 291.095C606.014 291.013 606.465 290.869 606.526 289.781C606.71 286.474 606.772 283.187 606.628 279.88L606.608 279.901Z" fill="#FDFDFF"/>
<path fill-rule="evenodd" clip-rule="evenodd" d="M360.691 228.057C367.367 229.001 374.042 228.611 380.553 226.804C388.088 224.708 393.985 220.128 398.879 214.151C402.36 209.878 405.124 205.195 407.459 200.204C411.677 191.207 414.994 181.881 417.471 172.248C417.799 170.995 417.635 170.091 416.755 169.249C416.325 168.838 415.936 168.345 415.465 167.955C408.523 162.183 400.947 157.479 392.388 154.501C375.393 148.585 358.05 147.25 340.338 150.619C333.254 151.954 326.578 154.172 320.518 158.157C319.719 158.691 318.879 159.225 317.938 159.369C316.791 159.554 316.627 160.232 316.648 161.197V164.874V166.414C316.607 169.372 316.832 172.33 317.078 175.288C317.712 183.052 319.187 190.632 321.889 197.944C324.858 205.955 329.793 212.569 336.489 217.889C343.614 223.558 351.743 226.804 360.65 228.057H360.691ZM341.567 175.925C341.342 177.712 339.642 178.246 338.168 178.78V178.759C337.84 178.903 337.472 178.903 337.124 178.903H336.714C334.236 178.862 331.206 175.884 331.104 173.48C331.063 172.145 331.697 171.18 333.008 171.18C335.055 171.2 337.165 171.242 339.048 172.31C340.441 173.111 341.813 174.158 341.567 175.925ZM397.63 176.808C397.548 178.205 396.75 179.17 395.542 179.519C393.596 180.094 391.59 180.464 389.563 180.567C387.535 180.69 385.304 178.677 385.201 176.541C384.976 172.207 393.473 172.618 395.849 173.871C397.016 174.487 397.712 175.411 397.63 176.808Z" fill="#FDFDFF"/>
<path fill-rule="evenodd" clip-rule="evenodd" d="M319.187 135.439C318.429 139.363 317.733 143.327 317.426 147.312C317.344 148.236 317.262 149.16 317.159 150.085C316.893 152.632 316.627 155.179 316.832 157.746C317.733 157.993 318.245 157.644 318.736 157.336C318.838 157.274 318.92 157.212 319.023 157.151C321.275 155.836 323.343 154.254 325.718 153.125C335.485 148.462 345.969 147.086 356.596 146.552C365.933 146.079 375.127 147.291 384.218 149.51C394.538 152.016 404.121 156.165 412.639 162.635C414.564 164.093 416.448 165.572 418.311 167.031C418.761 166.805 418.864 166.456 418.905 166.106C420.031 159.492 421.034 152.858 420.911 146.162C420.707 134.31 418.557 122.807 413.663 111.92C411.533 107.196 408.605 103.006 405.083 99.2059C404.346 98.4254 403.732 98.261 402.872 98.9594C401.234 100.295 399.371 101.239 397.323 101.753C390.853 103.355 384.71 102.287 378.997 99.0005C376.212 97.3983 374.267 94.9335 373.018 91.9551V91.8935C372.076 89.6956 372.056 89.6956 369.742 89.7983C369.312 89.8189 368.882 89.8394 368.431 89.8805C367.735 89.9627 367.018 90.0243 366.322 90.1064C362.289 90.5583 358.234 90.9897 354.18 90.9897C350.392 90.9897 347.095 92.3043 344.003 94.3583C342.181 95.5702 340.523 96.9464 338.844 98.3432C337.451 99.4935 337.451 99.5551 338.68 100.911C342.345 104.937 343.901 109.682 343.307 115.084C342.877 118.884 341.362 122.355 339.151 125.416C334.748 131.496 329.22 135.419 321.214 133.817C319.842 133.55 319.432 134.186 319.187 135.439ZM349.532 130.345C349.573 128.846 351.231 126.895 352.501 126.833L352.522 126.812C354.016 126.751 356.248 128.805 356.248 130.284C356.248 131.68 354.733 133.262 353.443 133.221C351.068 133.139 349.491 131.968 349.532 130.345ZM387.024 134.166C387.167 132.872 387.699 131.722 389.174 131.105C390.566 130.51 391.713 130.859 392.716 131.824C396.033 135.008 392.429 137.391 389.624 137.165C388.109 137.042 386.819 136.138 387.024 134.166Z" fill="#FDFDFF"/>
<path d="M342.734 63.3216C338.762 63.8557 335.895 66.1151 333.827 69.4221C329.67 76.0773 330.776 87.0048 340.093 92.4275C340.85 92.8589 341.342 92.5713 341.854 92.2427C341.956 92.181 342.079 92.0989 342.181 92.0373C343 91.6059 342.775 91.0308 342.55 90.394L342.488 90.2502C341.792 88.2989 340.973 86.3475 340.441 84.3551C338.864 78.3573 338.844 72.4827 342.263 66.9984C342.98 65.8481 343.799 64.7389 344.618 63.527C344.188 63.3832 343.963 63.26 343.737 63.26C343.389 63.26 343.041 63.2805 342.713 63.3216H342.734Z" fill="#0A0A0A"/>
<path d="M345.723 67.594C346.174 66.6697 346.624 65.7043 346.44 64.3692C344.352 66.2794 343.164 68.4567 342.284 70.8189C339.806 77.4535 341.772 83.6362 344.208 89.7778C344.597 90.7432 345.314 90.5994 345.846 90.0448C346.665 89.2232 347.628 88.6891 348.856 88.1756C347.054 85.7108 345.027 83.6362 344.27 80.74C343.144 76.447 343.655 72.3183 345.396 68.2719C345.498 68.0459 345.601 67.8405 345.703 67.6146L345.723 67.594Z" fill="#0A0A0A"/>
<path d="M417.594 82.7529C415.936 88.6686 412.987 93.4545 406.64 95.2416C406.537 95.2826 406.476 95.5086 406.291 95.8167C408.994 98.2199 411.124 101.137 413.212 104.115C413.704 103.417 414.257 102.431 414.789 101.424L415.895 98.8362C417.103 95.94 418.331 93.0643 419.13 90.0243C420.01 86.6146 420.317 83.1637 419.99 79.6513C419.949 79.1994 419.826 78.7886 419.294 78.727C418.782 78.6654 418.475 78.9735 418.372 79.4459C418.106 80.5346 417.922 81.6643 417.615 82.7529H417.594Z" fill="#0A0A0A"/>
<path d="M424.106 79.4048L424.086 79.3711C423.457 78.272 422.799 77.1215 421.198 76.7962C421.771 80.247 422.181 83.5746 421.648 86.9843C420.829 92.3043 418.987 97.2545 416.529 102.02C415.895 103.643 414.953 104.937 414.318 105.697C414.687 106.231 415.076 106.765 415.444 107.299C416.55 106.457 417.553 105.758 418.475 104.957C422.263 101.609 425.334 97.8091 426.092 92.5713C426.747 87.9702 426.46 83.5335 424.106 79.4048Z" fill="#0A0A0A"/>
</svg>
