<svg width="18" height="20" viewBox="0 0 18 20" fill="none" xmlns="http://www.w3.org/2000/svg">
<path d="M6.6441 13.8928L6.64424 13.8928C7.23911 13.6226 8.03256 13.5 9 13.5C9.96731 13.5 10.7607 13.6225 11.3555 13.8926C11.9315 14.1539 12.3249 14.5543 12.5255 15.1583C12.5674 15.284 12.6576 15.388 12.7762 15.4473C12.8948 15.5067 13.0322 15.5165 13.158 15.4746L13.316 15.949L13.158 15.4746C13.2839 15.4327 13.388 15.3425 13.4473 15.2239C13.5067 15.1053 13.5165 14.968 13.4747 14.8422C13.1755 13.9455 12.5701 13.3463 11.7691 12.9822L11.769 12.9821C10.989 12.6274 10.0326 12.5 9 12.5C7.96745 12.5 7.01107 12.6274 6.23109 12.9821L6.6441 13.8928ZM6.6441 13.8928C6.06942 14.154 5.6751 14.5552 5.47456 15.1582C5.43262 15.284 5.34244 15.388 5.22385 15.4473C5.10521 15.5067 4.96784 15.5165 4.84196 15.4746L4.684 15.949M6.6441 13.8928L4.684 15.949M4.684 15.949L4.84196 15.4746C4.71609 15.4327 4.61202 15.3425 4.55265 15.2239C4.49328 15.1052 4.48348 14.9678 4.52539 14.842M4.684 15.949L4.52539 14.842M4.52539 14.842C4.82455 13.9456 5.43074 13.3463 6.23098 12.9821L4.52539 14.842ZM13.5 1V1.5H14H16C16.3978 1.5 16.7794 1.65804 17.0607 1.93934C17.342 2.22064 17.5 2.60218 17.5 3V18C17.5 18.3978 17.342 18.7794 17.0607 19.0607C16.7794 19.342 16.3978 19.5 16 19.5H2C1.60218 19.5 1.22064 19.342 0.93934 19.0607C0.658035 18.7794 0.5 18.3978 0.5 18V3C0.5 2.60218 0.658035 2.22064 0.93934 1.93934C1.22064 1.65804 1.60218 1.5 2 1.5H4H4.5V1C4.5 0.867392 4.55268 0.740215 4.64645 0.646446C4.74021 0.552678 4.86739 0.5 5 0.5C5.13261 0.5 5.25979 0.552678 5.35355 0.646446C5.44732 0.740215 5.5 0.867392 5.5 1V1.5H6H12H12.5V1C12.5 0.867392 12.5527 0.740215 12.6464 0.646446C12.7402 0.552678 12.8674 0.5 13 0.5C13.1326 0.5 13.2598 0.552679 13.3536 0.646446C13.4473 0.740214 13.5 0.867391 13.5 1ZM4.5 3V2.5H4H2H1.5V3V18V18.5H2H16H16.5V18V3V2.5H16H14H13.5V3C13.5 3.13261 13.4473 3.25979 13.3536 3.35355C13.2598 3.44732 13.1326 3.5 13 3.5C12.8674 3.5 12.7402 3.44732 12.6464 3.35355C12.5527 3.25978 12.5 3.13261 12.5 3V2.5H12H6H5.5V3C5.5 3.13261 5.44732 3.25978 5.35355 3.35355C5.25979 3.44732 5.13261 3.5 5 3.5C4.86739 3.5 4.74021 3.44732 4.64645 3.35355C4.55268 3.25978 4.5 3.13261 4.5 3ZM9 6.5C8.60217 6.5 8.22064 6.65804 7.93934 6.93934C7.65804 7.22064 7.5 7.60218 7.5 8C7.5 8.39783 7.65804 8.77936 7.93934 9.06066C8.22064 9.34196 8.60217 9.5 9 9.5C9.39783 9.5 9.77936 9.34196 10.0607 9.06066C10.342 8.77936 10.5 8.39783 10.5 8C10.5 7.60218 10.342 7.22064 10.0607 6.93934C9.77936 6.65804 9.39783 6.5 9 6.5ZM6.5 8C6.5 7.33696 6.76339 6.70107 7.23223 6.23223C7.70107 5.76339 8.33696 5.5 9 5.5C9.66304 5.5 10.2989 5.76339 10.7678 6.23223C11.2366 6.70107 11.5 7.33696 11.5 8C11.5 8.66304 11.2366 9.29893 10.7678 9.76777C10.2989 10.2366 9.66304 10.5 9 10.5C8.33696 10.5 7.70107 10.2366 7.23223 9.76777C6.76339 9.29893 6.5 8.66304 6.5 8Z" fill="#F3F3F5" stroke="#FEE41F"/>
</svg>
