<svg width="24" height="24" viewBox="0 0 24 24" fill="none" xmlns="http://www.w3.org/2000/svg">
<path d="M16.3535 8.64759L16.3535 8.64758C16.2836 8.57771 16.1946 8.53012 16.0976 8.51082C16.0007 8.49152 15.9002 8.50138 15.8089 8.53915C15.7176 8.57692 15.6395 8.64091 15.5845 8.72304C15.5295 8.80517 15.5001 8.90175 15.5 9.00058V11V11.5H15H9C8.86739 11.5 8.74021 11.5527 8.64645 11.6464C8.55268 11.7402 8.5 11.8674 8.5 12C8.5 12.1326 8.55268 12.2598 8.64645 12.3535C8.74022 12.4473 8.86739 12.5 9 12.5H15H15.5V13V14.9999C15.5 14.9999 15.5 14.9999 15.5 15C15.5 15.0988 15.5294 15.1954 15.5843 15.2776C15.6392 15.3598 15.7173 15.4239 15.8087 15.4617C15.9 15.4995 16.0005 15.5094 16.0975 15.4902C16.1945 15.4709 16.2835 15.4233 16.3534 15.3534L16.3535 8.64759ZM16.3535 8.64759L19.3534 11.6465C19.3534 11.6465 19.3534 11.6465 19.3534 11.6465C19.3535 11.6465 19.3535 11.6466 19.3535 11.6466C19.4472 11.7403 19.4998 11.8674 19.4998 12C19.4998 12.1325 19.4471 12.2597 19.3534 12.3534C19.3534 12.3534 19.3534 12.3535 19.3534 12.3535L16.3535 15.3534L16.3535 8.64759ZM6 4.50098H5.5V5.00098V18.001C5.5 18.3988 5.65804 18.7803 5.93934 19.0616C6.22065 19.3429 6.60218 19.501 7 19.501H15C15.1326 19.501 15.2598 19.5537 15.3536 19.6474C15.4473 19.7412 15.5 19.8684 15.5 20.001C15.5 20.1336 15.4473 20.2608 15.3536 20.3545C15.2598 20.4483 15.1326 20.501 15 20.501H7C6.33696 20.501 5.70107 20.2376 5.23223 19.7687C4.76339 19.2999 4.5 18.664 4.5 18.001V4.00098C4.5 3.86837 4.55268 3.74119 4.64645 3.64742C4.74022 3.55365 4.86739 3.50098 5 3.50098H15C15.0657 3.50098 15.1307 3.51391 15.1913 3.53904C15.252 3.56416 15.3071 3.60099 15.3536 3.64742C15.4 3.69385 15.4368 3.74897 15.4619 3.80964C15.4871 3.8703 15.5 3.93532 15.5 4.00098C15.5 4.06664 15.4871 4.13166 15.4619 4.19232C15.4368 4.25298 15.4 4.3081 15.3536 4.35453C15.3071 4.40096 15.252 4.43779 15.1913 4.46292C15.1307 4.48804 15.0657 4.50098 15 4.50098H6Z" fill="#F3F3F5" stroke="#F3F3F5"/>
</svg>
