<svg width="24" height="24" viewBox="0 0 24 24" fill="none" xmlns="http://www.w3.org/2000/svg">
<path d="M21.4097 9.50017H21.4997V12.0002C21.4997 12.8956 20.9949 14.0934 19.7447 14.416L19.4711 14.4867L19.3905 14.7575C19.1767 15.4758 18.662 16.1725 17.7414 16.4169L17.4706 16.4888L17.3905 16.7573C17.2574 17.2041 17.0107 17.6385 16.6327 17.9587C16.2617 18.273 15.7379 18.5002 14.9997 18.5002H11.4097H11.202L11.0555 18.6473L8.35613 21.3566C8.35605 21.3567 8.35596 21.3568 8.35588 21.3569C8.04177 21.6708 7.51366 21.9502 6.95968 21.9502C6.54448 21.9502 6.09103 21.8044 5.64324 21.3566L2.64726 18.3606C2.36918 18.0688 2.11863 17.6275 2.06254 17.1483C2.009 16.6908 2.12688 16.1652 2.64277 15.6442L3.35072 14.9462L3.49968 14.7994V14.5902V10.7973L7.79324 6.50373L7.85252 6.44445L7.88922 6.36908C8.37808 5.36518 9.31815 4.50017 10.9997 4.50017H13.5897H13.7977L13.9443 4.35269L15.6397 2.64728C15.9316 2.36939 16.3726 2.11909 16.8516 2.06303C17.3094 2.00945 17.8355 2.12755 18.3569 2.64445C18.3571 2.64468 18.3573 2.6449 18.3575 2.64513L21.3521 5.63971C21.6296 5.93095 21.8806 6.37459 21.9368 6.85568C21.9904 7.31467 21.8723 7.83897 21.359 8.35376L21.0622 8.64068L20.173 9.50017H21.4097ZM4.49968 15.2042L3.35613 16.3566C3.35592 16.3568 3.35571 16.357 3.3555 16.3573C3.35352 16.3592 3.35129 16.3614 3.34884 16.3638C3.29402 16.418 3.12635 16.5838 3.07488 16.8347C3.01104 17.146 3.14359 17.4262 3.35455 17.6518L3.36053 17.6581L3.36672 17.6643L6.35613 20.6437C6.35625 20.6438 6.35638 20.644 6.3565 20.6441C6.35854 20.6461 6.36083 20.6485 6.36336 20.651C6.41756 20.7058 6.58332 20.8735 6.83421 20.925C7.14547 20.9888 7.42575 20.8563 7.65126 20.6453L7.65735 20.6396L7.66324 20.6337L10.7968 17.5002H14.9997C15.5296 17.5002 15.9395 17.3127 16.2 16.9734C16.4421 16.6582 16.4997 16.2826 16.4997 16.0002V15.5002H16.9997C17.5296 15.5002 17.9395 15.3127 18.2 14.9734C18.4421 14.6582 18.4997 14.2826 18.4997 14.0002V13.5002H18.9997C19.5296 13.5002 19.9395 13.3127 20.2 12.9734C20.4421 12.6582 20.4997 12.2826 20.4997 12.0002V11.0002V10.5002H19.9997H12.9997H12.4997V11.0002C12.4997 11.5086 12.3284 12.1448 11.933 12.6432C11.5518 13.1236 10.9455 13.5002 9.99969 13.5002C9.05387 13.5002 8.44753 13.1236 8.06639 12.6432C7.67101 12.1448 7.49968 11.5086 7.49968 11.0002V9.41017V8.20307L6.64613 9.05662L4.64613 11.0566L4.49968 11.2031V11.4102V15.2042ZM18.5897 9.50017H18.7977L18.9443 9.35269L20.6432 7.64373C20.6435 7.64351 20.6437 7.64329 20.6439 7.64307C20.6459 7.6411 20.6481 7.63891 20.6505 7.6365C20.7053 7.5823 20.873 7.41654 20.9245 7.16565C20.9883 6.85439 20.8558 6.5741 20.6448 6.34859L20.6388 6.3422L20.6326 6.33603L17.6432 3.35662C17.6432 3.35655 17.6431 3.35649 17.643 3.35642C17.641 3.35433 17.6386 3.35196 17.636 3.34933C17.5818 3.29451 17.4161 3.12684 17.1652 3.07537C16.8539 3.01152 16.5736 3.14408 16.3481 3.35504L16.342 3.36073L16.3361 3.36662L14.2026 5.50017H10.9997C9.91387 5.50017 9.25092 5.97293 8.88715 6.56636C8.54687 7.12148 8.49968 7.72819 8.49968 8.00017V11.0002C8.49968 11.2826 8.5573 11.6582 8.79934 11.9734C9.05986 12.3127 9.46979 12.5002 9.99969 12.5002C10.5296 12.5002 10.9395 12.3127 11.2 11.9734C11.4421 11.6582 11.4997 11.2826 11.4997 11.0002V9.50017H18.5897Z" fill="#F3F3F5" stroke="#FEE41F"/>
</svg>
