<svg width="24" height="24" viewBox="0 0 24 24" fill="none" xmlns="http://www.w3.org/2000/svg">
<path d="M4.5 20.0006V20V10C4.5 9.58379 4.64248 9.23962 4.94155 8.94055C5.24061 8.6415 5.58424 8.4995 5.99939 8.5H6H7H7.5V8V6C7.5 4.74884 7.9353 3.69681 8.81656 2.81555C9.69781 1.9343 10.7494 1.4994 11.9998 1.5H12C13.2512 1.5 14.3032 1.9353 15.1844 2.81655C16.0657 3.6978 16.5006 4.74942 16.5 5.99976V6V8V8.5H17H18C18.4162 8.5 18.7604 8.64248 19.0594 8.94155C19.3585 9.24061 19.5005 9.58424 19.5 9.99939V10V20C19.5 20.4162 19.3575 20.7604 19.0584 21.0594C18.7594 21.3585 18.4158 21.5005 18.0006 21.5H18H6C5.58379 21.5 5.23962 21.3575 4.94056 21.0584C4.6415 20.7594 4.4995 20.4158 4.5 20.0006ZM5.5 20V20.5H6H18H18.5V20V10V9.5H18H6H5.5V10V20ZM12 13.5H12.0006C12.4158 13.4995 12.7594 13.6415 13.0584 13.9406C13.3575 14.2396 13.5 14.5838 13.5 15V15.0006C13.5005 15.4158 13.3585 15.7594 13.0594 16.0584C12.7604 16.3575 12.4162 16.5 12 16.5H11.9994C11.5842 16.5005 11.2406 16.3585 10.9416 16.0594C10.6425 15.7604 10.5 15.4162 10.5 15L10.5 14.9994C10.4995 14.5842 10.6415 14.2406 10.9406 13.9416C11.2396 13.6425 11.5838 13.5 12 13.5ZM8.5 8V8.5H9H15H15.5V8V6C15.5 5.03557 15.1567 4.19961 14.4786 3.52145C13.8004 2.84328 12.9644 2.5 12 2.5C11.0356 2.5 10.1996 2.84328 9.52145 3.52145C8.84328 4.19961 8.5 5.03557 8.5 6V8ZM20 10V20C20 20.55 19.804 21.021 19.412 21.413C19.02 21.805 18.5493 22.0007 18 22H6C5.45 22 4.979 21.804 4.587 21.412C4.195 21.02 3.99934 20.5493 4 20L20 10Z" fill="#FDFDFF" stroke="#F3F3F5"/>
</svg>
