<svg width="85" height="85" viewBox="0 0 85 85" fill="none" xmlns="http://www.w3.org/2000/svg">
<path d="M69.9505 27.4479H54.013C53.0737 27.4479 52.1729 27.0748 51.5087 26.4106C50.8445 25.7464 50.4714 24.8456 50.4714 23.9062V7.96875H18.5964C17.657 7.96875 16.7562 8.34189 16.092 9.00608C15.4278 9.67027 15.0547 10.5711 15.0547 11.5104V73.4896C15.0547 74.4289 15.4278 75.3297 16.092 75.9939C16.7562 76.6581 17.657 77.0312 18.5964 77.0312H66.4089C67.3482 77.0312 68.249 76.6581 68.9132 75.9939C69.5774 75.3297 69.9505 74.4289 69.9505 73.4896V27.4479ZM50.4714 7.96875L69.9505 27.4479L50.4714 7.96875Z" fill="#FFF5A5"/>
<path d="M69.9505 27.4479H54.013C53.0737 27.4479 52.1729 27.0748 51.5087 26.4106C50.8445 25.7464 50.4714 24.8456 50.4714 23.9063V7.96875M69.9505 27.4479V73.4896C69.9505 74.4289 69.5774 75.3297 68.9132 75.9939C68.249 76.6581 67.3482 77.0313 66.4089 77.0313H18.5964C17.657 77.0313 16.7562 76.6581 16.092 75.9939C15.4278 75.3297 15.0547 74.4289 15.0547 73.4896V11.5104C15.0547 10.5711 15.4278 9.67027 16.092 9.00608C16.7562 8.34189 17.657 7.96875 18.5964 7.96875H50.4714M69.9505 27.4479L50.4714 7.96875" stroke="#4D4D4D" stroke-width="1.77083" stroke-linecap="round" stroke-linejoin="round"/>
<path d="M60.9666 43.4472H53.012V59.3228M53.012 51.3841H58.2023M24.0252 59.2927V43.4154H29.3678C30.781 43.4149 32.1365 43.9758 33.1361 44.9748C34.1357 45.9737 34.6976 47.3288 34.698 48.742C34.6985 50.1552 34.1376 51.5107 33.1386 52.5103C32.1397 53.5099 30.7845 54.0718 29.3714 54.0722H24.0234M38.5177 59.3228V43.3853H41.22C43.3334 43.3853 45.3603 44.2248 46.8548 45.7192C48.3492 47.2137 49.1888 49.2406 49.1888 51.354C49.1888 53.4674 48.3492 55.4943 46.8548 56.9888C45.3603 58.4832 43.3334 59.3228 41.22 59.3228H38.5177Z" stroke="#4D4D4D" stroke-width="1.77083" stroke-linecap="round" stroke-linejoin="round"/>
</svg>
