<svg width="24" height="24" viewBox="0 0 24 24" fill="none" xmlns="http://www.w3.org/2000/svg">
<path d="M8.5 18V17.5H8H4C3.17614 17.5 2.5 16.8239 2.5 16V4C2.5 3.17614 3.17614 2.5 4 2.5H20C20.8239 2.5 21.5 3.17614 21.5 4V16C21.5 16.8239 20.8239 17.5 20 17.5H13.9H13.6929L13.5464 17.6464L9.84645 21.3464L10.2 21.7L9.84645 21.3464C9.77596 21.4169 9.72535 21.4499 9.68443 21.4681C9.64569 21.4853 9.59166 21.5 9.5 21.5H9C8.81362 21.5 8.69716 21.4401 8.62855 21.3714C8.55994 21.3028 8.5 21.1864 8.5 21V18ZM13.3071 16.5H20H20.5V16V4V3.5H20H4H3.5V4V16V16.5H4H9.5V19.1V20.3071L10.3536 19.4536L13.3071 16.5ZM15.5149 6.5L14.4469 8.78856L14.1149 9.5H14.9H16.5V12.5H13.5V8.91041L14.6191 6.5H15.5149ZM9.5149 6.5L8.44691 8.78856L8.1149 9.5H8.9H10.5V12.5H7.5V8.91041L8.61912 6.5H9.5149Z" fill="#FEE41F" stroke="#FEE41F"/>
</svg>
